<?xml version="1.0" encoding="UTF-8"?>
<svg width="95px" height="30px" viewBox="0 0 95 30" version="1.1" xmlns="http://www.w3.org/2000/svg" xmlns:xlink="http://www.w3.org/1999/xlink">
    <!-- Generator: Sketch 61.2 (89653) - https://sketch.com -->
    <title>Group 320</title>
    <desc>Created with Sketch.</desc>
    <defs>
        <polygon id="path-1" points="0.5 0.362947862 0.782955414 0.362947862 0.782955414 0.862947862 0.5 0.862947862"></polygon>
        <polygon id="path-3" points="0.576083333 0.572325 29.8875 0.572325 29.8875 25.7167625 0.576083333 25.7167625"></polygon>
        <polygon id="path-5" points="0.31735 0.371 0.81735 0.371 0.81735 0.7149 0.31735 0.7149"></polygon>
        <polygon id="path-7" points="0.4973 0.371 0.9973 0.371 0.9973 0.8486 0.4973 0.8486"></polygon>
    </defs>
    <g id="Page-1" stroke="none" stroke-width="1" fill="none" fill-rule="evenodd">
        <g id="Desktop-HD-Copy-10" transform="translate(-1133.000000, -4968.000000)">
            <g id="Group-8" transform="translate(180.000000, 4943.000000)">
                <g id="Group-320" transform="translate(953.000000, 24.666667)">
                    <g id="Group-3" transform="translate(0.000000, 19.333333)">
                        <mask id="mask-2" fill="white">
                            <use xlink:href="#path-1"></use>
                        </mask>
                        <g id="Clip-2"></g>
                        <path d="M0.5497,0.5025 C0.4807,0.4845 0.5097,0.694 0.4997,0.7315 C0.6137,0.6845 0.5457,0.448 0.5497,0.5025" id="Fill-1" fill="#FEFEFE" mask="url(#mask-2)"></path>
                    </g>
                    <polygon id="Fill-4" fill="#FEFEFE" points="2.3375 19.0443333 2.6625 18.6223333 2.3735 18.8733333"></polygon>
                    <path d="M4.16362308,18.7092681 L4.11687363,18.5472681 L4,19.1232681 C4.33235939,19.0282681 4.76186998,18.6422681 5,18.8382681 C4.84441198,18.1262681 4.44192841,18.9602681 4.16362308,18.7092681" id="Fill-6" fill="#FEFEFE"></path>
                    <path d="M4.35323966,19.8519592 C4.37923966,19.8819592 4.38723966,19.8989592 4.40223966,19.9219592 C4.44823966,19.9169592 4.51023966,19.9169592 4.61823966,19.9359592 C4.54223966,19.6589592 4.85723966,19.6949592 4.35323966,19.8519592" id="Fill-8" fill="#FEFEFE"></path>
                    <path d="M4.51792508,19.7792451 C4.29592508,19.8012451 4.66792508,20.0112451 4.51792508,19.7792451" id="Fill-10" fill="#FEFEFE"></path>
                    <path d="M6.28143267,19.7993333 C6.34543267,19.9633333 6.60643267,19.9983333 6.51143267,20.1173333 C6.81043267,19.9793333 6.74543267,19.8173333 6.56943267,19.5493333 L6.28143267,19.7993333 Z" id="Fill-12" fill="#FEFEFE"></path>
                    <path d="M6.5745,18.7555168 L6.4255,18.8615168 C6.4525,18.9305168 6.4935,18.9535168 6.5745,18.7555168" id="Fill-14" fill="#FEFEFE"></path>
                    <path d="M6.513,18.8857915 C6.535,18.6737915 6.475,18.8777915 6.341,19.0287915 L6.659,18.8037915 C6.615,18.6897915 6.606,18.4577915 6.513,18.8857915" id="Fill-16" fill="#FEFEFE"></path>
                    <path d="M4.6429591,18.5766433 C4.0829591,18.6796433 4.1749591,19.1806433 4.7339591,19.0756433 C4.5669591,18.9216433 4.3529591,18.8256433 4.6429591,18.5766433" id="Fill-18" fill="#FEFEFE"></path>
                    <path d="M4.29514971,18.9291883 C4.38814971,18.8091883 4.72214971,19.1181883 4.70414971,18.8951883 L4.48114971,18.6881883 L4.29514971,18.9291883 Z" id="Fill-20" fill="#FEFEFE"></path>
                    <path d="M7.67119113,20.1323333 C7.68819113,19.9803333 7.56619113,19.7283333 7.54019113,19.5343333 L7.32719113,19.7103333 C7.44119113,19.8133333 7.65219113,19.9073333 7.67119113,20.1323333" id="Fill-22" fill="#FEFEFE"></path>
                    <path d="M7.34258856,18.9672997 L7.66158856,18.7032997 C7.37258856,18.6752997 7.32158856,18.8002997 7.34258856,18.9672997" id="Fill-24" fill="#FEFEFE"></path>
                    <polygon id="Fill-26" fill="#FEFEFE" points="6.188 19.1138333 6.812 18.5528333 6.71 18.5618333"></polygon>
                    <polygon id="Fill-28" fill="#FEFEFE" points="8.341 20.1003333 8.659 19.5663333 8.519 19.7473333"></polygon>
                    <path d="M8.20086801,19.4978333 C8.06986801,19.7898333 8.39586801,19.9888333 8.25586801,20.1688333 C8.47686801,20.1148333 8.66286801,19.8638333 8.83086801,19.6378333 C8.65086801,19.7648333 8.45586801,19.7338333 8.20086801,19.4978333" id="Fill-30" fill="#FEFEFE"></path>
                    <path d="M10.641,19.6683333 C10.551,19.7393333 10.459,19.8643333 10.359,19.9983333 C10.454,19.9303333 10.548,19.8333333 10.641,19.6683333" id="Fill-32" fill="#FEFEFE"></path>
                    <path d="M8.369,18.6178333 C8.395,18.7088333 8.448,18.9488333 8.631,19.0488333 L8.497,18.6228333 C8.458,18.6208333 8.414,18.6188333 8.369,18.6178333" id="Fill-34" fill="#FEFEFE"></path>
                    <path d="M8.36,18.8153333 L8.365,18.8293333 C8.503,18.8403333 8.599,18.8473333 8.64,18.8513333 C8.605,18.8463333 8.52,18.8363333 8.36,18.8153333" id="Fill-36" fill="#FEFEFE"></path>
                    <path d="M8.484,18.8499569 L8.516,18.8519569 C8.504,18.8099569 8.496,18.7959569 8.484,18.8499569" id="Fill-38" fill="#FEFEFE"></path>
                    <path d="M7.51043714,18.4028333 C7.37843714,18.6958333 7.60243714,18.9018333 7.32243714,19.2638333 C7.50843714,19.0238333 7.90143714,18.7638333 7.51043714,18.4028333" id="Fill-40" fill="#FEFEFE"></path>
                    <path d="M8.318,19.0313333 L8.682,18.7303333 L8.337,18.6353333 C8.345,18.7483333 8.411,18.9123333 8.318,19.0313333" id="Fill-42" fill="#FEFEFE"></path>
                    <polygon id="Fill-44" fill="#FEFEFE" points="8.5455 18.9193333 8.5835 18.7473333 8.4165 18.8843333"></polygon>
                    <path d="M10.3256174,19.0124415 C10.4716174,18.8254415 10.6336174,18.8084415 10.8156174,18.7774415 C10.6176174,18.6944415 10.4136174,18.6514415 10.2206174,18.6534415 C10.1956174,18.7874415 10.1146174,19.0294415 10.3256174,19.0124415" id="Fill-46" fill="#FEFEFE"></path>
                    <path d="M8.48444122,18.8599194 L8.51644122,18.8349194 C8.49644122,18.7989194 8.47944122,18.7879194 8.48444122,18.8599194" id="Fill-48" fill="#FEFEFE"></path>
                    <path d="M11.518,18.8718333 C11.508,18.8488333 11.497,18.8198333 11.488,18.7948333 L11.482,18.8688333 L11.518,18.8718333 Z" id="Fill-50" fill="#FEFEFE"></path>
                    <path d="M8.63851359,18.7697329 C8.48951359,18.6877329 8.40251359,18.7937329 8.32051359,18.9257329 C8.43051359,18.8817329 8.54751359,18.8527329 8.67251359,18.8487329 C8.68451359,18.7887329 8.68551359,18.7487329 8.63851359,18.7697329" id="Fill-52" fill="#FEFEFE"></path>
                    <path d="M10.63,18.9334601 C10.552,18.8454601 10.463,18.7694601 10.37,18.7014601 C10.447,18.8354601 10.605,19.0454601 10.63,18.9334601" id="Fill-54" fill="#FEFEFE"></path>
                    <path d="M8.502491,18.7981589 C8.495491,18.8051589 8.488491,18.8131589 8.481491,18.8171589 C8.530491,18.9081589 8.523491,18.8631589 8.502491,18.7981589" id="Fill-56" fill="#FEFEFE"></path>
                    <path d="M8.4305,18.9648333 C8.5055,18.9028333 8.5645,18.7968333 8.6215,18.7018333 C8.5335,18.7368333 8.4505,18.7828333 8.3785,18.8468333 C8.3975,18.8768333 8.4165,18.9228333 8.4305,18.9648333" id="Fill-58" fill="#FEFEFE"></path>
                    <path d="M11.6401402,16.9269663 C11.4890925,16.7426966 12.0777113,16.6561798 11.9912871,16.3846442 L11.6876345,16.4816479 C11.6798486,16.4393258 11.7888521,16.3715356 11.7024279,16.3333333 C11.6876345,16.4816479 11.3894322,16.6202247 11.121595,16.4621723 C10.8685512,16.5741573 11.0530786,17.0614232 11.287436,17.3333333 C11.2928862,17.2685393 11.291329,17.2086142 11.5529374,17.1202247 C11.45717,17.0393258 10.9588684,16.9329588 11.177654,16.7977528 C11.5264651,16.7202247 11.4665132,16.8490637 11.6401402,16.9269663" id="Fill-60" fill="#FEFEFE"></path>
                    <path d="M11.2485,18.5418333 L11.1085,18.5918333 C11.2695,18.6598333 11.3865,18.8168333 11.6025,19.1248333 C11.8315,18.9298333 11.8775,18.7828333 11.8915,18.6508333 L11.2015,18.6018333 L11.2485,18.5418333 Z" id="Fill-62" fill="#FEFEFE"></path>
                    <path d="M10.367,19.1391369 C10.469,18.8177083 10.803,18.6793155 10.589,18.3333333 C10.179,18.358631 10.306,18.6034226 10.064,18.7440476 C10.725,18.6599702 9.878,18.9233631 10.361,19.1026786 C10.232,19.1577381 10.115,19.1748512 10.005,19.1889881 C10.125,19.2276786 10.241,19.2752976 10.351,19.3333333 L10.336,19.313244 L10.332,19.3147321 L10.333,19.3095238 C10.304,19.2700893 10.294,19.2455357 10.326,19.2686012 C10.328,19.2641369 10.34,19.2619048 10.34,19.2619048 C10.344,19.2172619 10.354,19.1785714 10.367,19.140625 C10.56,19.2053571 10.399,19.2239583 10.34,19.2619048 L10.333,19.3095238 L10.336,19.313244 L10.995,19.1339286 C10.853,19.0900298 10.678,19.1004464 10.367,19.1391369" id="Fill-64" fill="#FEFEFE"></path>
                    <path d="M7.4716111,16.7833333 C7.4926111,16.8213333 7.4926111,16.8523333 7.4936111,16.8833333 C7.5356111,16.8303333 7.5516111,16.7933333 7.4716111,16.7833333" id="Fill-66" fill="#FEFEFE"></path>
                    <path d="M7.26045976,18.7658333 L7.30645976,18.7166667 C7.57645976,18.8383333 7.92945976,19.2833333 7.88345976,19.3333333 C7.79945976,19.0108333 7.72545976,18.7808333 7.54045976,18.465 C7.49345976,18.5158333 7.45645976,18.66 7.29845976,18.6233333 C7.16045976,18.5166667 7.29545976,18.4516667 7.28545976,18.3333333 C7.19445976,18.4291667 6.96045976,18.5933333 7.26045976,18.7658333" id="Fill-68" fill="#FEFEFE"></path>
                    <path d="M8.4865,18.5398333 L8.5055,18.7638333 C8.1885,18.6788333 8.2615,18.9538333 8.2255,19.1268333 L8.7745,18.9108333 L8.4865,18.5398333 Z" id="Fill-70" fill="#FEFEFE"></path>
                    <polygon id="Fill-72" fill="#FEFEFE" points="11.3455 19.1558333 11.6545 18.5108333 11.4105 18.6998333"></polygon>
                    <polygon id="Fill-74" fill="#FEFEFE" points="11.407 19.0313333 11.593 18.7913333 11.428 18.6353333"></polygon>
                    <path d="M44.5007589,15.7358333 L44.4727589,15.9308333 C44.5267589,15.8228333 44.5487589,15.7438333 44.5007589,15.7358333" id="Fill-76" fill="#FEFEFE"></path>
                    <path d="M26.259053,18.5053061 C26.500053,18.8733061 26.772053,19.4433061 26.738053,18.9993061 L26.659053,18.5663061 C26.495053,18.6453061 26.368053,18.5973061 26.259053,18.5053061" id="Fill-78" fill="#FEFEFE"></path>
                    <path d="M36.6135,16.7563333 C36.5915,16.7143333 36.5665,16.6693333 36.5435,16.6253333 C36.4875,16.7743333 36.4355,16.9123333 36.3865,17.0413333 C36.4575,16.9533333 36.5335,16.8573333 36.6135,16.7563333" id="Fill-80" fill="#FEFEFE"></path>
                    <path d="M37.343,15.6948333 L37.657,15.9718333 C37.587,15.8748333 37.486,15.7818333 37.343,15.6948333" id="Fill-82" fill="#FEFEFE"></path>
                    <path d="M51.4117083,15.0548333 L51.5987083,14.6118333 C51.3027083,14.6168333 51.4337083,14.8378333 51.4117083,15.0548333" id="Fill-84" fill="#FEFEFE"></path>
                    <path d="M18.243,18.7801469 C18.45,18.9481469 18.613,19.0181469 18.757,19.0371469 C18.507,18.7911469 18.303,18.4181469 18.243,18.7801469" id="Fill-86" fill="#FEFEFE"></path>
                    <path d="M46.5707156,18.7008333 C46.4687156,18.7758333 46.4117156,18.8598333 46.4337156,18.9658333 C46.5327156,18.8868333 46.5747156,18.7978333 46.5707156,18.7008333" id="Fill-88" fill="#FEFEFE"></path>
                    <path d="M18.7945,18.7899459 C18.7585,18.7469459 18.7225,18.7249459 18.6855,18.6889459 C18.5365,18.7629459 18.3885,18.8229459 18.2055,18.7959459 C18.3895,18.9799459 18.5995,19.0929459 18.7945,18.7899459" id="Fill-90" fill="#FEFEFE"></path>
                    <path d="M70.47304,14.8100485 C70.49104,14.8300485 70.51104,14.8380485 70.52604,14.8610485 C70.53204,14.8030485 70.50804,14.8000485 70.47304,14.8100485" id="Fill-92" fill="#FEFEFE"></path>
                    <path d="M76.6395,18.8064699 C76.5725,18.8334699 76.4635,18.8354699 76.3605,18.8424699 C76.4105,18.8714699 76.4945,18.8684699 76.6395,18.8064699" id="Fill-94" fill="#FEFEFE"></path>
                    <path d="M14.5364816,18.8186823 C14.3844816,18.8476823 14.5134816,18.8666823 14.5364816,18.8186823" id="Fill-96" fill="#FEFEFE"></path>
                    <path d="M14.5285,18.7278333 C14.5265,18.8278333 14.5035,18.8898333 14.4715,18.9388333 C14.4985,18.8988333 14.5175,18.8318333 14.5285,18.7278333" id="Fill-98" fill="#FEFEFE"></path>
                    <path d="M19.5035791,16.8609653 C19.5035791,16.8609653 19.5115791,16.8619653 19.5165791,16.8619653 C19.4705791,16.7779653 19.4785791,16.7939653 19.5035791,16.8609653" id="Fill-100" fill="#FEFEFE"></path>
                    <path d="M14.402,18.7698333 C14.46,18.8228333 14.526,18.8668333 14.598,18.8968333 C14.566,18.8638333 14.506,18.8218333 14.402,18.7698333" id="Fill-102" fill="#FEFEFE"></path>
                    <path d="M14.5694758,18.8337696 C14.5164758,18.8177696 14.4754758,18.8047696 14.4364758,18.7927696 C14.4184758,18.8657696 14.4354758,18.9107696 14.5694758,18.8337696" id="Fill-104" fill="#FEFEFE"></path>
                    <path d="M15.6235,18.8423333 C15.5365,18.8503333 15.4555,18.8303333 15.3765,18.7993333 C15.4065,18.8283333 15.4205,18.8533333 15.4125,18.8673333 C15.4565,18.8623333 15.5195,18.8543333 15.6235,18.8423333" id="Fill-106" fill="#FEFEFE"></path>
                    <path d="M59.4390229,15.8575402 C59.4490229,15.8715402 59.4600229,15.8795402 59.4720229,15.8985402 C59.6260229,15.7165402 59.5570229,15.7465402 59.4390229,15.8575402" id="Fill-108" fill="#FEFEFE"></path>
                    <path d="M29.506,15.8153333 C29.499,15.8193333 29.495,15.8313333 29.488,15.8363333 L29.512,15.8513333 L29.506,15.8153333 Z" id="Fill-110" fill="#FEFEFE"></path>
                    <path d="M30.769,15.3333333 C30.541,15.6693532 30.409,15.6290556 30.231,15.5589998 L30.425,16.3333333 L30.769,15.3333333 Z" id="Fill-112" fill="#FEFEFE"></path>
                    <path d="M61.8078673,17.8826574 L61.7226766,17.7820977 C61.9133013,17.6686662 61.8601626,17.7700305 61.8078673,17.8826574 M43.4058378,14.7162313 C43.4986198,14.6341745 43.6850271,14.3807639 43.7550353,14.6100402 C43.6512882,15.0549166 43.566941,14.8425344 43.4058378,14.7162313 M36.0448574,15.7097619 C36.1131786,15.5810454 36.2219865,15.6437947 36.3459769,15.7894052 C36.2574123,15.8223888 36.1570392,15.8087127 36.0448574,15.7097619 M15.5628259,18.5777266 L15.5729476,18.5592236 C15.784659,18.708052 15.7087465,18.6493251 15.5628259,18.5777266 M70.2240313,17.3597466 L70.6811931,18.063665 C70.852418,17.9928709 70.8389224,17.2455107 71.1510071,17.733829 C71.106303,17.6155707 71.0405122,17.436172 71.1560679,17.3903168 C72.8531336,18.0660784 74.6261118,16.7974164 76.3476383,18.0789501 C76.11484,17.8070365 76.2700389,17.7788797 76.4480115,17.7668126 C76.3332993,17.7024543 76.4513853,17.4168646 76.4294551,17.2253988 L77.1497802,17.752332 C77.2830488,17.2189629 77.9240875,17.7104991 78,17.2004599 L77.7722625,17.2945839 C78.0775994,16.6912252 77.3496831,15.9631725 77.3952305,15.1916779 C77.0536244,15.8770933 76.4994632,14.1876892 75.9393978,15.169957 C75.8154074,15.0138882 76.0448318,14.9205688 75.979041,14.7427791 C75.8364942,15.0742241 75.6661129,15.1442137 75.3489674,14.9986032 L75.3852367,14.9165464 C74.4936867,15.0042345 74.1124374,14.6816388 73.1120795,14.4732789 L73.1854616,14.8529926 C72.9703762,14.8039194 72.9265157,14.6848567 72.825299,14.5907327 C72.5781617,15.169957 73.429225,14.618085 73.204018,15.2568407 C72.9197679,14.4837371 71.6874553,15.2576451 71.4951436,14.3783505 C71.1645026,14.3759371 71.5921429,14.8184 71.2615019,14.8159866 L71.1737808,14.5786656 L71.0902771,14.8859762 C70.8735048,14.836903 70.7638534,14.5400506 70.7554187,14.3381266 C70.8085574,14.3614564 70.9055567,14.2802041 70.9620693,14.2625056 C70.6811931,13.9841562 70.1692056,14.3646744 70.0722063,14.2737683 L70.3901953,14.4185744 C69.4868367,14.6486552 68.3852622,14.3445624 67.5131122,14.8360986 L67.5797464,15.0163017 C66.914247,15.353378 67.0458286,14.8224224 66.3153819,14.9825136 L66.3415295,14.9390718 C66.1947654,15.1192749 65.9999233,15.2117899 65.799177,15.1924824 C65.9838974,14.9809046 65.4516665,14.7862209 65.693743,14.5513133 C64.9717309,14.914133 65.3369543,14.8344896 64.8603926,15.5070334 L64.7498978,15.2093764 C64.5887946,15.4804856 64.5744556,15.6228782 64.2100757,15.703326 C64.5086648,15.4450885 63.9755904,15.2512093 64.3112923,14.9093061 C63.5437327,14.2633101 63.174292,15.577023 62.8208772,14.6261298 C62.4708363,15.4547423 63.4846897,15.079051 63.2881607,15.2576451 C63.4534812,15.5255364 62.9988498,15.8770933 62.7584603,15.795841 C62.5138534,15.7797515 62.3400981,14.7427791 61.7243636,14.7636955 C61.785937,14.7669134 61.7901544,14.7049686 61.8508844,14.7073821 C61.619773,14.4990222 61.4004703,14.9969942 61.1170637,14.6566999 C60.9593344,15.1570854 60.7493099,14.6309566 60.7054493,15.2681033 L61.2697321,15.116057 C60.9492128,15.2849974 60.6514671,16.0331621 60.1234536,15.6759738 C60.1639403,15.5472573 60.3199826,15.3767079 60.427947,15.2817795 C60.2735917,15.0951405 60.1318884,15.408887 59.9707852,15.2174212 C60.0146457,14.57947 60.6573714,15.0726152 60.9989776,14.5842969 C60.8328136,14.3164057 60.3503476,15.0508942 60.5224159,14.3598475 C60.2769655,15.2391421 59.9142726,14.2536564 59.5001278,14.9270046 L59.5262754,14.5448775 C59.4604846,14.6052133 59.3238421,14.7870254 59.2023822,14.7781761 L59.4208414,14.2810086 C59.0842961,14.7065776 58.7679941,13.9173845 58.4457878,14.1498787 C59.1230958,14.1321802 58.5984562,14.6084312 58.8869236,14.8851717 C58.0518863,15.4024512 58.4027707,13.8900322 57.4673602,14.0806936 C57.5930375,14.025989 57.9430784,14.3067519 57.745706,14.4845416 C57.5677334,14.4073117 57.3307177,14.2625056 57.2210664,14.0637995 C56.6002709,14.1474652 57.3180656,14.4555804 57.0540589,14.692097 C56.8415039,14.2287175 56.750409,14.8835628 56.4796544,15.0348047 L56.4762805,14.6470462 C55.767764,14.4040938 56.2915602,15.4571557 55.6538953,15.1619122 L55.9212759,14.6213029 L55.5897914,14.7628911 L55.6564257,14.3212325 C55.2962632,14.6510686 55.1832379,14.5674029 54.8298231,14.4467311 C54.9124834,14.7194492 54.7868061,15.151454 54.4738779,15.1659346 C54.2587926,14.9366583 54.5911205,14.7966791 54.1474542,14.855406 C54.2469839,14.6116492 54.3549484,14.3059474 54.5506339,14.6623313 C54.5691903,14.5352237 54.6476332,14.4177699 54.6678765,14.2922713 C54.4367652,14.029207 54.0892547,14.2367623 53.9281515,14.2415892 C53.9905684,14.2552653 54.0639505,14.2753773 54.1027502,14.3308863 L53.4617115,14.873909 C53.3596514,14.729103 53.4397812,14.6108447 53.5190676,14.4958043 C53.3891729,14.5384416 53.2989214,14.7178403 53.1082967,14.7524328 C53.1555311,14.4370774 53.1428791,14.1112637 53.4127901,13.9608263 L52.8012729,14.3156012 C52.7599427,14.1788399 52.4849709,13.9415188 52.5642572,13.8248695 C52.2234945,13.642253 51.7334373,14.4435132 51.2821797,14.2021698 C51.2585625,14.2633101 51.2113281,14.3228415 51.1160157,14.3686967 C50.6917493,14.3003161 50.3147173,13.91658 49.8153819,14.3534117 L49.5269144,13.7902769 C49.1346999,13.9214069 49.9165985,14.4990222 49.2637512,14.7178403 C48.8015285,14.9020658 49.0874655,14.2367623 48.9246754,14.0806936 C48.695251,14.3678923 48.2979757,14.9511389 47.8703353,14.4941953 C48.0103517,14.3863953 48.1208465,14.4692565 48.2524282,14.4266192 L47.9260045,14.1152861 C48.3140016,13.5963977 48.5990952,13.7717739 48.2920714,13.3333333 C48.2524282,14.4266192 47.0302372,13.455614 46.9931244,14.5472909 L46.7771956,14.3188191 C46.838769,14.3292773 46.8480472,14.2649191 46.9087772,14.2753773 C46.4895716,13.7556844 46.6051273,15.0677883 46.0686791,14.9165464 C45.8805848,14.8344896 45.7498466,14.6768119 45.875524,14.5464864 L45.4613792,14.8192045 C45.3407627,14.7990926 45.3685973,14.6092357 45.4892138,14.6293477 L44.8549228,14.7218627 L44.8591402,14.6896835 C44.7705756,14.8618419 44.5672988,15.1281241 44.4677691,15.2415556 C44.3058225,15.0862913 44.547899,15.1249062 44.5048819,14.9889494 L44.1556845,15.2568407 C44.0106073,14.9744688 44.2999182,14.6977283 44.5428382,14.7363433 C44.2071363,13.6478843 44.2535272,15.0138882 43.5407934,14.3823729 L43.8705909,14.2407847 C43.6529752,13.6229455 43.3957162,13.8498083 43.0169972,13.4660722 C43.1072487,13.6671918 43.7752786,14.4338595 43.3965597,14.708991 C43.2885952,14.6277387 43.1460485,14.5891238 42.9427717,14.8111597 C42.9368674,14.4225968 42.737808,14.5191342 42.4856099,14.544073 L42.4982619,14.0284025 C42.2283509,14.1796444 42.2511246,14.4410998 42.0933954,14.6743985 C41.7905889,14.6261298 41.7239546,14.2279131 41.6505725,13.8932501 C41.1638892,13.8152158 41.9904918,14.5295924 41.4169308,14.6309566 C41.0120642,14.4370774 40.7303445,14.6494596 40.250409,14.9615972 C39.9661589,14.7870254 40.2967999,14.6470462 40.1947398,14.4998267 L39.9476025,14.912524 C39.8868725,14.9028703 39.9045854,14.7773717 39.9147071,14.7130134 C39.7046825,14.873909 39.9012115,15.2278794 39.571414,15.3702721 C39.4870668,15.9382337 38.8831408,14.5472909 38.4791177,15.1940914 C38.3762141,15.0492853 38.5246652,14.8787359 38.4917698,14.6800298 C37.9325478,15.1064032 38.0118342,14.9905584 37.5546723,15.5625424 L37.157397,15.2278794 C37.4509253,15.6116155 37.0848584,16.0725815 36.766026,16.4506863 C36.8706165,16.6357163 36.9591811,16.7990253 37.0182241,16.8762552 L36.5045496,17.1562136 C36.4421327,17.0725479 36.4918976,16.8947582 36.5745578,16.6791581 C36.5399755,16.7225999 36.5070801,16.7644328 36.4817759,16.8038522 C36.2945251,16.6147998 36.387307,16.3171429 36.5172017,16.0291397 C36.5779317,16.1313084 36.6428791,16.2391085 36.7061395,16.3444951 C36.8309733,16.0307487 36.946529,15.6840186 36.9170075,15.3831437 C36.8841121,15.4426751 36.8200082,15.4941617 36.7491565,15.5231229 C36.7820519,15.4378482 36.8022953,15.3622273 36.7862693,15.3107407 C36.7677129,15.2568407 36.7154176,15.3710766 36.6319139,15.503011 L36.5096105,14.931027 L36.4834628,15.1586943 L35.8036244,14.8047239 C35.3253757,15.3863616 34.9129179,16.239913 34.1478888,16.4828654 C34.3342961,16.0605144 34.1816276,15.795841 34.1875319,15.2970646 C34.4026173,15.8223888 34.7796493,15.0677883 35.1786116,15.171566 C34.970274,15.1184704 35.0132911,14.8803449 35.0655863,14.7966791 L34.3604437,15.282584 C34.3730958,14.8747135 34.2069318,14.9784912 34.019681,14.8111597 C34.1681321,15.6156379 33.4967284,15.3517691 33.2107913,15.6019618 C33.1888611,15.3308526 33.2554953,15.0541122 33.6080667,15.1168615 C33.2141652,14.5135028 33.1163225,16.0669502 32.7291688,15.5544976 C32.8152029,15.5472573 32.8624374,15.5882857 32.8953328,15.4507199 C32.6962734,15.6928678 32.2028422,15.5062289 32.3158675,15.2697123 L32.4019016,15.2632765 C31.8300276,15.1723704 30.6635058,15.2713213 30.5859063,15.9567367 C30.580002,15.8682441 30.6516972,15.1313421 30.6845926,14.9929718 L29.6926695,17.3026287 C29.7744862,16.7145551 29.4143237,15.317981 29.8832941,14.9825136 C29.7466517,14.8996523 29.5771138,14.803115 29.2928637,15.0130838 C29.3864891,15.095945 29.5340967,15.8601993 29.4084194,15.9157083 C29.0524742,15.264081 29.162969,15.5673692 28.726894,15.0130838 C28.8677538,15.1377779 28.7235201,16.0605144 28.5042174,16.0331621 C28.5371128,15.8947918 28.4746958,15.1232973 28.5539822,15.0267599 L28.017534,15.9358202 C28.153333,15.7717067 28.0327165,15.1691525 27.9078826,14.9149374 C27.9660822,15.0911182 27.4346948,14.9012613 27.2896176,14.9929718 L27.5241029,15.2005272 C26.9049944,15.0685928 26.9294551,16.477234 26.3170944,16.4354012 C26.3887895,16.2471533 26.4857888,15.2833884 26.1728606,15.171566 C26.0353747,15.6365544 25.5689347,17.4056019 25.031643,17.7668126 L24.924522,17.5029437 L24.5129077,17.807841 C24.7625754,17.1087494 25.4702484,15.6357499 25.8599325,15.0621569 C25.6262908,14.8537971 25.7916113,14.7500194 25.4457878,14.7765672 C25.3201104,14.5295924 25.6288212,14.3984624 25.7317248,14.3831774 L24.9228351,14.229522 C24.9658522,14.7701314 24.3138483,14.7773717 24.350961,15.227075 L25.2180503,14.6599178 C25.2610674,15.1989182 24.7322104,16.1988846 24.1603364,16.1079786 C24.0118853,15.8939874 24.2556487,15.1442137 24.2421532,14.9640106 C24.170458,15.1506495 23.7048615,15.3236123 23.6508793,15.1924824 L23.8887384,14.9012613 C23.568219,14.7001418 23.3792813,15.6220737 22.9904407,15.1096211 C22.8580155,15.0758331 22.5881045,14.416161 22.5687046,14.7363433 C22.7930682,15.3517691 22.860546,17.2607958 22.7239035,17.7249797 C22.6766691,17.6831468 22.0238217,17.1409285 21.8694663,16.8368358 C21.6459462,16.3549534 22.179864,15.6808007 21.9883959,15.2672989 C21.9824916,15.4145184 21.8660924,15.5979394 21.8163276,15.6566663 C21.6763112,15.5319722 21.8669359,15.1989182 21.5675033,15.2681033 C21.5244862,15.8167575 20.9542992,15.227075 21.4317043,15.7330917 C21.139863,15.8915739 21.1170893,15.6228782 20.7721092,15.649426 C20.8868214,16.0025919 20.4794244,16.8577522 20.1867396,17.0162344 C20.2027656,16.8770597 20.1336009,16.6960521 20.1007054,16.6131909 C19.4967795,16.5689446 19.1686688,16.3227742 18.6069165,16.3219698 C18.5529343,16.1900353 18.2796493,16.0315531 18.3909876,15.7942321 C18.3125447,15.8915739 18.2408496,16.0782129 18.0670944,16.0926935 C17.7238012,15.6212693 18.4534046,16.0162681 18.1877109,15.4491109 C18.1716849,15.7676843 17.746575,15.8915739 17.5028116,16.0926935 C17.5854718,16.5842296 18.0738421,16.182795 18.318449,15.9816755 C18.3302576,16.6606551 17.9102086,17.3750317 17.3282129,17.6936051 C16.8634598,17.8657634 17.1190318,17.2567734 17.038902,17.3533108 C16.1600041,17.2422928 16.3101421,18.544743 15.5746345,18.0612516 C15.2785758,17.6316602 15.5476434,17.2004599 15.4784787,16.8891269 C15.8563542,16.7225999 16.0672222,17.1594315 16.3244811,17.1401241 L16.0039618,16.9382 C16.1228913,16.793394 16.3750895,16.6815715 16.5159493,16.8062656 C16.267125,16.4193116 15.032282,16.7435163 14.3490696,16.3903504 C14.231827,16.535961 14.0268633,16.6880073 14.12808,16.8609701 L14.3406349,16.7990253 C14.5430682,17.1457554 13.94589,17.2841257 14.2191749,17.4450213 C13.9357683,17.6928006 13.6203098,18.0805591 13.2129128,17.8866798 L13.1285656,17.3943392 C13.1403742,17.5383408 13.3976332,17.6855603 13.5089715,17.5343184 C13.3444944,17.7539409 12.8780544,16.8722328 12.7034557,17.5190333 L12.9927666,17.8585231 C12.7085165,18.1087158 12.361006,18.635649 12,18.4827981 C12.1712248,18.968703 12.0826603,18.4256802 12.3458235,18.9936418 C12.1138687,18.2865055 13.2626776,19.0161672 12.8966108,18.2744383 C13.1682088,18.9333059 13.3529291,18.5511788 13.7038135,19.1119001 C13.690318,18.9493955 13.5772927,18.802176 13.8800992,18.8794059 C13.8919078,18.8319417 13.9231162,18.7716058 13.9433596,18.7362088 C13.9517943,18.7410356 13.9560117,18.7434491 13.9636029,18.7482759 L13.9467335,18.7289685 C13.9585421,18.7040296 13.960229,18.6992028 13.9408292,18.7217282 C13.8674471,18.6517386 13.808404,18.5664639 13.7830999,18.4755578 C13.9256467,18.100671 14.4047388,18.1095203 14.5633115,17.9148366 C14.7429711,17.9904575 14.4916164,18.1014755 14.5919896,18.2744383 L14.8290052,17.9832172 C14.8585267,18.3444279 15.3123147,18.58014 14.8956395,18.7949357 L15.2743585,18.8078073 C15.500409,19.0089269 15.8082762,19.0869613 15.9946836,18.9333059 C16.1734996,19.0097314 16.4391933,18.5302624 16.2873684,18.8142432 L16.8769553,18.5857714 L16.8845466,18.6758729 C17.4707596,18.7169013 18.0805899,18.0676874 18.7595849,18.7144879 C18.9552704,18.6211684 19.1577037,18.5085414 19.4883448,18.6082967 L19.5575095,18.9204343 C19.8088641,18.8094163 20.3216951,19.2269405 20.4254422,18.9003223 C20.7105357,19.7393931 21.6560679,19.0740896 22.1039515,19.2197002 L22.1140732,18.8110252 C22.4219405,18.8319417 22.7129383,18.7136834 23.0916573,18.5471564 L23.0629792,18.1867502 C23.3868725,17.8874843 23.9089817,18.4361384 24.427717,18.39511 C24.3948216,18.5334803 24.261553,18.4980832 24.1679276,18.4160265 C24.7980012,19.2253315 25.467718,17.8126678 26.0370617,18.4015458 C26.1753911,18.2688069 26.2774512,18.3130532 26.3761374,18.4023503 C26.3643288,18.4039593 26.3525202,18.4103951 26.3423985,18.4216578 C26.3567376,18.4264847 26.3778244,18.4264847 26.3997546,18.4256802 C26.4621716,18.487625 26.5271189,18.5592236 26.5962836,18.6163415 C26.5372406,18.5294579 26.4798845,18.4570548 26.4309631,18.4240712 C26.5389275,18.4160265 26.7017176,18.3701712 26.8611338,18.2784607 L26.9336724,18.6654147 C26.947168,18.6597833 26.9581331,18.6605878 26.9707852,18.6533475 C27.1310449,18.7957402 27.0956191,18.469122 27.007898,18.1787054 C27.0880278,18.1143471 27.1614099,18.0371172 27.217079,17.9429933 C27.352878,18.5672684 27.6354412,17.7290021 27.8184746,18.39511 C27.9230651,18.0684919 28.6231469,18.1433084 28.6999029,17.4586974 C28.7066506,17.54719 28.7538851,17.5898274 28.6678509,17.5962632 C28.848354,17.6726886 29.0280135,17.749114 29.1857428,17.5552348 L29.268403,18.046771 L29.6513393,17.3814675 C29.8917289,17.6799289 29.992102,17.8528917 29.7609907,18.2342144 C30.3235865,17.6469453 30.220683,18.0105695 30.6980881,17.4297362 L30.6778448,17.7483096 C30.8507566,17.733829 31.1223546,17.3058466 31.230319,17.5681065 C31.6242204,18.1698561 33.1466875,17.6356826 34.1462018,18.1907726 C33.9437685,17.25436 34.6126419,18.6066878 34.6446938,17.880244 C34.7045803,18.100671 34.8437532,18.2253651 34.6851805,18.4192444 C35.1895767,18.1972084 35.4510531,18.76517 35.7943462,18.1497442 C35.8542327,18.3717802 35.6889122,18.4755578 35.7428944,18.6066878 C35.7825376,18.5584191 35.9014671,18.4128085 35.9554493,18.5439385 C36.0085881,18.6758729 35.8837542,18.7313819 35.8036244,18.8287238 C36.3215162,18.7868909 36.3670637,18.1030844 36.3982722,17.4611109 C36.6639659,17.7627902 36.794704,17.7185439 36.9794244,17.2961928 C37.0738933,17.5053572 37.2274052,17.7241752 36.9077293,17.8022096 C37.0882323,17.8311708 38.0160515,18.100671 38.0303906,17.5866095 C38.0877467,17.7161304 38.2825887,17.6220065 38.3306666,17.5624751 C38.7363766,17.5898274 38.7726459,17.6356826 39.1716082,17.584196 L39.0602699,17.5013348 C39.2120949,16.8794731 39.3909109,17.3605511 39.7122738,17.2825167 L39.7029956,17.3460705 C40.445251,17.787729 40.0201411,17.1296659 40.7522748,17.6340737 L40.7092577,17.2487286 C40.7708312,16.4185071 41.3578877,17.7330245 41.7779368,17.4128422 L41.6235814,17.1932196 C41.8521624,16.9076299 42.2781157,18.3162712 42.5100705,18.4184399 C42.5615223,18.4900384 42.4307842,18.5350892 42.360776,18.5881848 C42.9714497,19.0732851 42.4350015,18.0829725 42.8862591,17.9614963 C42.9722932,18.2334099 42.784199,18.655761 43.0895358,18.7040296 C43.2422043,18.9228477 43.9642163,17.8118633 44.3834219,18.3315562 C44.2897965,18.1215874 44.1978581,17.9132276 44.4061957,17.7531364 C44.7275585,17.6759065 45.2817197,18.5407206 45.5676567,17.8762216 C45.6089868,17.9325351 45.6241693,17.9872396 45.6266997,18.0395307 C45.8713066,17.8665679 46.4246243,17.749114 46.5705449,17.3895123 C46.8058736,18.7201192 48.0946989,16.7282312 48.0972293,17.9582784 L48.8538237,17.8858753 L48.8344239,18.0113739 C49.3177334,18.0886038 49.4881147,17.7933603 49.6559656,17.4965079 C49.7681474,17.5793692 49.6871741,17.695214 49.6778959,17.7595723 C50.3864124,18.0009157 50.4555771,17.9486246 51.0451641,17.3315899 L51.1084245,17.7298066 C51.2678407,17.4965079 52.133243,18.3468413 52.8240466,17.8762216 C52.8172988,17.9212724 52.8029598,17.9993068 52.7489776,18.0556202 C53.5266588,17.5809781 54.6206421,19.1464926 54.8998313,17.6919961 L55.4118188,17.3299809 C54.7463194,17.2229853 55.5088181,16.69927 55.2338462,16.46034 C55.4953226,16.3726519 55.9128412,16.8931493 55.5914784,16.9695747 L55.5400266,16.8971717 C55.4261579,17.6557946 56.3691596,17.1594315 56.3531336,17.6751021 C57.6630457,17.6268334 58.9409058,18.0355083 60.1673142,18.0580337 L60.0247674,17.4707646 L60.4524077,17.5005303 C60.5645895,17.6372916 60.6042327,17.9598873 60.2988958,17.9381664 C60.459999,18.2704159 60.8100399,17.6549901 60.8184746,17.5270781 C61.4173397,17.7603767 60.5873633,18.2149069 60.7703967,18.2277786 L61.0183775,18.1819233 L60.9627083,18.1135427 C61.1634547,17.8713947 61.1811676,17.6155707 61.5480779,17.6421184 C61.7808762,17.7579633 61.6678509,18.0041336 61.7597894,18.0258545 C61.7589459,18.0676874 61.7901544,18.0869949 61.8998057,18.0419441 L62.4387844,18.0877994 L62.2220121,17.6252244 C62.4607147,17.3943392 62.7297822,17.6453364 62.4801145,17.1208166 C62.8461814,17.9293172 64.4917953,17.3959481 64.7161589,17.6461408 C65.0510173,17.3050421 65.3808148,17.30826 65.7907423,17.3460705 C65.6886821,17.2495331 65.6262652,16.7274268 65.97968,16.7885671 C65.8523157,17.8673723 66.6274665,17.2511421 66.9134035,18.0242456 C66.6578315,17.5125975 67.9162918,17.8898977 67.516486,17.1626495 C67.8100143,17.2471197 67.534199,17.565693 67.757719,17.8174947 C68.4586443,17.3951436 69.3029598,18.0765367 70.1692056,17.9285127 C70.1827012,17.7869245 70.037624,17.5721288 70.2240313,17.3597466" id="Fill-114" fill="#FEFEFE"></path>
                    <path d="M36.4611179,15.7023333 C36.4931179,15.7843333 36.5031179,15.8733333 36.5111179,15.9643333 C36.5541179,15.8823333 36.5541179,15.7893333 36.4611179,15.7023333" id="Fill-116" fill="#FEFEFE"></path>
                    <path d="M51.483,14.8718333 C51.489,14.8758333 51.495,14.8738333 51.501,14.8768333 C51.509,14.8478333 51.514,14.8188333 51.517,14.7898333 L51.483,14.8718333 Z" id="Fill-118" fill="#FEFEFE"></path>
                    <path d="M22.3958322,15.7098333 C22.5028322,15.7778333 22.5638322,15.8658333 22.6038322,15.9568333 C22.6088322,15.8388333 22.5588322,15.7398333 22.3958322,15.7098333" id="Fill-120" fill="#FEFEFE"></path>
                    <path d="M13.336,18.9753333 L13.664,18.8473333 C13.505,18.8723333 13.446,18.7673333 13.364,18.6913333 C13.373,18.8043333 13.439,18.9663333 13.336,18.9753333" id="Fill-122" fill="#FEFEFE"></path>
                    <path d="M11.5211628,16.6873333 C11.4731628,16.7463333 11.4181628,16.6943333 11.3721628,16.7543333 L11.3881628,16.9793333 C11.5941628,16.9623333 11.7351628,16.7803333 11.5211628,16.6873333" id="Fill-124" fill="#FEFEFE"></path>
                    <path d="M13.734,18.8766965 C13.701,18.4706965 13.496,18.6106965 13.266,18.6876965 C13.28,18.6866965 13.293,18.6826965 13.307,18.6876965 C13.248,19.2556965 13.491,19.0656965 13.734,18.8766965" id="Fill-126" fill="#FEFEFE"></path>
                    <path d="M11.3945203,18.7833263 C11.3715203,19.0113263 11.4825203,18.8303263 11.6085203,18.7713263 C11.5375203,18.7913263 11.4645203,18.8023263 11.3945203,18.7833263" id="Fill-128" fill="#FEFEFE"></path>
                    <path d="M15.4601821,18.6100666 C15.3491821,18.5060666 15.3991821,19.1300666 15.3341821,18.9640666 C15.2201821,19.4820666 16.0561821,18.3340666 15.4601821,18.6100666" id="Fill-130" fill="#FEFEFE"></path>
                    <polygon id="Fill-132" fill="#FEFEFE" points="13.607 16.6788333 13.393 16.5828333 13.484 17.0838333"></polygon>
                    <path d="M14.7343255,16.8603069 L14.3623255,16.7253069 C14.3693255,16.8093069 14.3233255,16.8583069 14.2653255,16.8963069 C14.4943255,16.9113069 14.7453255,17.0083069 14.7343255,16.8603069" id="Fill-134" fill="#FEFEFE"></path>
                    <path d="M14.352,16.8774195 C14.415,16.8714195 14.554,16.8534195 14.648,16.7914195 C14.53,16.7834195 14.416,16.7944195 14.352,16.8774195" id="Fill-136" fill="#FEFEFE"></path>
                    <polygon id="Fill-138" fill="#FEFEFE" points="13.6865 16.9023333 13.3135 16.7643333 13.4245 16.8683333"></polygon>
                    <path d="M18.303308,17.0211129 L18.704308,16.8741129 C18.743308,16.7021129 18.632308,16.5981129 18.483308,16.6671129 C18.388308,16.7881129 18.239308,16.8551129 18.303308,17.0211129" id="Fill-140" fill="#FEFEFE"></path>
                    <path d="M17.5935,15.5228333 L17.4065,15.7648333 C17.5175,15.8678333 17.5265,15.9798333 17.5905,16.1438333 L17.5935,15.5228333 Z" id="Fill-142" fill="#FEFEFE"></path>
                    <path d="M18.436006,16.0637622 C18.473006,15.8907622 19.014006,15.5637622 18.503006,15.6067622 C18.465006,15.7787622 18.063006,15.9247622 18.436006,16.0637622" id="Fill-144" fill="#FEFEFE"></path>
                    <polygon id="Fill-146" fill="#FEFEFE" points="22.5515 16.3333333 22.4485 16.3420967 22.4775 17.3333333"></polygon>
                    <path d="M26.4541864,16.246068 C26.7401864,15.990068 26.8931864,16.132068 26.7531864,15.463068 C26.2711864,15.223068 26.6461864,16.092068 26.2111864,15.791068 C26.1011864,16.033068 26.5661864,16.037068 26.4541864,16.246068" id="Fill-148" fill="#FEFEFE"></path>
                    <path d="M26.573,15.7553333 C26.527,15.7953333 26.479,15.8443333 26.427,15.9113333 C26.511,15.8473333 26.55,15.7973333 26.573,15.7553333" id="Fill-150" fill="#FEFEFE"></path>
                    <polygon id="Fill-152" fill="#FEFEFE" points="77.654 19.0033333 77.456 18.6633333 77.346 18.7943333"></polygon>
                    <path d="M77.3715,18.5093333 L77.4425,19.1573333 L77.6285,18.5693333 C77.5585,18.5983333 77.4245,18.6553333 77.3715,18.5093333" id="Fill-154" fill="#FEFEFE"></path>
                    <path d="M41.633,15.0143333 L41.39,14.6523333 L41.367,14.8083333 C41.416,14.9763333 41.488,14.9893333 41.633,15.0143333" id="Fill-156" fill="#FEFEFE"></path>
                    <polygon id="Fill-158" fill="#FEFEFE" points="46.5035 14.5528333 46.4315 14.5408333 46.5685 15.1258333"></polygon>
                    <path d="M48.7239277,14.6732204 C48.5809277,14.6502204 48.4139277,14.7822204 48.2699277,14.7582204 C48.5809277,14.6502204 48.7669277,15.4042204 48.7239277,14.6732204" id="Fill-160" fill="#FEFEFE"></path>
                    <path d="M68.4845,29.9163333 L68.6145,30.0313333 C68.5255,29.9023333 68.4595,29.7733333 68.3855,29.6353333 C68.4175,29.7323333 68.4455,29.8243333 68.4845,29.9163333" id="Fill-165" fill="#FEFEFE"></path>
                    <path d="M69.4845,28.2799182 C69.5725,28.0419182 69.5785,27.4999182 69.8775,27.5199182 C69.3045,27.0639182 69.5835,27.9269182 69.2685,27.9069182 L69.1225,27.8259182 L69.4845,28.2799182 Z" id="Fill-167" fill="#FEFEFE"></path>
                    <path d="M69.4155,29.9082535 C69.4435,29.9272535 69.4575,29.9372535 69.4775,29.9502535 C69.4925,29.9322535 69.5205,29.9132535 69.5845,29.8962535 C69.3965,29.6892535 69.5595,29.6212535 69.4155,29.9082535" id="Fill-169" fill="#FEFEFE"></path>
                    <path d="M69.4720325,29.789336 C69.3900325,29.875336 69.6680325,29.934336 69.4720325,29.789336" id="Fill-171" fill="#FEFEFE"></path>
                    <path d="M69.3672956,29.5803333 L69.3462956,29.8823333 C69.4662956,30.0013333 69.6152956,29.9553333 69.6292956,30.0863333 C69.7062956,29.8813333 69.5962956,29.7563333 69.3672956,29.5803333" id="Fill-173" fill="#FEFEFE"></path>
                    <path d="M69.4716187,27.8888375 C69.5216187,27.9388375 69.5546187,27.9468375 69.5006187,27.7478375 L69.4716187,27.8888375 Z" id="Fill-175" fill="#FEFEFE"></path>
                    <path d="M69.5216577,27.8652294 C69.4266577,27.6762294 69.4966577,27.8712294 69.5026577,28.0422294 L69.5606577,27.7482294 C69.4786577,27.6632294 69.3556577,27.4672294 69.5216577,27.8652294" id="Fill-177" fill="#FEFEFE"></path>
                    <path d="M69.385992,27.5919438 C69.141992,27.8709438 69.478992,28.2509438 69.698992,27.9839438 C69.533992,27.9069438 69.365992,27.9019438 69.385992,27.5919438" id="Fill-179" fill="#FEFEFE"></path>
                    <path d="M68.6107384,27.7593333 L68.3537384,27.6993333 L68.4087384,27.9673333 C68.3807384,27.8323333 68.7617384,27.9253333 68.6107384,27.7593333" id="Fill-181" fill="#FEFEFE"></path>
                    <path d="M70.3045,27.8048333 C70.4145,27.8628333 70.5875,27.8868333 70.6955,28.0838333 C70.6395,27.9428333 70.4565,27.7498333 70.3565,27.5828333 L70.3045,27.8048333 Z" id="Fill-183" fill="#FEFEFE"></path>
                    <path d="M70.4883648,27.9998333 L70.5753648,27.6668333 C70.3803648,27.7288333 70.4013648,27.8558333 70.4883648,27.9998333" id="Fill-185" fill="#FEFEFE"></path>
                    <path d="M69.5415,27.4853333 L69.4815,27.5273333 L69.4585,28.1813333 C69.4805,27.9533333 69.5035,27.7183333 69.5415,27.4853333" id="Fill-187" fill="#FEFEFE"></path>
                    <polygon id="Fill-189" fill="#FEFEFE" points="72.4875 27.7493333 72.5125 28.1233333 72.5085 27.5433333"></polygon>
                    <path d="M72.2455,27.5623333 C72.2655,27.8713333 72.5765,27.9563333 72.5455,28.1653333 C72.6835,28.0483333 72.7215,27.7603333 72.7545,27.5013333 C72.6735,27.6723333 72.5205,27.7033333 72.2455,27.5623333" id="Fill-191" fill="#FEFEFE"></path>
                    <path d="M72.5375,27.6388333 C72.5005,27.7308333 72.4815,27.8748333 72.4625,28.0278333 C72.5045,27.9358333 72.5335,27.8188333 72.5375,27.6388333" id="Fill-193" fill="#FEFEFE"></path>
                    <path d="M72.3275,27.6908333 C72.3825,27.7668333 72.5145,27.9698333 72.6725,28.0088333 L72.4125,27.6578333 C72.3865,27.6678333 72.3565,27.6788333 72.3275,27.6908333" id="Fill-195" fill="#FEFEFE"></path>
                    <path d="M72.401,27.8523333 L72.41,27.8633333 C72.505,27.8333333 72.571,27.8113333 72.599,27.8033333 C72.575,27.8093333 72.515,27.8243333 72.401,27.8523333" id="Fill-197" fill="#FEFEFE"></path>
                    <path d="M70.492391,27.8516507 L70.514391,27.8436507 C70.488391,27.8096507 70.477391,27.7986507 70.492391,27.8516507" id="Fill-199" fill="#FEFEFE"></path>
                    <path d="M69.3527219,27.4183333 C69.3997219,27.7233333 69.6327219,27.8363333 69.6207219,28.2483333 C69.6237219,27.9763333 69.7677219,27.6133333 69.3527219,27.4183333" id="Fill-201" fill="#FEFEFE"></path>
                    <path d="M70.6335,27.6418333 L70.3665,27.6608333 C70.4205,27.7598333 70.5315,27.8898333 70.5235,28.0248333 L70.6335,27.6418333 Z" id="Fill-203" fill="#FEFEFE"></path>
                    <polygon id="Fill-205" fill="#FEFEFE" points="70.504 27.7458333 70.45 27.9208333 70.55 27.9138333"></polygon>
                    <path d="M72.476,28.0107824 C72.508,27.7947824 72.619,27.7297824 72.739,27.6457824 C72.564,27.6297824 72.399,27.6507824 72.261,27.7117824 C72.295,27.8427824 72.33,28.0897824 72.476,28.0107824" id="Fill-207" fill="#FEFEFE"></path>
                    <path d="M72.5026191,27.8591478 L72.5146191,27.8271478 C72.4866191,27.7991478 72.4716191,27.7941478 72.5026191,27.8591478" id="Fill-209" fill="#FEFEFE"></path>
                    <path d="M73.474,26.7983333 L73.498,26.8683333 L73.526,26.8603333 C73.51,26.8413333 73.491,26.8183333 73.474,26.7983333" id="Fill-211" fill="#FEFEFE"></path>
                    <path d="M72.5565,27.7197407 C72.4165,27.6897407 72.3955,27.8127407 72.3875,27.9597407 C72.4505,27.8867407 72.5235,27.8247407 72.6125,27.7827407 C72.5965,27.7237407 72.5815,27.6857407 72.5565,27.7197407" id="Fill-213" fill="#FEFEFE"></path>
                    <path d="M72.6379822,27.8817224 C72.5459822,27.8237224 72.4529822,27.7807224 72.3599822,27.7457224 C72.4679822,27.8457224 72.6619822,27.9917224 72.6379822,27.8817224" id="Fill-215" fill="#FEFEFE"></path>
                    <path d="M72.4849191,27.802844 L72.4769191,27.826844 C72.5479191,27.895844 72.5259191,27.856844 72.4849191,27.802844" id="Fill-217" fill="#FEFEFE"></path>
                    <path d="M72.523,27.9828333 C72.553,27.9028333 72.553,27.7878333 72.559,27.6838333 C72.508,27.7418333 72.465,27.8098333 72.441,27.8898333 C72.465,27.9118333 72.497,27.9478333 72.523,27.9828333" id="Fill-219" fill="#FEFEFE"></path>
                    <path d="M73,27.0941117 C72.8428623,27.0323032 72.320288,27.0059774 72.3769306,26.8468778 C72.5989334,26.7224978 72.6711071,26.8526008 72.8912826,26.899911 C72.5888839,26.7492051 73.004568,26.5813303 72.6765886,26.3390563 L72.5094014,26.4748824 C72.4637218,26.4359659 72.4911296,26.3562254 72.3824122,26.3333333 C72.5094014,26.4748824 72.3878937,26.6488618 72.0124076,26.5397431 C71.9046039,26.6824367 72.5221917,27.1124253 72.9771602,27.3333333 C72.9205175,27.2719064 72.8620477,27.2158209 73,27.0941117" id="Fill-221" fill="#FEFEFE"></path>
                    <path d="M73.2581871,27.7328333 L73.2691871,27.6638333 L73.1881871,27.7518333 C73.3301871,27.7668333 73.4751871,27.8758333 73.7501871,28.0958333 C73.8401871,27.8468333 73.8161871,27.6968333 73.7751871,27.5708333 L73.2581871,27.7328333 Z" id="Fill-223" fill="#FEFEFE"></path>
                    <path d="M72.227,26.3333333 C71.944,26.4508906 72.164,26.6524173 72.063,26.8417303 C72.496,26.6104326 72.022,27.053944 72.463,27.1127226 C72.399,27.194402 72.324,27.2379135 72.252,27.2760814 C72.359,27.2852417 72.467,27.3035623 72.577,27.3333333 L72.555,27.3180662 L72.553,27.3195929 L72.551,27.3150127 C72.509,27.2844784 72.49,27.2631043 72.525,27.2776081 C72.525,27.273028 72.532,27.2684478 72.532,27.2684478 C72.51,27.2249364 72.498,27.1860051 72.488,27.1470738 C72.662,27.164631 72.554,27.2188295 72.532,27.2684478 L72.551,27.3150127 L72.555,27.3180662 L72.937,26.9966921 C72.812,26.9875318 72.691,27.0379135 72.487,27.1455471 C72.393,26.8180662 72.561,26.6111959 72.227,26.3333333" id="Fill-225" fill="#FEFEFE"></path>
                    <path d="M69.4689919,26.7938651 C69.5,26.8208651 69.5139919,26.8488651 69.5289919,26.8768651 C69.5349919,26.8148651 69.5309919,26.7768651 69.4689919,26.7938651" id="Fill-227" fill="#FEFEFE"></path>
                    <path d="M70.297231,26.4448333 C70.290231,26.5158333 70.338231,26.6838333 70.211231,26.6958333 C70.061231,26.6258333 70.119231,26.5108333 70.052231,26.3858333 C70.035231,26.5208333 69.965231,26.7748333 70.259231,26.8618333 L70.265231,26.7948333 C70.515231,26.8368333 70.973231,27.2118333 70.967231,27.2808333 C70.748231,26.9548333 70.586231,26.7278333 70.297231,26.4448333" id="Fill-229" fill="#FEFEFE"></path>
                    <path d="M72.4481531,26.7248333 C72.1861531,26.7418333 72.3451531,26.9738333 72.3861531,27.1428333 L72.6991531,26.7788333 L72.3471531,26.5238333 L72.4481531,26.7248333 Z" id="Fill-231" fill="#FEFEFE"></path>
                    <polygon id="Fill-233" fill="#FEFEFE" points="73.4355 27.7378333 73.5645 28.1768333 73.5375 27.4898333"></polygon>
                    <polygon id="Fill-235" fill="#FEFEFE" points="73.5495 28.0193333 73.5905 27.7423333 73.4095 27.6473333"></polygon>
                    <path d="M86.5930753,15.7738333 C86.4790753,15.8328333 86.4030753,15.8808333 86.4070753,15.8928333 L86.5930753,15.7738333 Z" id="Fill-237" fill="#FEFEFE"></path>
                    <path d="M84.2074237,22.6294438 C84.5224237,22.8964438 84.9374237,23.3414438 84.7424237,22.9414438 L84.5194237,22.5654438 C84.4314237,22.6874438 84.3214237,22.6824438 84.2074237,22.6294438" id="Fill-239" fill="#FEFEFE"></path>
                    <path d="M91.4705,18.7638333 C91.3775,18.7578333 91.2785,18.7518333 91.1795,18.7458333 C91.4085,18.8078333 91.6215,18.8668333 91.8205,18.9208333 C91.7115,18.8718333 91.5945,18.8198333 91.4705,18.7638333" id="Fill-241" fill="#FEFEFE"></path>
                    <path d="M88.829,16.8443333 C88.631,16.8373333 88.423,16.8303333 88.171,16.8223333 L88.829,16.8443333 Z" id="Fill-243" fill="#FEFEFE"></path>
                    <path d="M83.6715,14.6618176 L83.3285,14.9778176 C83.5325,15.0868176 83.5505,14.8428176 83.6715,14.6618176" id="Fill-245" fill="#FEFEFE"></path>
                    <path d="M79.2745315,25.8714139 C79.4885315,25.9634139 79.6335315,25.9784139 79.7445315,25.9544139 C79.4685315,25.8014139 79.1775315,25.5194139 79.2745315,25.8714139" id="Fill-247" fill="#FEFEFE"></path>
                    <path d="M88.3255,12.8856128 C88.4855,12.8916128 88.6125,12.8676128 88.6745,12.7806128 C88.5065,12.7756128 88.3955,12.8146128 88.3255,12.8856128" id="Fill-249" fill="#FEFEFE"></path>
                    <path d="M79.2885,25.9141976 C79.4925,26.0281976 79.6865,26.0691976 79.7115,25.7301976 C79.6685,25.7021976 79.6345,25.6921976 79.5935,25.6701976 C79.5155,25.7831976 79.4305,25.8831976 79.2885,25.9141976" id="Fill-251" fill="#FEFEFE"></path>
                    <path d="M69.5150892,7.86583333 C69.5120892,7.84283333 69.5020892,7.82683333 69.5020892,7.80083333 C69.4710892,7.85083333 69.4860892,7.86283333 69.5150892,7.86583333" id="Fill-253" fill="#FEFEFE"></path>
                    <path d="M66.6045,1.8688463 C66.5835,1.8248463 66.5235,1.7968463 66.3955,1.7978463 C66.4545,1.7978463 66.5305,1.8368463 66.6045,1.8688463" id="Fill-255" fill="#FEFEFE"></path>
                    <path d="M76.5217648,26.8099032 C76.4227648,26.8829032 76.5237648,26.8609032 76.5217648,26.8099032" id="Fill-257" fill="#FEFEFE"></path>
                    <path d="M79.5133163,22.8560358 L79.5233163,22.8540358 C79.4563163,22.7900358 79.4693163,22.8020358 79.5133163,22.8560358" id="Fill-259" fill="#FEFEFE"></path>
                    <path d="M76.556,26.798044 C76.511,26.799044 76.477,26.799044 76.444,26.800044 C76.459,26.873044 76.49,26.909044 76.556,26.798044" id="Fill-261" fill="#FEFEFE"></path>
                    <path d="M76.4545,26.8768333 C76.4835,26.8568333 76.5255,26.8288333 76.5975,26.7898333 C76.5375,26.8228333 76.4715,26.8288333 76.4025,26.8248333 C76.4355,26.8418333 76.4545,26.8608333 76.4545,26.8768333" id="Fill-263" fill="#FEFEFE"></path>
                    <path d="M76.562047,9.83937969 C76.561047,9.82337969 76.560047,9.81137969 76.559047,9.79137969 C76.369047,9.89337969 76.428047,9.89337969 76.562047,9.83937969" id="Fill-265" fill="#FEFEFE"></path>
                    <path d="M86.4935,18.8173333 C86.4895,18.8233333 86.4915,18.8353333 86.4885,18.8423333 L86.5115,18.8493333 L86.4935,18.8173333 Z" id="Fill-267" fill="#FEFEFE"></path>
                    <path d="M86.3235,18.3333333 C86.5095,18.6625621 86.3635,18.6567293 86.1895,18.6243249 L86.8105,19.3333333 C86.7035,18.98531 86.5225,18.6567293 86.3235,18.3333333" id="Fill-269" fill="#FEFEFE"></path>
                    <g id="Group-273" transform="translate(65.000000, 1.333333)">
                        <mask id="mask-4" fill="white">
                            <use xlink:href="#path-3"></use>
                        </mask>
                        <g id="Clip-272"></g>
                        <path d="M24.25525,16.25845 C24.0660833,16.1967 24.2269167,16.1991375 24.5610833,16.221075 C24.5719167,16.2511375 24.48775,16.2706375 24.25525,16.25845 M11.9185833,24.3972625 C11.9185833,24.3907625 11.9185833,24.385075 11.91775,24.37695 C12.1285833,24.45495 12.0510833,24.4216375 11.9185833,24.3972625 M21.95025,14.8057 C21.8160833,14.8260125 21.4694167,14.9267625 21.7260833,14.80245 C22.2860833,14.59445 22.0694167,14.7220125 21.95025,14.8057 M12.4760833,5.9518875 L12.4844167,6.07295 C12.2994167,6.1046375 12.38525,6.03395 12.4760833,5.9518875 M29.4260833,16.1585125 C29.7644167,16.1577 29.7535833,16.061825 29.66275,16.0350125 C29.7210833,16.0155125 29.77275,15.99845 29.8194167,15.9830125 L29.8878445,15.9602625 C29.8894167,15.9521375 29.8685833,15.9432 29.8610833,15.935075 C29.81775,15.9017625 29.78275,15.8741375 29.7469167,15.847325 C29.6694167,15.7928875 29.5694167,15.736825 29.33775,15.63445 L29.2535833,15.6856375 C27.7769167,15.57595 28.6819167,15.52395 28.24525,15.3647 L28.38275,15.36795 C28.6219167,14.9812 27.71775,15.242825 28.0344167,14.8260125 L27.3660833,14.8991375 C26.57775,14.93895 26.6910833,14.859325 26.8494167,14.732575 C27.0144167,14.6082625 27.1994167,14.4213875 26.75775,14.3580125 L26.5294167,14.485575 C26.20525,14.469325 26.53775,14.32795 26.8969167,14.144325 C27.2610833,13.9647625 27.65025,13.741325 27.5985833,13.65195 C27.64775,13.595075 27.85275,13.6592625 28.0110833,13.686075 C28.04025,13.1311375 27.1844167,13.8103875 26.5669167,13.6007625 C26.85025,13.442325 27.6385833,13.3943875 27.36275,13.1798875 C27.4210833,13.0840125 26.8735833,13.032825 26.3785833,12.971075 C25.8760833,12.9052625 25.44025,12.8321375 25.49525,12.55995 C25.37525,12.737075 25.22775,12.89795 24.8619167,12.87845 C24.67275,12.8175125 24.6669167,12.584325 24.5635833,12.3820125 C24.46525,12.1821375 24.2744167,12.015575 23.8669167,12.174825 C23.87275,12.11145 23.90025,12.0627 23.94025,12.0245125 C23.5560833,12.009075 22.9394167,11.8018875 22.60525,12.0358875 C22.75025,11.7287625 22.69775,11.554075 22.5560833,11.453325 C22.4510833,11.372075 22.29275,11.38345 22.1260833,11.3940125 C21.7994167,11.4183875 21.48525,11.4647 21.7969167,10.923575 L21.2510833,10.7042 L21.3269167,10.6002 C21.04025,10.351575 20.77525,10.549825 20.51275,10.748075 C20.4794167,10.6335125 20.5919167,10.5620125 20.63025,10.5083875 C20.27525,10.0306375 20.2010833,10.05095 19.4935833,10.3767625 L19.6510833,10.0013875 C19.4260833,10.14845 19.26775,9.077575 18.56525,9.2376375 C18.5919167,9.2002625 18.64025,9.1368875 18.70525,9.1076375 C17.9444167,9.23845 17.9810833,7.4517625 17.0694167,8.6372 L16.54275,8.7696375 C16.94025,9.1092625 16.1644167,9.2937 16.2319167,9.6065125 C16.0119167,9.5886375 15.98775,8.9743875 16.2435833,9.02395 L16.2419167,9.1060125 C16.69525,8.476325 15.8110833,8.5713875 16.0769167,8.1196375 C15.16525,7.6841375 14.4994167,6.854575 13.6769167,6.389825 L13.4860833,6.965075 L13.21025,6.7822625 C13.20025,6.620575 13.3319167,6.318325 13.5285833,6.4491375 C13.5810833,6.0948875 13.04275,6.5157625 12.9744167,6.627075 C12.6819167,6.2021375 13.4685833,6.0981375 13.35025,6.0201375 L13.1585833,5.970575 L13.16275,6.051825 C12.9085833,6.194825 12.7719167,6.415825 12.53525,6.259825 C12.4335833,6.07295 12.63025,5.8942 12.5785833,5.8413875 C12.5994167,5.804825 12.58775,5.7763875 12.4910833,5.7772 L12.1469167,5.541575 L12.0685833,6.032325 C11.7944167,6.1517625 11.7344167,5.830825 11.6485833,6.3890125 C11.79275,5.5342625 10.41525,5.418075 10.3835833,5.1150125 C9.99025,5.29945 9.76691667,5.177575 9.50775,4.9972 C9.53025,5.119075 9.31941667,5.6073875 9.10858333,5.4253875 C9.71775,4.508075 8.89191667,4.781075 9.07108333,3.9872625 C8.99775,4.537325 8.32275,3.7492 8.24441667,4.5422 C8.08525,4.3610125 8.42691667,4.17495 8.39608333,3.86945 C7.71525,3.9970125 7.46858333,3.0862 6.80775,2.9082625 C6.73025,3.0301375 6.72525,3.2747 6.49608333,3.3982 L6.52358333,2.6052 C6.37275,2.606825 6.02275,3.2803875 6.04441667,2.73195 C6.01775,2.853825 5.97608333,3.03745 5.87608333,3.0382625 C5.04358333,1.8276375 3.22941667,2.3330125 2.66858333,0.572325 C2.69691667,0.8997625 2.57691667,0.8697 2.45025,0.8168875 C2.49858333,0.9160125 2.28108333,1.1288875 2.20441667,1.30845 L1.96525,0.58045 C1.62025,1.011075 1.41775,0.3432 1.12191667,0.7722 L1.32275,0.7697625 C0.826916667,1.2020125 0.974416667,2.1136375 0.576083333,2.7880125 C1.13608333,2.294825 0.706083333,4.00595 1.55691667,3.325075 C1.56608333,3.5087 1.36608333,3.5111375 1.32525,3.69395 C1.58108333,3.44695 1.73108333,3.445325 1.87691667,3.6882625 L1.81275,3.7492 C2.46108333,3.98645 2.56691667,4.4113875 3.14691667,4.953325 L3.27858333,4.5868875 C3.40191667,4.7071375 3.37441667,4.8306375 3.39858333,4.9508875 C3.84358333,4.51945 3.00025,4.7112 3.46025,4.218825 C3.28275,5.0126375 4.49108333,4.7575125 4.20025,5.613075 C4.42358333,5.7325125 4.34525,5.1848875 4.56941667,5.3051375 L4.51525,5.5488875 L4.71941667,5.3027 C4.84358333,5.4237625 4.77441667,5.7292625 4.68358333,5.912075 C4.65858333,5.8722625 4.55358333,5.91045 4.50775,5.9063875 C4.56441667,6.2557625 5.09525,6.097325 5.11608333,6.2127 L4.97025,5.970575 C5.69441667,6.08595 6.29608333,6.7497625 7.12441667,6.6222 L7.16608333,6.438575 C7.78108333,6.373575 7.43441667,6.8017625 8.00858333,6.919575 L7.96941667,6.948825 C8.15608333,6.83995 8.33358333,6.8277625 8.45941667,6.9155125 C8.23108333,7.0390125 8.49858333,7.403825 8.22108333,7.5265125 C8.88608333,7.4607 8.60025,7.4013875 9.24775,6.9723875 L9.17858333,7.277075 C9.42025,7.09345 9.49858333,6.9707625 9.78525,7.030075 C9.45691667,7.153575 9.72441667,7.517575 9.33108333,7.7020125 C9.53775,8.5535125 10.4260833,7.514325 10.20275,8.489325 C10.84275,7.8767 9.97275,7.8466375 10.1935833,7.7588875 C10.2110833,7.459075 10.6910833,7.3103875 10.8144167,7.468825 C10.97275,7.5720125 10.58525,8.5583875 11.0110833,8.7607 C10.9719167,8.736325 10.9385833,8.78995 10.8985833,8.765575 C10.95275,9.0345125 11.3444167,8.6705125 11.37025,9.0751375 C11.7210833,8.68595 11.60525,9.230325 11.9469167,8.6786375 L11.4910833,8.6103875 C11.79025,8.5746375 12.35775,8.0172625 12.5394167,8.5258875 C12.4494167,8.625825 12.26025,8.7208875 12.1410833,8.7663875 C12.1544167,8.9890125 12.4035833,8.7607 12.4185833,8.989825 C12.0769167,9.5415125 11.8844167,8.869575 11.4144167,9.1823875 C11.39525,9.4797625 12.08025,8.999575 11.6269167,9.5545125 C12.2235833,8.859825 11.9844167,9.867325 12.59525,9.4180125 L12.39025,9.7478875 C12.4644167,9.717825 12.6444167,9.6057 12.72275,9.6577 L12.3310833,10.0208875 C12.7669167,9.7641375 12.59275,10.5798875 12.9244167,10.4897 C12.4594167,10.260575 13.0469167,10.026575 12.98775,9.6763875 C13.8069167,9.51795 12.8260833,10.7367 13.5494167,10.9057 C13.43775,10.90895 13.3394167,10.5327625 13.5610833,10.445825 C13.6435833,10.579075 13.73025,10.7927625 13.7069167,11.0097 C14.1660833,11.1600125 13.8344167,10.6270125 14.1294167,10.5116375 C14.0435833,11.0007625 14.4285833,10.452325 14.6860833,10.416575 L14.4960833,10.7618875 C14.85275,11.2347625 15.0219167,10.10945 15.30525,10.6042625 L14.85775,10.9861375 L15.15025,10.9812625 L14.8869167,11.349325 C15.2919167,11.186825 15.3260833,11.3030125 15.5044167,11.53945 C15.5844167,11.2672625 15.8835833,10.930075 16.1019167,11.0316375 C16.1319167,11.3127625 15.83775,11.3160125 16.1660833,11.4257 C15.97775,11.6052625 15.7535833,11.836825 15.7994167,11.4508875 C15.7235833,11.5557 15.6119167,11.6312625 15.5369167,11.7352625 C15.5610833,12.0521375 15.89775,11.9952625 16.00775,12.0497 C15.9735833,12.0147625 15.9335833,11.9692625 15.93525,11.9067 L16.6360833,11.6597 C16.63275,11.82545 16.5210833,11.9002 16.41025,11.9741375 C16.5185833,11.983075 16.6685833,11.8571375 16.8135833,11.89695 C16.6244167,12.158575 16.47025,12.4518875 16.2144167,12.4860125 L16.8010833,12.395825 C16.76025,12.532325 16.8260833,12.8427 16.7144167,12.91745 C16.8510833,13.2042625 17.58025,12.6745125 17.76275,13.05395 C17.8094167,13.00845 17.87025,12.9735125 17.9569167,12.967825 C18.2069167,13.1831375 18.26525,13.6617 18.8194167,13.4610125 L18.7269167,14.0638875 C19.0560833,14.0931375 18.8244167,13.2952625 19.37275,13.3440125 C19.7744167,13.3521375 19.2460833,13.832325 19.2760833,14.030575 C19.5744167,13.861575 20.1360833,13.4951375 20.1894167,14.0573875 C20.0410833,14.0996375 20.0094167,13.9858875 19.8994167,13.9745125 L19.96025,14.3693875 C19.43775,14.6822 19.33775,14.4222 19.3194167,14.9227 C19.90025,13.9745125 20.2194167,15.2826375 20.8010833,14.3368875 C20.82275,14.436825 20.80025,14.5140125 20.7710833,14.586325 C20.76275,14.5692625 20.7310833,14.62695 20.7185833,14.60745 C20.51275,15.1006375 21.22025,13.9672 21.3285833,14.206075 C21.33775,14.306825 21.2519167,14.44495 21.12275,14.5237625 C21.2235833,14.4750125 21.3335833,14.430325 21.4519167,14.391325 C21.47275,14.4278875 21.30275,14.553825 21.28775,14.521325 L21.54525,14.5627625 L21.5135833,14.5822625 C21.6994167,14.4847625 22.03525,14.3628875 22.19525,14.319825 C22.09525,14.4473875 22.0444167,14.3710125 21.9210833,14.4620125 C22.0519167,14.4311375 22.1910833,14.4051375 22.3360833,14.3823875 C22.07275,14.5660125 21.6710833,14.664325 21.65025,14.605825 C21.13775,14.956825 21.2044167,14.9137625 21.3719167,14.8601375 C21.5285833,14.800825 21.80525,14.7415125 21.50025,14.943825 L21.2669167,14.976325 C20.57025,15.3118875 20.8669167,15.2143875 20.37525,15.3931375 C20.5119167,15.3508875 20.8269167,15.2420125 21.1244167,15.112825 C21.4260833,14.986075 21.71775,14.843075 21.94525,14.810575 C21.8735833,14.86745 21.8485833,14.89995 22.21025,14.843075 C21.68275,15.00395 21.8569167,14.989325 21.9544167,15.0177625 L21.1994167,15.19895 C21.45775,15.1688875 21.8510833,15.0827625 22.2510833,15.0340125 C22.26025,15.0982 21.62775,15.21195 21.0835833,15.3021375 C21.0410833,15.3257 21.3035833,15.285075 21.59275,15.2338875 C21.8835833,15.1827 22.19525,15.1177 22.3560833,15.1493875 C22.1269167,15.252575 22.5310833,15.2322625 23.2944167,15.298075 C23.0360833,15.3622625 22.6644167,15.3151375 22.40775,15.3443875 L23.29275,15.3582 C23.29275,15.369575 23.03025,15.3712 22.90025,15.372825 C23.2885833,15.4037 23.94025,15.3517 24.3669167,15.4272625 C24.97775,15.4370125 24.6310833,15.486575 24.2819167,15.522325 C23.9294167,15.56295 23.5985833,15.5816375 24.3769167,15.662075 C24.00025,15.658825 23.6660833,15.613325 23.1910833,15.5930125 C23.97025,15.7311375 23.7519167,15.6962 24.75775,15.899325 L23.88525,15.8936375 C24.7960833,15.9367 25.5785833,16.1113875 26.0585833,16.3226375 C26.48775,16.347825 26.8710833,16.3648875 27.07025,16.3665125 C27.11525,16.4477625 27.1494167,16.5347 27.17275,16.6257 C26.9635833,16.620825 26.6869167,16.5436375 26.35025,16.4502 C26.40525,16.474575 26.4594167,16.4981375 26.5069167,16.5192625 C26.01775,16.5176375 25.56025,16.38195 25.1010833,16.25845 C25.3310833,16.2747 25.57525,16.2917625 25.8160833,16.3080125 C25.30775,16.1772 24.6885833,16.0561375 24.0844167,15.9781375 C24.1860833,16.0008875 24.2544167,16.0277 24.27525,16.0512625 C24.1294167,16.019575 23.9919167,15.993575 23.8860833,15.9813875 C23.7735833,15.9683875 23.9710833,16.0106375 24.1794167,16.068325 L23.0544167,15.909075 L23.4685833,15.9862625 C23.1569167,15.98545 22.8635833,15.9757 22.5894167,15.95945 C23.4344167,16.240575 24.50525,16.7256375 24.2644167,17.0872 C23.83025,16.806075 23.37025,16.7061375 22.7194167,16.4307 C23.5394167,16.66795 22.6694167,16.2056375 22.9560833,16.2032 C22.78775,16.21295 22.4485833,16.0935125 22.3360833,16.0496375 C22.5085833,16.1536375 22.65525,16.2682 22.77525,16.3941375 C22.2219167,16.1772 22.2985833,16.2576375 22.0194167,16.1893875 C23.1260833,16.611075 22.4919167,16.5810125 22.63525,16.793075 C22.3294167,16.6232625 22.05025,16.4372 22.2544167,16.422575 C21.8219167,16.2706375 22.0694167,16.42745 22.28525,16.60945 C22.5085833,16.7882 22.7035833,16.991325 22.3494167,16.85645 C22.3835833,16.835325 22.4494167,16.8532 22.32275,16.7548875 C22.4710833,16.9572 22.04275,16.9271375 21.8919167,16.731325 L21.9219167,16.7126375 C21.6044167,16.741075 21.25525,16.9856375 21.5160833,17.628325 C21.47525,17.5487 21.1319167,16.8848875 21.0669167,16.7581375 C21.2119167,17.1188875 21.31275,17.498325 21.36775,17.8972625 L21.47775,19.116825 C21.30275,18.5440125 20.4885833,17.3463875 20.69025,16.897075 C20.5594167,16.8597 20.40025,16.819075 20.2810833,17.09695 C20.3819167,17.147325 20.7910833,17.8176375 20.72275,17.9053875 C20.21025,17.400825 20.4094167,17.6518875 19.87775,17.261075 C20.02775,17.33745 20.29275,18.239325 20.12525,18.2767 C20.0935833,18.138575 19.7419167,17.4373875 19.7594167,17.32445 L19.74025,18.327075 C19.77025,18.135325 19.44525,17.6080125 19.2535833,17.407325 C19.3660833,17.5543875 18.9119167,17.53245 18.8444167,17.6592 L19.0944167,17.784325 C18.60025,17.8412 19.18025,19.1477 18.7260833,19.285825 C18.70275,19.0900125 18.3869167,18.16295 18.1194167,18.14995 C18.2069167,18.622825 18.5794167,20.407075 18.3419167,20.8986375 L18.16025,20.6841375 L17.98775,21.08795 C17.8869167,20.3640125 17.8035833,18.7861375 17.8519167,18.1377625 C17.60275,18.011825 17.6785833,17.8672 17.44275,17.992325 C17.25525,17.7981375 17.4235833,17.5868875 17.49025,17.5430125 L16.8519167,17.6340125 C17.0985833,18.125575 16.6360833,18.320575 16.8419167,18.730075 L17.2344167,17.9492625 C17.4794167,18.4400125 17.5019167,19.5247 17.05775,19.60595 C16.86775,19.4491375 16.7410833,18.6797 16.6594167,18.515575 C16.68275,18.710575 16.42025,19.0071375 16.3285833,18.8998875 L16.38275,18.5602625 C16.0744167,18.4652 16.30775,19.3792625 15.8260833,19.0136375 C15.71775,19.02095 15.2610833,18.4847 15.3760833,18.788575 C15.7810833,19.2972 16.59275,21.0562625 16.68025,21.528325 C16.6310833,21.50395 15.94775,21.187075 15.7169167,20.9490125 C15.3644167,20.5647 15.47525,19.7822625 15.1744167,19.451575 C15.2285833,19.591325 15.21775,19.796075 15.2069167,19.864325 C15.0569167,19.7887625 15.06025,19.4231375 14.8735833,19.575075 C15.06275,20.098325 14.42025,19.7132 14.9635833,20.0471375 C14.8185833,20.2795125 14.6944167,20.03495 14.4594167,20.160075 C14.68275,20.4566375 14.7335833,21.3707 14.5885833,21.6038875 C14.5444167,21.4690125 14.42275,21.320325 14.3660833,21.2528875 C13.91775,21.3861375 13.58525,21.252075 13.1844167,21.414575 C13.09275,21.3065125 12.8344167,21.2382625 12.8194167,20.985575 C12.80275,21.099325 12.8260833,21.2935125 12.7085833,21.3577 C12.27525,21.018075 12.95275,21.174075 12.5360833,20.722325 C12.6519167,21.0237625 12.3985833,21.26345 12.30525,21.5210125 C12.5619167,21.9548875 12.7494167,21.43895 12.8435833,21.1813875 C13.1235833,21.8102625 13.1094167,22.5967625 12.8219167,23.0631375 C12.56025,23.3572625 12.4985833,22.7162 12.48025,22.82995 C11.8085833,22.9802625 12.43775,24.1502625 11.72025,23.9130125 C11.3369167,23.5977625 11.3560833,23.1192 11.1819167,22.84945 C11.38525,22.584575 11.7094167,22.9298875 11.88525,22.8372625 L11.5760833,22.7422 C11.6019167,22.5732 11.73775,22.396075 11.88775,22.4716375 C11.5560833,22.1832 10.80525,22.84295 10.1769167,22.711325 C10.1510833,22.88195 10.0660833,23.0826375 10.20775,23.215075 L10.3344167,23.094825 C10.6185833,23.3597 10.24775,23.6611375 10.5069167,23.731825 C10.4044167,24.0446375 10.33525,24.4972 9.96691667,24.4346375 L9.70941667,23.99995 C9.77525,24.1307625 10.0185833,24.1941375 10.0369167,24.0202625 C10.00775,24.27295 9.32108333,23.5872 9.45691667,24.2396375 L9.79941667,24.4720125 C9.69691667,24.7872625 9.66025,25.37795 9.34191667,25.340575 C9.65941667,25.7427625 9.37775,25.2642 9.79358333,25.7167625 C9.34441667,25.1252625 10.4560833,25.4713875 9.89775,24.8872 C10.35525,25.421825 10.3335833,25.012325 10.8085833,25.4332 C10.7335833,25.2861375 10.5944167,25.181325 10.84025,25.1658875 C10.8310833,25.11795 10.8285833,25.05295 10.8285833,25.01395 C10.8360833,25.015575 10.8394167,25.0172 10.84775,25.018825 L10.8285833,25.005825 C10.82775,24.979825 10.8260833,24.97495 10.8210833,25.0017625 C10.74025,24.957075 10.6635833,24.895325 10.61025,24.8181375 C10.5619167,24.427325 10.90525,24.2965125 10.94025,24.0690125 C11.0994167,24.0877 10.96525,24.264825 11.1060833,24.39645 L11.15775,24.056825 C11.3235833,24.3842625 11.7410833,24.4720125 11.53025,24.79295 L11.8060833,24.69545 C12.04775,24.817325 12.2969167,24.801075 12.3685833,24.6036375 C12.52775,24.6231375 12.5235833,24.099075 12.53025,24.4070125 L12.8585833,24.0235125 L12.8994167,24.105575 C13.3344167,23.97395 13.5085833,23.1931375 14.2510833,23.598575 C14.3535833,23.455575 14.4519167,23.29145 14.72775,23.2890125 L14.9019167,23.559575 C15.0360833,23.3832625 15.5694167,23.6237625 15.51275,23.2890125 C16.0510833,23.988575 16.4594167,23.094825 16.8360833,23.1005125 L16.68025,22.717825 C16.9069167,22.64795 17.06775,22.4537625 17.27025,22.188075 L17.1060833,21.8606375 C17.21775,21.4885125 17.8094167,21.8476375 18.1619167,21.6591375 C18.1935833,21.798075 18.08525,21.8037625 17.98525,21.7542 C18.7569167,22.3262 18.67025,20.81495 19.31025,21.1992625 C19.3569167,21.03595 19.4469167,21.047325 19.5535833,21.102575 C19.54525,21.1066375 19.5394167,21.1163875 19.5369167,21.1302 C19.5485833,21.1302 19.5635833,21.1245125 19.5794167,21.1172 C19.6485833,21.1562 19.7235833,21.2041375 19.79525,21.23745 C19.7185833,21.174075 19.6494167,21.1237 19.60025,21.1066375 C19.6744167,21.0676375 19.7719167,20.97745 19.8494167,20.845825 L20.05525,21.18545 C20.06275,21.1765125 20.0710833,21.174075 20.0769167,21.164325 C20.2469167,21.25045 20.09275,20.956325 19.9135833,20.7101375 C19.94525,20.6272625 19.9669167,20.5346375 19.9694167,20.4306375 C20.3144167,20.9733875 20.1819167,20.1097 20.57775,20.676825 C20.52275,20.3428875 21.05025,20.21045 20.8335833,19.549075 C20.87275,19.630325 20.9244167,19.6555125 20.86525,19.6863875 C21.0235833,19.7058875 21.1819167,19.7253875 21.2169167,19.4978875 L21.4719167,19.932575 L21.4794167,19.2021375 C21.77025,19.4101375 21.9110833,19.542575 21.89775,19.965075 C22.03775,19.2655125 22.1994167,19.5970125 22.3485833,18.899075 L22.4935833,19.1891375 C22.6685833,19.1022 22.6610833,18.6366375 22.9210833,18.8162 C23.2985833,18.9917 23.8119167,18.7991375 24.3869167,18.5757 C24.9719167,18.3473875 25.5944167,18.09795 26.4994167,18.028075 C25.7844167,17.81195 26.03775,17.8217 26.3619167,17.829825 C26.6869167,17.83795 27.1019167,17.836325 26.6010833,17.6462 C26.9744167,17.73395 27.3135833,17.7282625 27.41275,17.8997 C27.6335833,17.56495 28.8494167,17.6778875 28.2244167,17.2667625 C28.6644167,17.3252625 28.6485833,17.4447 28.9260833,17.472325 C28.89525,17.4325125 28.7860833,17.319575 29.07275,17.34395 C29.36025,17.3675125 29.3069167,17.4503875 29.3710833,17.5292 C29.9519167,17.2407625 28.7660833,16.9905125 27.63275,16.76545 C28.4285833,16.7630125 28.50775,16.6817625 27.85525,16.4957 C28.34025,16.5208875 28.9335833,16.5111375 28.7610833,16.666325 C28.9794167,16.6086375 30.5310833,16.2543875 29.4260833,16.1585125" id="Fill-271" fill="#FEFEFE" mask="url(#mask-4)"></path>
                    </g>
                    <path d="M88.757,16.8653333 C88.624,16.8343333 88.445,16.8093333 88.243,16.8013333 C88.408,16.8223333 88.58,16.8433333 88.757,16.8653333" id="Fill-274" fill="#FEFEFE"></path>
                    <path d="M83.531,14.8093333 C83.529,14.8043333 83.524,14.8033333 83.522,14.7983333 C83.502,14.8203333 83.484,14.8433333 83.469,14.8683333 L83.531,14.8093333 Z" id="Fill-276" fill="#FEFEFE"></path>
                    <path d="M79.377,21.7520631 C79.481,21.7830631 79.559,21.8460631 79.623,21.9180631 C79.58,21.8080631 79.506,21.7310631 79.377,21.7520631" id="Fill-278" fill="#FEFEFE"></path>
                    <path d="M75.362,26.6978333 C75.413,26.7988333 75.523,26.9288333 75.452,26.9688333 L75.638,26.7508333 C75.534,26.8228333 75.451,26.7428333 75.362,26.6978333" id="Fill-280" fill="#FEFEFE"></path>
                    <path d="M72.3924797,25.7858333 L72.4924797,25.9878333 C72.6334797,25.9108333 72.6644797,25.7008333 72.4734797,25.6788333 C72.4624797,25.7478333 72.4034797,25.7168333 72.3924797,25.7858333" id="Fill-282" fill="#FEFEFE"></path>
                    <path d="M73.7055,25.7996446 C73.5245,25.4356446 73.4315,25.6256446 73.2945,25.7666446 C73.3045,25.7606446 73.3115,25.7536446 73.3235,25.7536446 C73.5015,26.2956446 73.6035,26.0466446 73.7055,25.7996446" id="Fill-284" fill="#FEFEFE"></path>
                    <path d="M73.5745,25.746948 C73.5315,25.786948 73.4825,25.818948 73.4255,25.822948 C73.4965,26.038948 73.5065,25.838948 73.5745,25.746948" id="Fill-286" fill="#FEFEFE"></path>
                    <path d="M76.4199191,26.6355341 C76.2999191,26.5735341 76.5769191,27.1325341 76.4669191,27.0005341 C76.5849191,27.5115341 76.7419191,26.2015341 76.4199191,26.6355341" id="Fill-288" fill="#FEFEFE"></path>
                    <polygon id="Fill-290" fill="#FEFEFE" points="73.6295 26.0503333 73.5625 25.6403333 73.3705 25.6163333"></polygon>
                    <path d="M75.6556216,25.7528333 L75.3356216,25.7398333 C75.3726216,25.8148333 75.3586216,25.8748333 75.3326216,25.9268333 C75.5026216,25.8718333 75.7206216,25.8858333 75.6556216,25.7528333" id="Fill-292" fill="#FEFEFE"></path>
                    <path d="M75.4095,25.9168333 C75.4535,25.8928333 75.5465,25.8348333 75.5905,25.7498333 C75.5005,25.7768333 75.4245,25.8218333 75.4095,25.9168333" id="Fill-294" fill="#FEFEFE"></path>
                    <polygon id="Fill-296" fill="#FEFEFE" points="73.459 25.8643333 73.661 25.8173333 73.339 25.8023333"></polygon>
                    <path d="M77.6445761,23.7943764 C77.6055761,23.6243764 77.4855761,23.5613764 77.4045761,23.6703764 C77.3825761,23.8103764 77.3015761,23.9173764 77.4125761,24.0503764 L77.6445761,23.7943764 Z" id="Fill-298" fill="#FEFEFE"></path>
                    <path d="M76.3605,22.8258333 C76.4805,22.8878333 76.5305,22.9878333 76.6395,23.1198333 L76.4015,22.5468333 L76.3605,22.8258333 Z" id="Fill-300" fill="#FEFEFE"></path>
                    <path d="M76.430151,22.6360839 C76.468151,22.8050839 76.235151,23.0620839 76.558151,23.0770839 C76.518151,22.9070839 76.782151,22.4420839 76.430151,22.6360839" id="Fill-302" fill="#FEFEFE"></path>
                    <polygon id="Fill-304" fill="#FEFEFE" points="80.2935 21.3873333 80.7065 22.3183333 80.3635 21.3483333"></polygon>
                    <path d="M83.2580026,18.8963465 C83.2720026,19.1523465 83.6100026,19.0153465 83.6090026,19.2423465 C83.7160026,18.9193465 83.8820026,19.0043465 83.5230026,18.4303465 C83.0830026,18.3533465 83.6890026,19.0423465 83.2580026,18.8963465" id="Fill-306" fill="#FEFEFE"></path>
                    <g id="Group-310" transform="translate(66.000000, 0.333333)">
                        <mask id="mask-6" fill="white">
                            <use xlink:href="#path-5"></use>
                        </mask>
                        <g id="Clip-309"></g>
                        <polygon id="Fill-308" fill="#FEFEFE" mask="url(#mask-6)" points="0.54385 0.37115 0.53335 0.55865 0.60135 0.52065"></polygon>
                    </g>
                    <g id="Group-313" transform="translate(65.000000, 0.333333)">
                        <mask id="mask-8" fill="white">
                            <use xlink:href="#path-7"></use>
                        </mask>
                        <g id="Clip-312"></g>
                        <path d="M0.72255,0.7491 L0.84705,0.4481 L0.64755,0.6756 C0.67805,0.6751 0.73805,0.6746 0.72255,0.7491" id="Fill-311" fill="#FEFEFE" mask="url(#mask-8)"></path>
                    </g>
                    <path d="M86.7345,15.7563333 L86.2655,15.9103333 L86.4815,15.8533333 C86.7095,15.7873333 86.7165,15.7773333 86.7345,15.7563333" id="Fill-314" fill="#FEFEFE"></path>
                    <path d="M86.3255,16.0568333 L86.3275,16.0728333 C86.4475,15.9158333 86.5625,15.7558333 86.6745,15.5938333 L86.3255,16.0568333 Z" id="Fill-316" fill="#FEFEFE"></path>
                    <path d="M83.3255,15.9199109 C83.4105,15.9949109 83.5885,15.9429109 83.6745,16.0189109 C83.4105,15.9949109 83.6535,15.2649109 83.3255,15.9199109" id="Fill-318" fill="#FEFEFE"></path>
                </g>
            </g>
        </g>
    </g>
</svg>