<?xml version="1.0" encoding="UTF-8"?>
<svg width="33px" height="47px" viewBox="0 0 33 47" version="1.1" xmlns="http://www.w3.org/2000/svg" xmlns:xlink="http://www.w3.org/1999/xlink">
    <!-- Generator: Sketch 61.2 (89653) - https://sketch.com -->
    <title>Group 321</title>
    <desc>Created with Sketch.</desc>
    <defs>
        <polygon id="path-1" points="0.21425 0.171630009 0.71425 0.171630009 0.71425 0.5 0.21425 0.5"></polygon>
        <polygon id="path-3" points="0.00424690536 0.01805 0.504246905 0.01805 0.504246905 0.5 0.00424690536 0.5"></polygon>
        <polygon id="path-5" points="0.14035 0.324 0.64035 0.324 0.64035 0.64925 0.14035 0.64925"></polygon>
        <polygon id="path-7" points="0.5 0.397256514 0.831611912 0.397256514 0.831611912 0.897256514 0.5 0.897256514"></polygon>
    </defs>
    <g id="Page-1" stroke="none" stroke-width="1" fill="none" fill-rule="evenodd">
        <g id="Desktop-HD-Copy-10" transform="translate(-1100.000000, -1535.000000)">
            <g id="Group-321" transform="translate(1100.000000, 1535.000000)">
                <g id="Group-3" transform="translate(17.000000, 46.000000)">
                    <mask id="mask-2" fill="white">
                        <use xlink:href="#path-1"></use>
                    </mask>
                    <g id="Clip-2"></g>
                    <path d="M0.3785,0.5001 C0.4395,0.4471 0.505,0.3396 0.6175,0.3496 C0.544,0.3271 0.409,0.3711 0.311,0.3671 L0.3785,0.5001 Z" id="Fill-1" fill="#FEFEFE" mask="url(#mask-2)"></path>
                </g>
                <g id="Group-6" transform="translate(17.000000, 46.000000)">
                    <mask id="mask-4" fill="white">
                        <use xlink:href="#path-3"></use>
                    </mask>
                    <g id="Clip-5"></g>
                    <path d="M0.31115,0.3673 L0.21115,0.1688 C0.16965,0.3253 0.22715,0.3643 0.31115,0.3673" id="Fill-4" fill="#FEFEFE" mask="url(#mask-4)"></path>
                </g>
                <path d="M18,45.3705102 L17.817552,45.1806962 C17.8214011,45.1806962 17.8298691,45.1715785 17.8321786,45.1732363 C17.8267898,45.1757229 17.8229407,45.1782096 17.817552,45.1806962 L17.643572,45 L17.7598152,45.1550009 L17.7975366,45.1898139 C17.5350269,45.308344 17.3387221,45.4102965 17.08699,45.6166881 C17.1401078,45.6531589 17.2771363,45.6672499 17.2640493,45.8197641 C17.1839877,45.9631607 17.1070054,45.8462883 17,45.8711548 C17.100077,45.9440964 17.2802156,46.1388836 17.3995381,45.834684 L17.34796,45.7990421 C17.417244,45.5570086 17.7028483,45.2296003 17.7983064,45.1906428 L18,45.3705102 Z" id="Fill-7" fill="#FEFEFE"></path>
                <path d="M18.165,44.7915 C18.425,44.9905 18.687,44.6765 18.835,44.8645 C18.828,44.6135 18.62,44.3625 18.434,44.1355 C18.52,44.3565 18.45,44.5605 18.165,44.7915" id="Fill-9" fill="#FEFEFE"></path>
                <path d="M18.6325,44.6865 C18.5855,44.5695 18.5095,44.4485 18.3675,44.3135 C18.4175,44.4255 18.5225,44.5505 18.6325,44.6865" id="Fill-11" fill="#FEFEFE"></path>
                <path d="M17.7375,45.3965 L17.2925,45.4645 C17.2835,45.5065 17.2725,45.5545 17.2625,45.6035 C17.3575,45.5905 17.6035,45.5785 17.7375,45.3965" id="Fill-13" fill="#FEFEFE"></path>
                <path d="M17.4555,45.65 L17.4695,45.648 C17.5075,45.498 17.5335,45.394 17.5445,45.35 C17.5335,45.387 17.5065,45.478 17.4555,45.65" id="Fill-15" fill="#FEFEFE"></path>
                <path d="M17.5113655,45.5175 L17.5203655,45.4825 C17.4763655,45.4895 17.4603655,45.4945 17.5113655,45.5175" id="Fill-17" fill="#FEFEFE"></path>
                <path d="M17.693,45.7275 L17.468,45.2725 L17.307,45.6355 C17.42,45.6455 17.593,45.6045 17.693,45.7275" id="Fill-19" fill="#FEFEFE"></path>
                <polygon id="Fill-21" fill="#FEFEFE" points="17.419 45.396 17.522 45.604 17.581 45.469"></polygon>
                <path d="M17.5251318,44.5205 L17.5071318,44.4795 C17.4681318,44.4965 17.4541318,44.5125 17.5251318,44.5205" id="Fill-23" fill="#FEFEFE"></path>
                <path d="M17.459,43.497 L17.53,43.519 L17.541,43.481 C17.516,43.486 17.486,43.492 17.459,43.497" id="Fill-25" fill="#FEFEFE"></path>
                <path d="M17.4821159,44.3315858 C17.3721159,44.4785858 17.4571159,44.5945858 17.5691159,44.7095858 C17.5491159,44.5815858 17.5451159,44.4485858 17.5671159,44.3095858 C17.5101159,44.2855858 17.4711159,44.2755858 17.4821159,44.3315858" id="Fill-27" fill="#FEFEFE"></path>
                <path d="M18.6293568,43.3825 C18.5253568,43.4485 18.4323568,43.5295 18.3453568,43.6175 C18.4923568,43.5595 18.7333568,43.4325 18.6293568,43.3825" id="Fill-29" fill="#FEFEFE"></path>
                <path d="M17.4637846,44.4895576 C17.4687846,44.4985576 17.4757846,44.5075576 17.4787846,44.5165576 C17.5777846,44.4795576 17.5327846,44.4785576 17.4637846,44.4895576" id="Fill-31" fill="#FEFEFE"></path>
                <path d="M17.609,44.613 C17.564,44.519 17.471,44.435 17.391,44.353 C17.407,44.457 17.434,44.556 17.483,44.647 C17.516,44.632 17.565,44.62 17.609,44.613" id="Fill-33" fill="#FEFEFE"></path>
                <path d="M16.3783687,42.8449264 C16.37765,42.8394792 16.3780093,42.8364529 16.37765,42.8316109 C16.4649659,42.8134535 16.5673733,42.7626127 16.6704995,42.6905881 C16.5835429,42.80498 16.4649659,43.0392111 16.3783687,42.8449264 M16.7229608,42.6506417 C16.8253683,42.5719595 16.9241825,42.4793565 17,42.3861483 C16.9385555,42.400069 16.8825009,42.4188317 16.7725476,42.2154683 C16.7064319,42.3238078 16.6546892,42.7892436 16.5055695,42.6373263 C16.4937118,42.6058534 16.4854474,42.5792225 16.4786202,42.5550125 C16.5019763,42.5416971 16.5256917,42.5253554 16.5486885,42.4963035 C16.5156306,42.5071979 16.4893999,42.4956982 16.4646065,42.4769355 C16.4570607,42.3528597 16.539346,42.3280445 16.5806683,42.1967056 C16.4552641,42.3443862 16.337765,42.073235 16.1713978,42.0332886 C16.1448078,42.0157365 16.1153432,42.0030262 16.0812073,42 L16.0880345,42.0369201 C16.0700683,42.0417621 16.052102,42.0441831 16.0326985,42.0568933 L16.1246856,42.2305995 L16.1358246,42.2899139 C16.1333094,42.2899139 16.1311534,42.2905191 16.1282788,42.2899139 C16.0894718,42.2687302 16.0424003,42.1737062 16,42.2299943 C16.0222781,42.2408888 16.0424003,42.2596515 16.0614445,42.2808351 C16.042041,42.2820456 16.0244341,42.2887034 16.014373,42.3207815 C16.0424003,42.314729 16.0707869,42.3201763 16.0980956,42.331676 C16.1685232,42.4545414 16.1850521,42.648826 16.0578512,42.7759281 C16.136184,43.0331586 16.6126482,43.0410268 16.891484,42.9387399 C16.8329141,42.9115037 16.7768595,42.8897148 16.7229608,42.6506417" id="Fill-35" fill="#FEFEFE"></path>
                <path d="M17.4367267,42.8590444 C17.4574718,42.9122867 17.4565698,42.9573379 17.4547659,43 C17.4885894,42.9587031 17.5278246,42.9197952 17.5729225,42.8843003 L17.5593931,42.8883959 L17.5598441,42.8894198 L17.5571382,42.8887372 C17.5305304,42.8962457 17.5151971,42.8976109 17.5318834,42.887372 C17.5296285,42.8863481 17.5291775,42.8819113 17.5291775,42.8819113 C17.5030207,42.8764505 17.4813737,42.8686007 17.4601777,42.8604096 C17.5170011,42.7945392 17.5124913,42.856314 17.5291775,42.8819113 L17.5571382,42.8887372 L17.5593931,42.8883959 L17.5237658,42.6610922 C17.5706676,42.6706485 17.6202753,42.6788396 17.6653733,42.7136519 C17.5562363,42.465529 17.7893926,42.7720137 17.8529807,42.5720137 C17.8976277,42.6174061 17.9183727,42.6614334 17.9368629,42.7030717 C17.9490393,42.6535836 17.9670785,42.6051195 17.9918824,42.5580205 L17.9815098,42.565529 L17.9824118,42.5668942 L17.9792549,42.5668942 C17.9580589,42.58157 17.9449805,42.5870307 17.955353,42.5726962 C17.9530981,42.5720137 17.9503923,42.5679181 17.9503923,42.5679181 C17.9233335,42.5699659 17.8989806,42.5686007 17.8755297,42.5668942 C17.8971767,42.4870307 17.9219806,42.5477816 17.9503923,42.5679181 L17.9792549,42.5668942 L17.9815098,42.565529 L17.8272749,42.3474403 L17.9233335,42.3761092 L17.8196082,42.3098976 C17.8394513,42.2498294 17.8931179,42.1962457 18,42.1017065 C17.9693334,42.0798635 17.9418237,42.0645051 17.9165688,42.0525597 L17.8647062,42 L17.824569,42.0228669 C17.802471,42.0194539 17.780824,42.0177474 17.7614319,42.0187713 L17.8060789,42.2883959 L17.7754123,42.2737201 L17.7848828,42.287372 L17.671236,42.2139932 L17.7289614,42.31843 L17.8123926,42.3430034 C17.8069808,42.3976109 17.8272749,42.4607509 17.8746277,42.5668942 C17.802922,42.5614334 17.7424908,42.5433447 17.6856674,42.5266212 C17.7194908,42.5133106 17.7573731,42.4989761 17.802922,42.4822526 C17.7402359,42.3829352 17.6798046,42.3549488 17.6234322,42.3399317 L17.5652559,42.5 C17.5052756,42.4938567 17.4443934,42.5017065 17.3722367,42.543686 C17.3992954,42.621843 17.4461973,42.6433447 17.4998638,42.656314 C17.47506,42.7020478 17.4646875,42.7631399 17.4588247,42.8600683 C17.27708,42.7921502 17.2297272,42.6546075 17.0028845,42.7017065 C16.9767277,42.8576792 17.1354725,42.8327645 17.1959037,42.9365188 C17.2085312,42.6812287 17.2847467,43.0225256 17.4367267,42.8590444" id="Fill-37" fill="#FEFEFE"></path>
                <path d="M17.4625,44.445 C17.3125,44.778 17.5985,44.751 17.7605,44.824 L17.6635,44.176 L17.2395,44.422 L17.4625,44.445 Z" id="Fill-39" fill="#FEFEFE"></path>
                <path d="M28.584,18.5583862 C28.507,18.4663862 28.443,18.4153862 28.416,18.4553862 L28.584,18.5583862 Z" id="Fill-41" fill="#FEFEFE"></path>
                <path d="M23.0872734,32.675 C23.5412734,32.642 24.1852734,32.692 23.7892734,32.485 L23.3782734,32.325 C23.3462734,32.525 23.2302734,32.621 23.0872734,32.675" id="Fill-43" fill="#FEFEFE"></path>
                <path d="M25.6265,24.6875 C25.5965,24.5735 25.5625,24.4485 25.5265,24.3165 C25.4785,24.3155 25.4255,24.3135 25.3735,24.3125 C25.4645,24.4465 25.5485,24.5715 25.6265,24.6875" id="Fill-45" fill="#FEFEFE"></path>
                <path d="M25.713,23.426 C25.588,23.441 25.448,23.487 25.287,23.574 L25.713,23.426 Z" id="Fill-47" fill="#FEFEFE"></path>
                <path d="M28.725,14.5721831 L28.275,14.4101831 C28.291,14.6871831 28.507,14.5571831 28.725,14.5721831" id="Fill-49" fill="#FEFEFE"></path>
                <path d="M19.3425959,38.6655 C19.5695959,38.5285 19.6995959,38.4485 19.7685959,38.3345 C19.4525959,38.4295 19.0265959,38.4635 19.3425959,38.6655" id="Fill-51" fill="#FEFEFE"></path>
                <path d="M30.5915,19.6275 C30.5645,19.4825 30.5005,19.4025 30.4085,19.3725 C30.4315,19.5175 30.4835,19.6145 30.5915,19.6275" id="Fill-53" fill="#FEFEFE"></path>
                <path d="M19.5719567,38.256 C19.5169567,38.268 19.4759567,38.293 19.4309567,38.306 C19.4429567,38.462 19.4439567,38.608 19.3519567,38.744 C19.5929567,38.667 19.7489567,38.57 19.5719567,38.256" id="Fill-55" fill="#FEFEFE"></path>
                <path d="M19.5212916,3.5335 C19.5112916,3.5095 19.4962916,3.4935 19.4902916,3.4665 C19.4642916,3.5195 19.4852916,3.5315 19.5212916,3.5335" id="Fill-57" fill="#FEFEFE"></path>
                <path d="M16.3245,1.53024294 C16.4085,1.49724294 16.5465,1.49224294 16.6755,1.48824294 C16.6115,1.45924294 16.5055,1.45824294 16.3245,1.53024294" id="Fill-59" fill="#FEFEFE"></path>
                <path d="M18.4936674,40.4584257 C18.4796674,40.6254257 18.5336674,40.4954257 18.4936674,40.4584257" id="Fill-61" fill="#FEFEFE"></path>
                <path d="M18.5255272,34.506 L18.5345272,34.494 C18.4345272,34.496 18.4535272,34.497 18.5255272,34.506" id="Fill-63" fill="#FEFEFE"></path>
                <path d="M18.411,40.5875 C18.478,40.5395 18.539,40.4815 18.589,40.4125 C18.548,40.4385 18.491,40.4905 18.411,40.5875" id="Fill-65" fill="#FEFEFE"></path>
                <path d="M18.5313455,40.4257585 C18.5013455,40.4777585 18.4773455,40.5177585 18.4553455,40.5557585 C18.5203455,40.5927585 18.5693455,40.5857585 18.5313455,40.4257585" id="Fill-67" fill="#FEFEFE"></path>
                <path d="M18.5545,40.3755 C18.5375,40.4685 18.4955,40.5495 18.4455,40.6245 C18.4815,40.6005 18.5085,40.5925 18.5205,40.6045 C18.5275,40.5565 18.5375,40.4875 18.5545,40.3755" id="Fill-69" fill="#FEFEFE"></path>
                <path d="M27.5669102,7.52825431 C27.5719102,7.51125431 27.5709102,7.49625431 27.5789102,7.47525431 C27.3379102,7.46025431 27.4049102,7.49625431 27.5669102,7.52825431" id="Fill-71" fill="#FEFEFE"></path>
                <path d="M22.483,28.486 C22.483,28.495 22.49,28.505 22.491,28.514 L22.517,28.5 L22.483,28.486 Z" id="Fill-73" fill="#FEFEFE"></path>
                <path d="M22.0179795,27 C22.2893836,27.4247714 22.1738014,27.5012469 22,27.5918537 L23,28 L22.0179795,27 Z" id="Fill-75" fill="#FEFEFE"></path>
                <path d="M30.2883306,11.6548958 C30.0861192,11.6251382 29.8350981,11.6096642 30.0664686,11.4108828 C29.9663137,11.4215956 29.8617215,11.3912427 29.7634683,11.4025507 C29.6107004,11.6054981 29.8243219,11.7965424 29.8522132,11.9060507 C29.8528471,11.8620094 29.8566504,11.8090407 29.8927822,11.7745218 C30.0652008,11.8881961 30.2426904,12.0072269 30.4075023,12.1345898 C30.3092491,12.2256483 30.2071925,12.1845827 30.1083054,12.1464928 C30.157749,12.2298144 30.3086152,12.2684994 30.3612282,12.398838 C30.1095732,12.4030041 29.8566504,12.4488309 29.707052,12.2899249 C29.8255897,12.4089556 29.9415919,12.5315573 30.0506213,12.6589202 C29.9479308,12.7023664 29.7881901,12.9070993 29.689303,12.8642483 C29.5739347,13.0945728 30.2293787,13.3784611 30.0499874,13.7028199 C30.0994309,13.7171036 30.1476067,13.7480516 30.1831046,13.8135185 C30.1311255,14.1128808 29.8243219,14.3503472 30.1393661,14.7127958 L29.6785269,14.872297 C29.7558616,15.1490435 30.2636089,14.651495 30.38595,15.1234519 C30.4848371,15.4662605 29.9929371,15.2026073 29.8553826,15.2990222 C30.0601296,15.4751878 30.4632847,15.8364461 30.0411129,16.0667706 C29.9802593,15.9548817 30.063933,15.8923905 30.0455501,15.7953805 C29.9536358,15.8566813 29.8547487,15.9150064 29.7577633,15.971546 C29.4173635,15.638855 29.5758364,15.4864957 29.2024742,15.6251665 C30.0588619,15.8037126 29.109926,16.4440981 29.9276463,16.6738274 L29.7108553,16.7720278 C29.7317738,16.7333428 29.6854997,16.7142979 29.7057842,16.676208 C29.2202232,16.8404705 30.2458599,17.0452033 29.9967405,17.3814652 C29.8877111,17.489188 29.7387466,17.5362052 29.6728218,17.4195551 C29.7076859,17.5338246 29.7393805,17.6492844 29.76537,17.7647442 C29.7159265,17.8397336 29.5853448,17.7689103 29.6335205,17.6957064 C29.5948532,17.8415191 29.5637925,17.9909026 29.5168845,18.135525 L29.4953322,18.1230268 C29.5916837,18.2307496 29.7190959,18.4467904 29.7679056,18.549752 C29.6043615,18.6086722 29.7108553,18.4598838 29.5992904,18.4456001 C29.6278155,18.5509423 29.6461984,18.6533088 29.6690185,18.7598413 C29.4186313,18.7592461 29.3286187,18.4848803 29.4300413,18.3414482 C28.5501997,18.2027774 29.5359012,18.6223608 28.8417899,18.8461386 C28.8481288,18.7622219 28.858271,18.6818762 28.8601727,18.5979595 C28.354961,18.5128525 28.4265908,18.743177 28.0316763,18.8074536 C28.2009254,18.847924 28.9584259,18.7241321 29.0142084,19.0520618 C28.9191246,19.0895565 28.8430576,19.1597846 28.9089824,19.3668981 C28.6427479,19.2228709 28.6389445,19.3686836 28.5457624,19.5394927 L28.2123354,19.3228567 C28.1869798,19.5644892 28.3701744,19.6543574 28.4513126,19.854329 C28.278894,20.0376364 27.9854022,19.9209863 27.7299439,19.834689 C27.4529332,20.1286949 28.3074192,19.8638515 28.1090111,20.2887913 C27.793333,20.4822162 27.8034753,20.755987 27.7869941,21.2035426 C27.5397764,21.3231685 27.60063,21.0452317 27.4561027,21.054159 L27.6145756,21.3862548 C27.5803454,21.4237495 27.5049123,21.360068 27.4675127,21.3279297 C27.4763872,21.5332578 27.8009397,21.5445657 27.7419878,21.8230976 C28.0779504,22.1087714 26.880529,21.9516508 27.120774,22.4843134 C26.9768806,22.4938359 26.933142,22.3260026 26.787347,22.2676775 C26.8101671,22.8146238 26.769598,22.7146379 26.9363115,23.2514666 L26.5318886,23.3829956 C26.9210981,23.3413348 27.056117,23.7722262 27.1588075,24.139436 C27.3293243,24.1441973 27.477655,24.1501488 27.5562575,24.1412215 L27.5042784,24.5988947 C27.4199708,24.6072269 27.3261549,24.5018847 27.2215627,24.3596429 C27.2342406,24.4007085 27.2462845,24.4393935 27.260864,24.4727221 C27.0497781,24.5215247 26.8957424,24.3388125 26.7651607,24.1358651 C26.8615123,24.1358651 26.9623011,24.1364603 27.0611882,24.1364603 C26.9115897,23.926371 26.7360017,23.7085447 26.523648,23.6067734 C26.5477359,23.6531954 26.5515393,23.7168769 26.5388614,23.7763922 C26.4976585,23.7198526 26.4564555,23.6752161 26.4158864,23.6656936 C26.371514,23.6561712 26.4222254,23.7371121 26.4716689,23.8460252 L26.0361853,23.6978319 L26.1750076,23.8073402 L25.6273252,24.1209863 C25.7908693,24.6762647 26.1648653,25.2964149 25.9727962,25.9076378 C25.7800931,25.6130367 25.534777,25.6082755 25.207055,25.4041377 C25.6533148,25.4713901 25.3293961,24.9143262 25.581685,24.6881678 C25.4504694,24.8060082 25.3129149,24.6810259 25.2824881,24.6125833 L25.2780509,25.2815361 C25.0137181,25.1095366 25.0054775,25.2624911 24.8089711,25.3208162 C25.4099004,25.5451892 24.926241,25.8903783 24.9598373,26.183194 C24.7709376,26.0879694 24.6188036,25.9320391 24.8222828,25.7201644 C24.241638,25.7427802 25.2241701,26.4331586 24.7075484,26.4867224 C24.7424124,26.4260167 24.7905882,26.4111379 24.7145212,26.334363 C24.7829815,26.5646875 24.4337072,26.8211988 24.3291151,26.6503897 L24.3639791,26.5902792 C24.0419621,26.9384441 23.5716145,27.7633272 23.989983,28.0900666 C23.9284955,28.0591186 23.4733613,27.7151197 23.3966604,27.6371546 L24.4736424,29.2315715 C24.1211986,28.9399462 23.0315388,28.6239195 23.0239321,28.1721978 C22.9060283,28.2317132 22.7653043,28.3072977 22.7741788,28.5828539 C22.8717981,28.5530962 23.446104,28.7602097 23.4245517,28.8667422 C22.8299613,28.8459119 23.0822502,28.892929 22.5149171,28.9649426 C22.6626139,28.9203061 23.2083946,29.3857163 23.0904907,29.5231968 C23.013156,29.446422 22.4737142,29.1797931 22.4458229,29.0875443 L22.8046056,29.8124415 C22.7570637,29.6565113 22.3025634,29.4964149 22.0762641,29.4797506 C22.2201575,29.5101034 21.8525003,29.7945869 21.8467953,29.9284965 L22.0914775,29.852912 C21.7219186,30.2189316 22.6683189,30.7629021 22.363417,31.1604648 C22.2715027,31.037268 21.6743768,30.588522 21.4588536,30.7563554 C21.7054375,31.0342922 22.6702206,32.0520051 22.6695867,32.5566955 L22.4464568,32.5251523 L22.4654736,32.9239053 C22.1098603,32.4793255 21.4480774,31.4169761 21.2433304,30.9247839 C20.999916,31.0009636 21.0049872,30.8474139 20.8667988,31.0926173 C20.6449367,31.080119 20.6981836,30.8182514 20.7343154,30.7426669 L20.2652356,31.2312881 C20.6449367,31.4163809 20.3552482,31.8633414 20.672194,32.0157007 L20.6855058,31.2003401 C21.0626713,31.3854329 21.4911821,32.1400879 21.1742362,32.4924189 C20.965052,32.5090832 20.5745747,32.047839 20.4484303,31.985943 C20.5403446,32.1085447 20.4465286,32.4936092 20.3343298,32.4787303 L20.2468527,32.2019838 C19.9685743,32.341845 20.4997755,32.8316565 19.9831538,32.8977186 C19.9020157,32.9750886 19.3397537,32.9036701 19.5451346,33.0411506 C20.0573191,33.1274479 21.3644037,33.8273487 21.6147909,34.1017146 C21.5672491,34.1171886 20.9143406,34.3481083 20.6424011,34.3368003 C20.2202293,34.3034717 20.0028044,33.6761797 19.6414862,33.646422 C19.7378377,33.7077228 19.8094675,33.859487 19.8272164,33.9166218 C19.6820552,33.9648292 19.5419652,33.7035568 19.4563898,33.9380473 C19.806298,34.1796798 19.1584607,34.3457276 19.7093126,34.2112229 C19.6877603,34.4736857 19.4969589,34.3856029 19.3632077,34.6343772 C19.6509946,34.6897265 20.0509802,35.2979736 20.0370346,35.5574607 C19.9489236,35.4943744 19.7967896,35.4741392 19.7264277,35.4664022 C19.4392747,35.8663455 19.1331051,36.0056114 18.9125108,36.418053 C18.8003119,36.4126966 18.5847888,36.5745784 18.4580104,36.4126966 C18.4966778,36.5067309 18.6031716,36.6198101 18.5499247,36.7572906 C18.080211,36.8888196 18.6399373,36.4305512 18.1321901,36.4680459 C18.3458116,36.5823154 18.2925647,36.9513108 18.3698995,37.1929432 C18.7578412,37.2596004 18.6038055,36.7846677 18.5645042,36.5281564 C19.0462619,36.7388409 19.4177224,37.2494828 19.4975928,37.7422701 C19.4956911,38.113646 19.1166239,37.7833357 19.1654335,37.8636815 C18.8560944,38.4951396 19.8665177,38.6677342 19.3365843,39.1069576 C18.9562493,39.2319399 18.6982554,38.9659062 18.4542071,38.9349582 L18.4326548,38.8468754 C18.4649832,38.5939351 18.7717868,38.520136 18.8218643,38.3439705 L18.589226,38.5403713 C18.5055523,38.4171744 18.4935084,38.2011336 18.6215545,38.1237636 C18.5492908,38.1428086 18.4916067,38.20649 18.4383598,38.2874309 C18.4218786,38.1933966 18.3838451,38.1088848 18.3122154,38.055321 C18.331866,37.8946294 17.8894096,37.7726229 18.1480374,37.8398753 L17.8152443,37.4060082 L17.8818029,37.3804166 C17.7436145,36.8769165 17.0830994,36.5644608 17.2542502,35.7735015 C17.1040178,35.6473289 16.9385721,35.5336545 16.8669423,35.2444098 L17.0545743,35.0837183 C16.8694779,34.9361202 16.9373043,34.4195267 16.6672665,34.459402 C17.1217668,33.9469746 16.2520674,33.5232252 16.1576176,33.154825 L15.874268,33.298257 C15.7538286,33.077455 15.5452782,32.9179538 15.2669998,32.7179821 L15.0343615,32.8715318 C14.6907922,32.7578574 14.832784,32.1942468 14.5766917,31.8526286 C14.6857211,31.8234661 14.7193174,31.927618 14.7047379,32.0234377 C14.9773113,31.2830665 13.7241075,31.3568655 13.8705364,30.7444523 C13.7190363,30.6998158 13.7038229,30.6135185 13.7203041,30.511152 C13.7272769,30.5200794 13.7367853,30.5254357 13.7488292,30.5272212 C13.7450259,30.5159133 13.7367853,30.5016296 13.7260091,30.4867507 C13.7399547,30.4200935 13.7596054,30.3486751 13.767846,30.2790421 C13.7355175,30.3534363 13.7120635,30.4194984 13.7114296,30.4659204 C13.6581827,30.3950971 13.5548584,30.3010628 13.422375,30.2266686 L13.650576,30.0290775 C13.6410676,30.0219357 13.6366304,30.0147938 13.6264881,30.0082471 C13.6512099,29.845175 13.4470968,29.9933683 13.2892578,30.1641774 C13.2106552,30.1344197 13.1257137,30.1135893 13.0369689,30.1112087 C13.3976532,29.7803032 12.7067113,29.907071 13.0743685,29.5279581 C12.808134,29.5815219 12.5469706,29.0750461 12.0506335,29.2851353 C12.1076837,29.2464503 12.1152904,29.1976477 12.1577611,29.2541873 C12.1298699,29.101828 12.1007109,28.9506589 11.8991333,28.9173303 L12.193893,28.6727221 L11.5752147,28.6673657 C11.6677629,28.3888338 11.7393926,28.2537339 12.0994431,28.2644466 C11.4528736,28.1079212 11.7438299,28.0370979 11.1390972,27.9365169 L11.362861,27.8276038 C11.2760178,27.7151197 10.8658899,27.6960748 10.993936,27.5216948 C11.2227709,27.0205753 10.180653,26.1933116 10.1026844,25.2993907 C9.566412,25.8011053 10.1724124,24.8214822 9.67037024,25.0827547 C9.79144355,24.955987 9.81109419,24.8125549 10.0133056,24.8446932 C9.63677398,24.5887771 9.89920513,24.1906192 9.33187209,24.1977611 C9.45357929,24.069803 9.5974727,24.1418166 9.66212965,24.054329 C9.61141831,24.0459969 9.4605521,24.0221907 9.52394126,23.934108 C9.58859821,23.8472155 9.68178029,23.9103018 9.78256906,23.926371 C9.5214057,23.5912994 9.04218359,23.8275755 8.59909332,24.0567096 C8.68086534,23.7591328 8.59212051,23.6877143 8.22636502,23.7269945 C8.32461823,23.5823721 8.40068523,23.3919229 8.59719164,23.5793963 C8.53570415,23.4448916 8.29672699,22.711067 7.9461849,22.9033017 C8.0070385,22.8134335 7.85553839,22.7176137 7.79468479,22.7086864 C7.62923907,22.4230126 7.64318468,22.3801615 7.42829541,22.1313873 L7.42322427,22.2391101 C6.93956493,22.3795664 7.17980987,22.0706816 6.98266956,21.8838033 L7.02957755,21.8647584 C6.98837459,21.189854 6.74115684,21.73561 6.74686186,21.0422559 L6.5085186,21.2231827 C5.92660605,21.5076661 6.53831151,20.5941051 6.13388862,20.4363894 L6.05782162,20.6268386 C5.76369589,20.5845827 6.51168806,19.7436304 6.47492234,19.5466345 C6.49964411,19.4835482 6.58775506,19.5537764 6.65621536,19.5799632 C6.7138995,18.9883803 6.28285316,19.7275613 6.01725255,19.4883095 C6.16811877,19.3335695 6.52436589,19.2835766 6.44386165,19.0871759 C6.54021318,18.9312456 5.511407,18.8651835 5.74277746,18.4200085 C5.62360583,18.5438005 5.50696976,18.6723537 5.32187339,18.5848661 C5.15706156,18.3842993 5.62994474,17.7837891 5.06768283,17.7671248 C5.09874353,17.7242738 5.13487535,17.6998725 5.17290885,17.6855888 C4.98274135,17.5635823 4.75897759,17.2094658 4.45914683,17.1761372 C4.93266391,16.9529545 4.73298803,16.7279864 4.53394605,16.5042086 C4.33743963,16.2822162 4.14346878,16.0655803 4.61825364,15.9846394 L4.47309245,15.4525719 L4.57324733,15.4537622 C4.59036241,15.1032167 4.34631412,15.0050163 4.10670307,14.895508 C4.16565499,14.8080204 4.26073874,14.8621794 4.31145007,14.86456 C4.4692891,14.3348732 4.42872003,14.3080913 3.94886404,13.8611308 L4.26327431,13.8206603 C4.07881183,13.6855604 4.77989602,13.1142128 4.49654644,12.592263 C4.5301427,12.6011903 4.58909463,12.6202352 4.62776202,12.6642766 C4.48323472,12.3631288 4.76087927,12.061981 4.94977898,11.8138019 C5.13043811,11.5596712 5.2299591,11.3477965 4.70763237,11.0936659 L4.56120339,10.6508715 C4.31208397,11.1049738 4.11430977,10.4342355 3.86455645,10.5788579 C3.86582423,10.3550801 4.37610702,10.1824855 4.33934131,10.4354258 L4.2715149,10.4538756 C4.80208223,10.7205045 4.69939178,9.93133059 5.07909288,10.0884512 C5.44358059,9.1784611 6.22897237,8.5196259 6.8051799,7.85067309 L6.36779465,7.67153181 L6.5921923,7.43466062 C6.73228236,7.43168485 6.94653774,7.56023806 6.79186817,7.72271503 C7.06761105,7.78223041 6.86349793,7.30789287 6.79250206,7.23945019 C7.2311551,7.018053 7.09296671,7.69414765 7.1931216,7.59713759 L7.28566978,7.44120731 L7.21720948,7.4388267 C7.16839982,7.21326343 7.03084533,7.07994899 7.23939569,6.89485617 C7.42829541,6.82879411 7.50879965,7.01388692 7.56965325,6.97758254 C7.59310724,6.99900808 7.62036458,6.99365169 7.65332695,6.91568655 L7.96837111,6.67226867 L7.59564281,6.53478815 C7.59881227,6.2883945 7.89864303,6.28958481 7.46632891,6.13365453 C7.7940509,6.25447074 8.11923733,6.04616693 8.41843419,5.81941335 C8.71509549,5.59146946 8.9883028,5.3438855 9.11888449,5.36828681 C9.17783641,5.0171461 9.40603741,4.87311889 9.70206482,4.72492561 C9.59113378,4.7082613 9.31856036,4.4136602 9.59366935,4.30058098 C9.96639765,5.02131217 10.2440422,4.3184356 10.7644673,4.69397761 C10.3720883,4.4701998 11.4192774,4.215474 10.8437037,3.90956497 C11.0902876,3.84826413 11.0186578,4.15952955 11.2785534,4.23332861 C11.4465347,3.96312881 11.7533383,3.85600113 12.0905686,3.76494261 C12.4049789,3.68935808 12.7193892,3.65245855 12.9989354,3.48462519 C12.9653391,3.38463937 12.7922867,3.278702 12.860747,3.08289641 C13.0452095,3.20133201 13.2188958,3.31679184 13.3944838,3.44355959 C13.4933709,3.35488168 13.2835527,2.83828822 13.6404338,3.10075103 C13.5783124,3.02814227 13.4819608,2.92041944 13.5554923,2.85971376 C14.2724237,2.89661329 14.8872987,2.64129233 15.5585899,2.48357659 C16.2178373,2.32764631 16.9423755,2.27824855 17.5788027,2.76448916 C17.4076519,2.56094658 17.5217524,2.5413065 17.6574053,2.53416466 C17.6022567,2.50321666 17.6200056,2.40680176 17.6358529,2.30503047 C17.6675475,2.27765339 17.6986082,2.24194417 17.7303028,2.19671248 C17.7499534,2.21099617 17.7670685,2.22587502 17.7860853,2.24015871 C17.7740413,2.31157716 17.6890998,2.37049738 17.7245978,2.46869775 C17.7638991,2.38537622 17.8089054,2.33359785 17.8583489,2.29550801 C17.9673783,2.38121015 18.0795771,2.46572198 18.1829014,2.54963866 C18.2348806,2.40323083 18.3312321,2.37228284 18.4364581,2.37049738 C18.9632221,2.4216806 19.2529106,2.66688395 19.8722227,2.92458552 L19.8779278,2.63831657 C20.034499,2.70675925 20.0490785,2.79841292 20.1067627,2.88530537 C20.397085,2.50619243 19.654164,2.76806008 19.9286391,2.34312031 C20.0192856,2.93113221 21.1045081,2.62046195 21.0341462,3.29834207 C21.2712217,3.37452175 21.0715458,2.96624628 21.3124246,3.04421142 L21.3155941,3.23049454 L21.4556841,3.03647442 C21.6008453,3.12693779 21.5957742,3.36023806 21.544429,3.50188465 C21.5140022,3.47212697 21.4246234,3.50486042 21.3808849,3.50307496 C21.4994227,3.76077653 21.9494857,3.63757971 21.9894209,3.72685277 L21.8189041,3.54235511 C22.1669106,3.58223041 22.4870259,3.75125407 22.8090428,3.90539889 C23.1767,4.09049171 23.545625,4.25237353 23.9525834,4.27022814 L23.9773052,4.1291767 C24.5858412,4.1833357 24.2777698,4.46484342 24.8470046,4.66600538 L24.8102388,4.68147938 C24.9870946,4.62970101 25.1607809,4.65529262 25.2881932,4.75289783 C25.0720361,4.80586652 25.3433417,5.15046054 25.0790089,5.19271645 C25.7141684,5.27901375 25.4358899,5.16950546 26.0583715,4.97608049 L25.9930807,5.20461953 C26.2231834,5.11772708 26.3030537,5.03559586 26.5775288,5.16355392 C26.2618508,5.17426669 26.5078007,5.53731047 26.131903,5.58135185 C26.2834031,6.29910727 27.1670481,5.74263851 26.8754579,6.44432478 C27.5220274,6.16579283 26.7264934,5.86643049 26.9337759,5.86583534 C26.9699078,5.63074961 27.4313809,5.66526853 27.5353391,5.83786311 C27.676697,5.97950971 27.2126883,6.62287091 27.5429458,6.92461386 C27.512519,6.89069009 27.4744855,6.92104294 27.4440587,6.88830948 C27.4440587,7.10970667 27.8427766,6.98472439 27.7869941,7.30134618 C28.1628919,7.14898682 27.9473687,7.51619668 28.3574966,7.24302111 C28.2307183,7.15969959 28.1115466,7.07161683 27.9815989,6.99543715 C28.2395928,7.08649568 28.8614405,6.91390109 28.8956706,7.40490293 C28.7948819,7.43704124 28.6123211,7.41799632 28.5026578,7.39776109 C28.4589193,7.5739266 28.7226182,7.51798215 28.6782458,7.69831373 C28.2548062,7.95303954 28.2668501,7.35610033 27.7990381,7.40133201 C27.7134627,7.61677767 28.396164,7.54059799 27.8877829,7.7655661 C28.5463963,7.50905484 28.0956994,8.14705966 28.7010659,8.1065892 L28.4411703,8.25002126 C28.507095,8.26311464 28.6877542,8.26728071 28.7308588,8.34524586 L28.3137581,8.42023523 C28.7327605,8.44582684 28.3334087,8.94397053 28.6028127,9.04395636 C28.3397476,8.64817911 28.8563694,8.77851778 28.9292669,8.49641491 C29.6087988,8.82732039 28.4513126,9.16417741 28.8905995,9.65994048 C28.8107292,9.60280572 28.8899656,9.29154031 29.080767,9.352246 C29.0883737,9.49032167 29.0655536,9.68434179 28.9546226,9.81706107 C29.203742,10.1783194 29.2043759,9.63375372 29.4547631,9.72600255 C29.1904303,10.0039394 29.6880352,9.86169761 29.8775688,10.0057248 L29.595487,10.1176137 C29.6164055,10.649086 30.2433243,10.0223891 30.198318,10.5383874 L29.7279704,10.4919654 L29.9187718,10.6788437 L29.5720331,10.74193 C29.9029245,10.8996457 29.8674266,11.001417 29.8496776,11.2626895 C30.0398451,11.1496103 30.3910211,11.1478249 30.4664542,11.3698172 C30.3320692,11.5632422 30.1666234,11.3543432 30.2883306,11.6548958 M29.022449,19.0484909 C29.0008967,18.9604081 28.8925012,18.7592461 29.0769637,18.7967408 C29.3482693,19.0163526 29.1676102,18.9961173 29.022449,19.0484909 M26.33665,24.3239337 C26.2834031,24.2257333 26.3746835,24.178121 26.5280853,24.1543149 C26.5090685,24.2269236 26.453286,24.2882245 26.33665,24.3239337 M19.7232582,39.2253932 L19.7112143,39.2140853 C19.8715889,39.0914836 19.8107353,39.1337395 19.7232582,39.2253932 M18.3863807,40.8144537 C18.3971568,40.8215956 18.4085669,40.8287374 18.419343,40.8364744 L18.3122154,40.8299277 C18.3356693,40.8329035 18.3616589,40.8245713 18.3863807,40.8144537 M18.2063554,39.7771008 C18.267209,39.7866232 18.3096798,39.8235227 18.3439099,39.8675641 C18.2938325,39.8425677 18.2462906,39.8157857 18.2063554,39.7771008 M17.8589828,39.3890605 C17.8722945,39.2849086 17.9401209,39.32895 18.015554,39.3378773 C17.9946356,39.3842993 17.9730833,39.429531 17.9502632,39.4729772 C17.9204703,39.4402437 17.8919452,39.40632 17.8589828,39.3890605 M18.127119,38.4683577 C18.191142,38.2695763 18.1638847,38.3409948 18.1442341,38.4725237 C18.1378951,38.4713334 18.1334579,38.4701431 18.127119,38.4683577 M18.0497842,39.2652685 L17.8564472,39.1670682 C17.998439,39.1218365 18.0884516,38.9909026 18.1784642,38.9171036 C18.1391629,39.0331586 18.09796,39.1515942 18.0497842,39.2652685 M18.513159,40.6269803 C18.5125251,40.6240045 18.5112573,40.6216239 18.5106234,40.6192433 C18.665293,40.5014029 18.7134688,40.4133201 18.7343872,40.3288083 C18.7895358,40.4579566 18.8193287,40.5894856 18.7781257,40.7168485 C18.7445295,40.5900808 18.6874792,40.509735 18.513159,40.6269803 M7.51323689,6.88057248 L7.41054644,6.87224033 C7.44921383,6.71631005 7.47900674,6.79606065 7.51323689,6.88057248 M29.2804429,5.29210713 L29.2772734,5.39744934 C29.0902754,5.33436304 29.1815558,5.31710359 29.2804429,5.29210713 M7.50436241,24.7453025 C7.56521601,24.7917245 7.60198172,24.8649284 7.58676832,24.979198 C7.46886447,24.983364 7.46189167,24.8851637 7.50436241,24.7453025 M3.57613574,20.3173587 C3.47788253,20.2745076 3.21608527,20.2132067 3.34413139,20.0798923 C3.70291407,20.0102593 3.59071525,20.1459544 3.57613574,20.3173587 M32.8042467,15.0210854 C33.0438577,14.4253365 33.0026548,14.3390393 32.5170937,13.8403004 L32.8308701,13.7825705 C32.6514788,13.6617543 33.2917094,12.8571064 32.8277007,12.2845685 C32.8631986,12.2857588 32.9259539,12.2899249 32.9766652,12.332776 C32.7471964,12.0167493 32.8866526,11.5828822 32.9145438,11.202579 C32.9519434,10.8234661 32.8714392,10.5127958 32.2914283,10.5455293 L31.8806665,10.2051013 C31.9789197,10.7627604 31.3817938,10.2711634 31.2753,10.5431486 C31.1491555,10.3651977 31.4103189,9.91823721 31.5630868,10.1473714 L31.5231516,10.2045062 C32.1240809,10.1152331 31.4699047,9.48556044 31.8439008,9.36176846 C31.3672143,8.33512824 31.0623124,7.2096925 30.3751738,6.31993765 L30.0829497,6.67881536 L29.8680605,6.37171603 C29.8896128,6.2330452 30.0664686,6.05449908 30.2255754,6.28006235 C30.3434792,6.01105286 29.7533261,6.05628454 29.6734557,6.11460961 C29.4630037,5.60039677 30.227477,5.9461811 30.1285899,5.81822304 L29.9504664,5.66764914 L29.9434936,5.73906759 C29.677893,5.71526144 29.513715,5.83131642 29.3045308,5.5807567 C29.2278299,5.37245288 29.4395497,5.32007935 29.3939095,5.24985121 C29.4186313,5.22902083 29.408489,5.19926314 29.3108697,5.152246 L28.9774427,4.7868216 L28.8658777,5.16593453 C28.5844298,5.13855746 28.5438608,4.85347882 28.4227875,5.27841859 C28.5267457,4.95525011 28.2224777,4.61898824 27.8827118,4.35533513 C27.5435797,4.0893014 27.1727531,3.8976619 27.1505669,3.76613292 C26.7505812,3.80184214 26.5173091,3.64353125 26.2339595,3.4304662 C26.266288,3.53699872 26.0805577,3.88456851 25.8542584,3.68816778 C26.4139848,3.07575457 25.5810511,3.11027349 25.6856432,2.5002409 C25.6666265,2.93113221 24.8767975,2.15386141 24.8850381,2.78829531 C24.6999417,2.61093949 25.0327348,2.52345189 24.9661762,2.26872609 C24.6188036,2.25741817 24.3557385,2.05804166 24.0888701,1.83069293 C23.79728,1.59263143 23.4625852,1.31945586 23.0632334,1.21768457 C23.0087187,1.30933825 23.0638673,1.50454868 22.8401035,1.58608474 C22.7836872,1.37599547 22.7221997,1.15757404 22.6531055,0.949270228 C22.4787853,0.942723537 22.2911534,1.46645884 22.1497955,1.03080629 C22.1580361,1.1272212 22.1662767,1.27184356 22.0566134,1.26946294 C21.40941,0.78917387 20.590422,0.699305654 19.8024947,0.62253082 C19.0025234,0.545160833 18.2412195,0.471361768 17.4114553,0 C17.6364868,0.201161967 17.4862545,0.221992348 17.3189071,0.230919654 C17.3911708,0.261867649 17.3696184,0.364829248 17.3531373,0.470766615 C17.3182732,0.499333995 17.2834092,0.535638373 17.2498129,0.580274904 C17.2333317,0.571347598 17.2168505,0.563610599 17.2010033,0.554683293 C17.1832543,0.470766615 17.3068632,0.399943319 17.254884,0.29222049 C17.2041727,0.391016012 17.1477564,0.451126541 17.0818316,0.49219215 C16.9398399,0.416607624 16.8010176,0.340427944 16.652687,0.264843418 C16.6279652,0.375542015 16.5601388,0.43029616 16.4758312,0.463029616 C16.1931155,0.485645458 15.9579417,0.470766615 15.7157951,0.445770157 L15.6093013,0.138670823 L15.5433765,0.427320391 C15.2720709,0.397562704 14.9741418,0.366019555 14.5709867,0.371971093 L14.7003006,0.635029049 C14.4987231,0.635624203 14.4366017,0.556468754 14.3288401,0.508856455 C14.2096685,0.970100609 14.8784242,0.4207737 14.7808049,0.924273771 C14.3890598,0.398753011 13.451534,1.21827972 13.0800735,0.663001275 C12.7821444,0.75108403 13.2734105,0.946889613 12.9799186,1.03318691 L12.8417303,0.890350007 L12.8474353,1.12960181 C12.6471255,1.1593595 12.4683681,0.986764914 12.4037111,0.849879552 C12.456958,0.849879552 12.5222489,0.763582259 12.5685229,0.733824571 C12.234462,0.621935667 11.8839199,1.06353975 11.772355,1.03497237 L12.1007109,1.02366445 C11.7349554,1.24863256 11.2905973,1.43551084 10.8696933,1.65928865 C10.4995005,1.86223608 10.1413517,2.09196542 9.90998129,2.4294176 L10.0316885,2.51631005 C9.66783467,3.00612158 9.55056471,2.61272495 9.06690537,3.03171319 L9.06817315,2.9930282 C9.03521079,3.17038402 8.92998477,3.31322092 8.77404742,3.39237636 C8.81968762,3.17693071 8.33666217,3.30072269 8.41526473,3.04540173 C8.03556363,3.60663171 8.27010354,3.38880544 8.22953448,4.01966841 L8.01274353,3.89468613 C8.02288579,4.13810401 8.07740048,4.22499646 7.86187731,4.45413065 C7.94935436,4.15179255 7.47837285,4.30712767 7.55443985,3.93575174 C6.67269654,3.96431912 7.0866278,4.91835057 6.35004568,4.59042086 C6.54845377,5.24151906 7.04352316,4.46543857 7.00232021,4.67671815 C7.24953796,4.7392093 7.1246613,5.17962307 6.92752099,5.26651552 C6.76461083,5.39090265 6.08571285,4.93203911 5.68572721,5.3349582 C5.72756406,5.29805867 5.69523559,5.2641349 5.73770633,5.22723537 C5.46259734,5.26770582 5.61726691,5.66169761 5.23693191,5.6771716 C5.44167892,6.02414624 4.99858864,5.91285249 5.35990689,6.24256766 C5.44104503,6.09735015 5.51584424,5.94558594 5.60522297,5.80274904 C5.50633587,6.0979453 5.78841766,6.62882245 5.28764324,6.81332011 C5.22805743,6.72940343 5.20777289,6.54788154 5.20840679,6.43182656 C5.00619534,6.45146663 5.1234653,6.68833782 4.91428105,6.71154882 C4.53584773,6.39730764 5.20460344,6.17888621 5.12219752,5.72180813 C4.8572308,5.70930991 5.01443593,6.37945303 4.69368675,5.94201502 C5.09874353,6.51514808 4.26517598,6.32410373 4.47562802,6.91747201 L4.24298977,6.73773558 C4.24679312,6.8121298 4.28862997,6.98353408 4.22207135,7.06923622 L4.01415488,6.70381182 C4.11304198,7.12518067 3.42463563,7.04781068 3.4195645,7.39538047 C3.74855427,6.86331302 3.80560452,7.45251523 4.13332652,7.34419725 C4.08578464,8.14110812 3.2522171,7.36383732 2.93590515,8.10301828 C3.01767718,7.98874876 3.29088449,7.87328893 3.32131129,8.06552359 C3.18756015,8.17860281 2.98154535,8.31846394 2.79644899,8.34643616 C2.5980409,8.88147938 3.1152965,8.392263 3.17488231,8.68150772 C2.75524603,8.70769449 3.18819404,8.98563129 3.20213966,9.24333286 L2.91879008,9.13441973 C2.4839404,9.64565679 3.44492016,9.50579566 3.0164094,9.93906759 L2.7045347,9.5825705 L2.70009745,9.8926456 L2.39392778,9.72719286 C2.52514335,10.1140428 2.43132739,10.1830806 2.2398921,10.4622077 C2.46745921,10.4485192 2.76095105,10.6484909 2.69502632,10.9079779 C2.46936089,11.0442681 2.43639852,10.7365736 2.38251773,11.1246139 C2.21580422,10.9978461 2.00852164,10.8431061 2.33053861,10.7455009 C2.23925821,10.7044353 2.17079791,10.6133768 2.08078529,10.5705257 C1.81581858,10.718719 1.89251947,11.0680743 1.86336045,11.2097208 C1.88744834,11.1573473 1.91977681,11.0954513 1.97048814,11.0716452 C2.06176854,11.2906618 2.15178116,11.5043219 2.25764107,11.7144112 C2.12769328,11.7822588 2.05035849,11.6971518 1.97555928,11.6108545 C1.98570154,11.7316707 2.10804264,11.8346323 2.10170372,12.0048463 C1.86526213,11.9233102 1.60916989,11.8959331 1.54261127,11.6293042 C1.59459038,11.8304662 1.65100674,12.0286524 1.71819926,12.2250531 C1.60536654,12.2464787 1.38096889,12.4744226 1.30046465,12.391101 C1.11219883,12.6987955 1.69728084,13.2005101 1.48936437,13.5945019 C1.53627235,13.6177129 1.58001088,13.6617543 1.6161427,13.7486467 C1.55275353,14.1247839 1.25228888,14.4866374 1.62565108,14.9234802 L1.20284533,15.216891 C1.33596258,15.565056 1.72897542,14.825875 1.95400696,15.3930565 C2.14734392,15.7840726 1.59585817,15.588267 1.49189993,15.7489585 C1.74292104,15.9376222 2.24876659,16.2090123 1.97492539,16.6434746 C1.86589602,16.5351566 1.90709898,16.4262434 1.85511986,16.3155448 C1.78982902,16.4250531 1.73087709,16.5351566 1.67129128,16.6470455 C1.19460474,16.3685135 1.29539352,16.0709367 1,16.4131501 C1.83546922,16.3131642 1.34673874,17.5629871 2.20059082,17.3993198 L2.08078529,17.6302395 C2.07191081,17.5748902 2.01993169,17.5790563 2.01295889,17.523707 C1.73277877,17.9944736 2.68741962,17.6320249 2.7267209,18.1069576 C2.72038199,18.2807425 2.6430472,18.4307213 2.50739439,18.3551367 C2.61642375,18.4503613 2.7267209,18.5438005 2.84208919,18.6330735 C2.86807875,18.7378206 2.7191142,18.7651977 2.69249075,18.6592603 C2.78884229,18.8264985 2.87758712,18.9955222 2.98217925,19.157404 L2.95745747,19.1633555 C3.11656428,19.1871617 3.38406656,19.2710784 3.50133652,19.3139294 C3.45062519,19.4900949 3.38723602,19.2865524 3.30609789,19.3609466 C3.4119578,19.4276038 3.5260583,19.4894998 3.63508766,19.5513958 C3.4956315,19.7555335 3.17551621,19.618053 3.11022536,19.4067734 C2.46745921,20.0185915 3.41385947,19.5531812 3.2826439,20.3280714 C3.20150576,20.2560578 3.11402871,20.1852345 3.03479225,20.1102451 C2.70009745,20.4959048 2.97520644,20.6327901 2.90611225,21.0827264 C2.98281314,20.9285816 3.21164803,20.1197676 3.57550185,20.3268811 C3.56662736,20.4405555 3.60656254,20.5685135 3.85885142,20.639932 C3.59515249,20.7857447 3.76503546,20.9160833 3.8987866,21.085107 L3.5488784,21.278532 C3.77264216,21.4023239 3.9368201,21.2832932 4.16375332,21.2987672 C4.26834544,21.522545 4.03253774,21.723707 3.84237024,21.905824 C4.01035153,22.2641066 4.11367587,21.4255349 4.44076397,21.7731047 C4.49464477,22.12246 4.76341483,22.2289925 5.18875614,22.4307496 C5.20016619,22.6908318 4.95738568,22.5229984 4.90604046,22.6497662 L5.29271438,22.6545274 C5.31490059,22.6997591 5.22171851,22.7366586 5.17481053,22.7551084 C5.37638808,22.8330735 5.52408484,22.5616834 5.76813313,22.7289216 C6.18650163,22.5634689 5.52915597,23.51631 6.14403089,23.5359501 C6.09331955,23.6621227 5.91266043,23.6287941 5.79412269,23.7287799 C6.33166282,23.9388692 6.21819621,23.9305371 6.80708157,24.0162392 L6.76207526,24.4149922 C6.88695192,24.0668273 7.35920122,24.1340796 7.75665129,24.2025223 C7.83398607,24.0596854 7.90308027,23.9358934 7.92780204,23.8650701 L8.34680443,24.1037268 C8.31954709,24.1793113 8.17818925,24.2144254 7.99626234,24.2423976 C8.04063476,24.2495395 8.08437328,24.2548958 8.12177289,24.2572765 C8.07993604,24.4572481 7.83842332,24.510812 7.58676832,24.5358084 C7.62797128,24.4536772 7.67044202,24.3685702 7.71291277,24.2840584 C7.44667827,24.3227434 7.1626948,24.379283 6.97442897,24.5173587 C7.02894366,24.5161683 7.09233282,24.5393793 7.14367805,24.5756837 C7.07204829,24.5869916 7.01182858,24.6030608 6.98457124,24.6340088 C6.95668001,24.6667422 7.05746878,24.6578149 7.18297933,24.6625762 L6.85525734,24.9696755 L7.01943528,24.898257 L7.08852947,25.4951963 C7.69262823,25.5916112 8.45012878,25.5386425 8.95724211,25.962392 C8.59021884,26.0004818 8.48118947,26.206405 8.1439591,26.3968542 C8.40068523,26.0469038 7.72432282,26.0855888 7.61465956,25.7749185 C7.6723437,25.9368003 7.49358625,26.0004818 7.41434979,25.997506 L8.05711594,26.2849653 C7.77820361,26.4355392 7.92209702,26.5075528 7.89357189,26.6991923 C8.36645508,26.2855604 8.49069784,26.8432195 8.78672525,26.9402296 C8.61430672,27.0586652 8.39941744,27.1211563 8.28278138,26.8580983 C8.05521427,27.359813 9.14107069,26.8229843 8.97055384,27.2836333 C8.9274492,27.228284 8.93378812,27.1806717 8.82729432,27.2122148 C9.07831542,27.2526853 9.17403306,27.6585801 8.96421492,27.6740541 L8.92174418,27.6181097 C9.11698281,28.0406688 9.7039665,28.792348 10.1996698,28.5810684 C10.1432534,28.6197534 9.61522166,28.8548392 9.50746008,28.8863823 L11.5035849,28.6697464 C11.0706369,28.8399603 10.2909502,29.6219923 9.85673439,29.4327335 C9.86117163,29.5577157 9.87194779,29.7088848 10.1394501,29.8213689 C10.1533957,29.7261443 10.6028249,29.3315573 10.696007,29.3964291 C10.4151929,29.8880261 10.5711303,29.6969817 10.3911051,30.2046479 C10.4126574,30.061811 11.0991621,29.8047045 11.1777646,29.9653961 C11.070003,29.9957489 10.5774692,30.3337962 10.4773143,30.3171319 L11.3273631,30.3326059 C11.1568462,30.3040385 10.8044024,30.6164943 10.6877664,30.7992065 C10.7809484,30.6914836 10.8880761,31.1247556 11.0135867,31.188437 L11.0497185,30.9497804 C11.2348149,31.420547 12.1755101,30.8658637 12.4170228,31.3003259 C12.2585499,31.3223466 11.5644385,31.6234944 11.6271938,31.8788154 C12.000556,31.7948987 13.4033583,31.4419725 13.8851159,31.6734873 L13.7532665,31.8472722 L14.1405743,32.0145104 C13.5573939,32.1055689 12.2490415,32.1799632 11.6893152,32.1335412 C11.6519156,32.3716027 11.5086561,32.2983988 11.6791729,32.5227717 C11.5663402,32.701913 11.3419426,32.5418166 11.286794,32.4787303 L11.5365473,33.0845969 C11.8845538,32.8512966 12.1723407,33.2923055 12.4613953,33.0976902 L11.6988236,32.7215531 C12.0461962,32.4882528 12.9532952,32.4703982 13.141561,32.8959331 C13.0610568,33.077455 12.4468157,33.1929148 12.3301797,33.27088 C12.4880187,33.2488593 12.808134,33.5012045 12.7422093,33.5875018 L12.4411107,33.5345331 C12.4442802,33.8273487 13.1529711,33.6113079 12.9704103,34.068386 C13.0040065,34.1713476 12.6705795,34.6004535 12.8962449,34.4939209 C13.2207975,34.1136177 14.4911164,33.355987 14.8670141,33.2780218 C14.8594074,33.3262293 14.7731982,33.9773275 14.6312064,34.1963441 C14.3973004,34.5272495 13.7095279,34.4094091 13.5073165,34.6927023 C13.6112747,34.6427094 13.7862288,34.6552076 13.8470824,34.6671107 C13.820459,34.8093524 13.5123876,34.8010203 13.686074,34.9801615 C14.0797207,34.8081621 13.9155427,35.4140286 14.0613378,34.9027916 C14.2939761,35.0450333 14.1183881,35.1587077 14.2819321,35.3854612 C14.4778046,35.1771574 15.2359391,35.1497804 15.4666757,35.3003543 C15.3639852,35.3390393 15.2676337,35.4515233 15.2238951,35.5038968 C15.4438556,35.9401445 15.4039204,36.2543857 15.6054979,36.646592 C15.5294309,36.7269378 15.5015397,36.9614284 15.294891,36.9542865 C15.3893409,36.9780927 15.5478138,36.9733314 15.6143724,37.0887913 C15.3753953,37.4470738 15.4375166,36.8507298 15.1059913,37.1869916 C15.3468701,37.1000992 15.5598577,37.3643475 15.774747,37.4958764 C16.1170485,37.3149497 15.6815649,37.0459402 15.4533639,36.948335 C15.9408266,36.7334845 16.6102162,36.8501346 17.0184425,37.2453167 C17.2859447,37.5744367 16.7503063,37.5089698 16.8472917,37.5500354 C16.986114,38.2541023 17.945826,37.8791554 17.7474179,38.5606065 C17.4881562,38.8754428 17.097045,38.7427235 16.8764507,38.8558027 C16.6628292,38.5963157 16.9531516,38.3475414 16.8694779,38.1511407 L16.7946787,38.4397903 C16.6602937,38.3755137 16.5087936,38.2076803 16.5683794,38.0737707 C16.3452495,38.3403996 16.8732813,39.2247981 16.7331912,39.8163809 C16.868844,39.8818478 17.0273169,40.0163526 17.1401497,39.9092249 L17.0482354,39.7538898 C17.2739008,39.5366586 17.5021018,39.9812385 17.5699282,39.7402012 C17.7696041,39.8842284 18.0352047,40.0353975 18.0985939,40.2698881 L18.0326691,40.3692787 C18.0726043,40.3752303 18.0935227,40.401417 18.1081022,40.4317699 C18.1062006,40.4424826 18.1081022,40.4520051 18.1055667,40.463313 L17.7423467,40.6055548 C17.8513761,40.5746068 17.9160331,40.3478532 17.7791125,40.2841717 C17.9350498,40.3597563 17.6168362,40.6769732 17.7157233,40.8334987 L17.6440935,40.9418166 L17.7264994,40.8840867 L17.7372756,40.8555193 C17.7715058,40.8882528 17.8222171,40.9138444 17.9179347,40.9203911 L18.121414,40.6478107 C18.1239495,40.6525719 18.1220478,40.6591186 18.1252173,40.6632847 C18.1258512,40.6585235 18.1258512,40.6484058 18.127119,40.6424543 C18.191142,40.6900666 18.2684768,40.7388692 18.3483472,40.7894573 C18.2634057,40.8579 18.1790981,40.9305087 18.1784642,41.009069 L18.1664203,40.9971659 C17.9192025,41.0673941 18.0358386,41.18702 18.1176106,41.3316423 C18.1144411,41.322715 18.1100039,41.3137877 18.1112717,41.3042653 C18.3077781,41.2899816 18.349615,41.241179 18.3248932,41.1780927 L18.6412051,41.0162109 C18.6786047,41.0900099 18.7318516,41.1703557 18.7857324,41.2536772 C18.7889019,41.2816494 18.7927052,41.3090265 18.7870002,41.3387842 C18.8041153,41.3286666 18.811722,41.3233102 18.8243998,41.314978 C18.9480087,41.5125691 19.051333,41.7202777 18.9340631,41.8833499 C18.9917472,41.876208 19.0291468,41.8696613 19.057672,41.8637098 L19.2028331,42 L19.496325,41.9952388 L19.0659125,41.8613292 C19.2174127,41.8250248 18.9828727,41.7940768 19.3885634,41.7065892 C19.1622641,41.7274196 19.1388101,41.6298144 19.1578268,41.5101885 L19.3105947,41.4917387 L19.1787453,41.4179396 C19.221216,41.2507014 19.2706596,41.0876293 18.940402,41.1644041 C19.4975928,41.0751311 19.2402328,40.8668273 19.7365699,40.7061358 C19.6097916,40.6859005 19.4747727,40.7430353 19.5933104,40.5311605 C19.5597142,40.5121156 19.519779,40.4781919 19.4969589,40.4567663 C19.5026639,40.4508148 19.5045656,40.4484342 19.5102706,40.4436729 L19.4925216,40.4526003 C19.4760405,40.4383166 19.472871,40.4365311 19.4855488,40.4561712 C19.4170885,40.4966416 19.3403876,40.5258042 19.2662223,40.5281848 C19.0088623,40.3502338 19.1166239,39.9913561 19.0018895,39.8336404 C19.0976071,39.7128241 19.1293017,39.9241037 19.2814357,39.882443 L19.110285,39.6467621 C19.3904651,39.6949695 19.6643063,39.40632 19.7397394,39.7592461 L19.8322876,39.4842851 C20.0351329,39.3610883 20.1619112,39.1563554 20.0883798,38.9873317 C20.1840974,38.8724671 19.8931412,38.5826272 20.0674614,38.7516508 L20.0414718,38.2820745 L20.1099321,38.299334 C20.2791812,37.9130792 19.9888588,37.2976902 20.6417672,37.1203344 C20.6455706,36.9661896 20.6455706,36.793595 20.836372,36.6174295 L21.075983,36.6876576 C21.0988031,36.4817344 21.5951403,36.2954513 21.4151151,36.104407 C22.0946469,36.2347456 22.0540779,35.3467763 22.3444003,35.1021681 L22.0749963,34.9361202 C22.2233269,34.7373388 22.2721366,34.4945161 22.3266513,34.1743234 L22.0730946,34.0523168 C22.0147766,33.716055 22.6157059,33.5785745 22.8185512,33.2131501 C22.895886,33.2905201 22.8134801,33.3655094 22.7171286,33.3964574 C23.5361166,33.2911152 22.8952521,32.2811393 23.5443572,32.1305654 C23.5183676,31.9847527 23.5938007,31.9335695 23.6983929,31.9026215 C23.6933217,31.9115488 23.6926878,31.9222616 23.6958573,31.9335695 C23.7047318,31.9252374 23.714874,31.9115488 23.7243824,31.8960748 C23.7934766,31.8782202 23.8701775,31.8633414 23.9392717,31.8395352 C23.8549641,31.8448916 23.7807988,31.8544141 23.7370602,31.8746493 C23.7801649,31.7984696 23.8232695,31.6705115 23.8334118,31.5264843 L24.1237342,31.6312314 C24.1262697,31.6205186 24.1313409,31.6139719 24.1332425,31.6020689 C24.2993222,31.5514808 24.0673178,31.4443531 23.8340457,31.3878135 C23.8277068,31.3086581 23.8093239,31.2283123 23.7731921,31.1533229 C24.2492447,31.3104435 23.8207339,30.7861131 24.3455962,30.9283548 C24.1757133,30.727788 24.5433704,30.2867791 24.1243681,29.96123 C24.1864894,29.992178 24.235933,29.976704 24.2004351,30.0374097 C24.3335523,29.9469463 24.4660357,29.8564829 24.4102532,29.6725804 L24.7734731,29.8148222 L24.5066047,29.2904917 C24.8140422,29.2482358 24.9750507,29.2500213 25.1221135,29.5583109 C24.9896302,28.9447074 25.1829671,29.160153 25.0162536,28.6054697 L25.2184651,28.7471163 C25.2881932,28.6251098 25.1284525,28.2703982 25.3515823,28.3037268 C25.9296915,28.281111 26.2751625,27.0437863 27.1011233,26.5968258 C26.3898969,26.3557886 27.5904877,26.4522035 27.1252112,26.1373672 C27.2988975,26.1867649 27.4453265,26.1427235 27.501109,26.3278164 C27.5860505,25.8999008 28.0811198,25.9540598 27.8326343,25.474961 C28.0069545,25.5243588 27.9999817,25.6773133 28.1102789,25.6945728 C28.097601,25.6481508 28.0557642,25.5094799 28.1673291,25.5267394 C28.278894,25.5439989 28.2579756,25.6505314 28.2858669,25.7427802 C28.4963189,25.3797364 28.0659064,25.0732323 27.6570463,24.7929148 C27.9777955,24.7369704 28.0094901,24.6316282 27.816787,24.3370271 C27.9974461,24.3584526 28.2136032,24.3429786 28.1159839,24.5899674 C28.2193082,24.479864 28.8253087,23.9674366 28.4925155,23.7508006 C28.6053483,23.7644892 28.6332395,23.5954655 28.6154905,23.5401162 C28.8221392,23.2788437 28.8690472,23.2728922 29.0186456,22.9854329 L28.9121518,23.0259034 C28.5723859,22.6735723 28.9723715,22.7479666 29.0699909,22.5021681 L29.1080244,22.5331161 C29.7425499,22.215304 29.1111938,22.2337537 29.783119,21.9474848 L29.5092778,21.820717 C28.9888527,21.4445798 30.1292238,21.5820604 30.1121088,21.1714043 L29.8959517,21.1862831 C29.8129119,20.9178688 30.9406052,21.2023523 31.1161932,21.0874876 C31.1865551,21.0821312 31.1561283,21.1868783 31.1592978,21.2559161 C31.7684677,21.0285674 30.859467,21.0035709 30.9970215,20.6280289 C31.2220531,20.6690945 31.409685,20.9791696 31.596683,20.7607482 C31.8350263,20.713731 31.4001766,19.7543432 31.9313778,19.5990081 C31.743112,19.6061499 31.5580156,19.6073402 31.5307583,19.3942752 C31.5985847,19.1300269 32.4353217,18.9241037 32.0435767,18.5051155 C32.0987252,18.4866657 32.1449993,18.4884512 32.1843006,18.5003543 C32.1373926,18.2533655 32.2178969,17.7712909 31.9789197,17.574295 C32.5145582,17.6254782 32.4911042,17.2630296 32.4308845,16.9380757 C32.3706648,16.6113363 32.2781166,16.3185206 32.7560709,16.4042228 C32.7801588,16.1840159 32.802345,15.9644041 32.8169245,15.7441973 L32.913276,15.7739549 C33.0343493,15.3591328 32.8181923,15.1853479 32.5963302,15.0240612 C32.6698616,14.9335978 32.7548031,15.0091824 32.8042467,15.0210854" id="Fill-77" fill="#FEFEFE"></path>
                <path d="M25.375,23.4599208 C25.463,23.4739208 25.544,23.5139208 25.625,23.5549208 C25.583,23.4699208 25.505,23.4179208 25.375,23.4599208" id="Fill-79" fill="#FEFEFE"></path>
                <path d="M28.54,14.5155 C28.543,14.5105 28.542,14.5045 28.544,14.4985 C28.515,14.4905 28.485,14.4865 28.456,14.4845 L28.54,14.5155 Z" id="Fill-81" fill="#FEFEFE"></path>
                <path d="M18.3335,33.5591459 C18.4545,33.4901459 18.5645,33.4761459 18.6665,33.4851459 C18.5685,33.4191459 18.4545,33.4141459 18.3335,33.5591459" id="Fill-83" fill="#FEFEFE"></path>
                <path d="M18.6338568,42.69 L18.5928568,42.31 C18.5768568,42.486 18.4598568,42.523 18.3648568,42.592 C18.4768568,42.609 18.6518568,42.578 18.6338568,42.69" id="Fill-85" fill="#FEFEFE"></path>
                <path d="M16.3703979,43.4434559 C16.4183979,43.5084559 16.3533979,43.5584559 16.4023979,43.6224559 L16.6253979,43.6514559 C16.6563979,43.4204559 16.5103979,43.2254559 16.3703979,43.4434559" id="Fill-87" fill="#FEFEFE"></path>
                <path d="M17.6040554,42.2628751 C17.2020554,42.2028751 17.2880554,42.4608751 17.3070554,42.7298751 C17.3090554,42.7138751 17.3090554,42.6988751 17.3170554,42.6848751 C17.8560554,42.8798751 17.7300554,42.5718751 17.6040554,42.2628751" id="Fill-89" fill="#FEFEFE"></path>
                <path d="M17.4825543,42.3720947 C17.4845543,42.4540947 17.4775543,42.5360947 17.4425543,42.6080947 C17.6585543,42.6850947 17.5085543,42.5230947 17.4825543,42.3720947" id="Fill-91" fill="#FEFEFE"></path>
                <path d="M18.2864645,40.4810056 C18.1554645,40.5710056 18.7704645,40.6830056 18.5944645,40.7070056 C19.0604645,40.9660056 18.1844645,39.7780056 18.2864645,40.4810056" id="Fill-93" fill="#FEFEFE"></path>
                <polygon id="Fill-95" fill="#FEFEFE" points="17.3915 42.385 17.2455 42.599 17.7545 42.615"></polygon>
                <path d="M18.6195918,38.7579044 L18.6405918,38.2879044 C18.4955918,38.1839044 18.3535918,38.2639044 18.3595918,38.4459044 C18.4335918,38.5899044 18.4395918,38.7669044 18.6195918,38.7579044" id="Fill-97" fill="#FEFEFE"></path>
                <path d="M17.3005,38.4311827 C17.4435,38.5361827 17.4145,39.0331827 17.6995,38.6651827 C17.5515,38.5671827 17.4775,37.8381827 17.3005,38.4311827" id="Fill-99" fill="#FEFEFE"></path>
                <polygon id="Fill-101" fill="#FEFEFE" points="19.1115 33.194 19.0585 33.298 19.9415 33.806"></polygon>
                <path d="M19.3326718,29.1157135 C18.8396718,29.4487135 19.7996718,29.5557135 19.2826718,29.8137135 C19.4206718,30.0487135 19.7046718,29.6027135 19.8126718,29.8237135 C19.7686718,29.4107135 19.9816718,29.3407135 19.3326718,29.1157135" id="Fill-103" fill="#FEFEFE"></path>
                <path d="M19.5215,31.612 C19.5175,31.498 19.5005,31.434 19.4785,31.388 C19.4845,31.454 19.4975,31.527 19.5215,31.612" id="Fill-105" fill="#FEFEFE"></path>
                <g id="Group-109" transform="translate(15.000000, 0.000000)">
                    <mask id="mask-6" fill="white">
                        <use xlink:href="#path-5"></use>
                    </mask>
                    <g id="Clip-108"></g>
                    <path d="M0.4991,0.402 C0.4276,0.373 0.3556,0.347 0.2816,0.324 L0.4361,0.4745 L0.4991,0.402 Z" id="Fill-107" fill="#FEFEFE" mask="url(#mask-6)"></path>
                </g>
                <path d="M27.7135,19.4387807 L27.2865,19.4387807 L27.4085,19.5407807 C27.5735,19.5927807 27.6195,19.5407807 27.7135,19.4387807" id="Fill-110" fill="#FEFEFE"></path>
                <polygon id="Fill-112" fill="#FEFEFE" points="28.235 17.44 28.2 17.501 28.8 17.56"></polygon>
                <path d="M28.3458851,16.288 C28.3058851,16.414 28.4168851,16.584 28.3778851,16.712 C28.3048851,16.417 29.0768851,16.336 28.3458851,16.288" id="Fill-114" fill="#FEFEFE"></path>
                <path d="M18.2155,45.507 L18.4265,45.726 C18.5095,45.583 18.5655,45.327 18.7845,45.274 C18.6315,45.277 18.4025,45.451 18.2155,45.507" id="Fill-116" fill="#FEFEFE"></path>
                <path d="M18.658,45.6546994 L18.342,45.3286994 C18.365,45.6616994 18.495,45.7026994 18.658,45.6546994" id="Fill-118" fill="#FEFEFE"></path>
                <path d="M18.3205,44.681 C18.4055,44.637 18.6325,44.542 18.6985,44.319 L18.3015,44.535 C18.3065,44.579 18.3135,44.63 18.3205,44.681" id="Fill-120" fill="#FEFEFE"></path>
                <path d="M18.5025,44.662 L18.5155,44.655 C18.5005,44.496 18.4895,44.386 18.4845,44.338 C18.4875,44.379 18.4925,44.476 18.5025,44.662" id="Fill-122" fill="#FEFEFE"></path>
                <path d="M18.5188522,44.5185 L18.5148522,44.4815 C18.4758522,44.5025 18.4628522,44.5135 18.5188522,44.5185" id="Fill-124" fill="#FEFEFE"></path>
                <path d="M18.0575,45.5694062 C18.3705,45.6774062 18.5365,45.3964062 18.9425,45.6644062 C18.6725,45.4854062 18.3485,45.0784062 18.0575,45.5694062" id="Fill-126" fill="#FEFEFE"></path>
                <path d="M18.698,45.6675 L18.333,45.2975 L18.302,45.7025 C18.413,45.6765 18.563,45.5795 18.698,45.6675" id="Fill-128" fill="#FEFEFE"></path>
                <polygon id="Fill-130" fill="#FEFEFE" points="18.4115 44.4165 18.5775 44.5835 18.5885 44.4345"></polygon>
                <path d="M18.3434708,43.8424225 C18.4814708,43.8494225 18.7364708,43.9034225 18.6774708,43.6664225 C18.4634708,43.5304225 18.4134708,43.3494225 18.3464708,43.1474225 C18.3044708,43.3854225 18.3024708,43.6244225 18.3434708,43.8424225" id="Fill-132" fill="#FEFEFE"></path>
                <path d="M18.5268519,44.5134529 L18.4968519,44.4804529 C18.4648519,44.5094529 18.4568519,44.5304529 18.5268519,44.5134529" id="Fill-134" fill="#FEFEFE"></path>
                <polygon id="Fill-136" fill="#FEFEFE" points="18.532 42.476 18.463 42.524 18.537 42.518"></polygon>
                <path d="M18.3969324,44.3588441 C18.3459324,44.5408441 18.4669324,44.6218441 18.6149324,44.6938441 C18.5489324,44.5768441 18.4979324,44.4488441 18.4679324,44.3068441 C18.4059324,44.3038441 18.3669324,44.3088441 18.3969324,44.3588441" id="Fill-138" fill="#FEFEFE"></path>
                <path d="M18.5683166,43.333 C18.4993166,43.437 18.4433166,43.55 18.3933166,43.667 C18.5113166,43.557 18.6843166,43.343 18.5683166,43.333" id="Fill-140" fill="#FEFEFE"></path>
                <path d="M18.4663725,44.5032095 C18.4743725,44.5102095 18.4833725,44.5172095 18.4883725,44.5252095 C18.5703725,44.4542095 18.5273725,44.4692095 18.4663725,44.5032095" id="Fill-142" fill="#FEFEFE"></path>
                <path d="M18.649,44.549 C18.572,44.473 18.456,44.424 18.351,44.373 C18.403,44.468 18.466,44.555 18.542,44.627 C18.568,44.6 18.61,44.571 18.649,44.549" id="Fill-144" fill="#FEFEFE"></path>
                <path d="M17.4525828,45.5350344 C17.4865828,45.5060344 17.5165828,45.5020344 17.5475828,45.4950344 C17.4875828,45.4550344 17.4495828,45.4430344 17.4525828,45.5350344" id="Fill-146" fill="#FEFEFE"></path>
                <path d="M17.494,44.1891575 L17.184,44.5701575 L17.402,44.5151575 C17.399,44.5601575 17.412,44.5791575 17.417,44.6101575 C17.401,44.6651575 17.38,44.7191575 17.37,44.7741575 C17.484,44.8221575 17.666,44.9231575 17.723,44.7761575 C17.755,44.7731575 17.787,44.7701575 17.816,44.7721575 L17.618,44.4141575 C17.609,44.3271575 17.612,44.2401575 17.616,44.1471575 C17.589,44.1921575 17.57,44.2391575 17.547,44.2851575 L17.494,44.1891575 Z" id="Fill-148" fill="#FEFEFE"></path>
                <path d="M2.40409096,19.5271514 L2.59809096,19.4841514 C2.47109096,19.4631514 2.38709096,19.4681514 2.40409096,19.5271514" id="Fill-150" fill="#FEFEFE"></path>
                <path d="M13.5812023,29.1743957 L13.2562023,29.4723957 C13.4212023,29.5913957 13.4552023,29.7393957 13.4402023,29.8933957 C13.6142023,29.4693957 13.9422023,28.9113957 13.5812023,29.1743957" id="Fill-152" fill="#FEFEFE"></path>
                <path d="M7.3455,24.4315 C7.3235,24.4755 7.2995,24.5225 7.2765,24.5685 C7.4365,24.5435 7.5855,24.5195 7.7235,24.4985 C7.6075,24.4775 7.4795,24.4545 7.3455,24.4315" id="Fill-154" fill="#FEFEFE"></path>
                <path d="M1.71539325,14.6316205 L1.28539325,14.3656205 C1.26939325,14.7586205 1.50039325,14.5926205 1.71539325,14.6316205" id="Fill-156" fill="#FEFEFE"></path>
                <path d="M16.5753947,37.8613283 C16.6483947,37.5623283 16.6033947,37.3173283 16.5493947,37.1323283 C16.4623947,37.5463283 16.2173947,37.9213283 16.5753947,37.8613283" id="Fill-158" fill="#FEFEFE"></path>
                <path d="M5.6495,18.5133738 C5.5395,18.4483738 5.4405,18.4393738 5.3505,18.4753738 C5.4595,18.5463738 5.5575,18.5713738 5.6495,18.5133738" id="Fill-160" fill="#FEFEFE"></path>
                <path d="M16.3307182,37.137 C16.3127182,37.198 16.3137182,37.241 16.3027182,37.304 C16.4517182,37.457 16.5907182,37.622 16.6667182,37.863 C16.7347182,37.566 16.7157182,37.224 16.3307182,37.137" id="Fill-162" fill="#FEFEFE"></path>
                <path d="M12.46,1.4968142 C12.486,1.5078142 12.515,1.5068142 12.54,1.5218142 C12.526,1.4648142 12.497,1.4718142 12.46,1.4968142" id="Fill-164" fill="#FEFEFE"></path>
                <path d="M17.64,2.47767962 C17.573,2.49867962 17.463,2.49667962 17.36,2.50367962 C17.41,2.53467962 17.494,2.52767962 17.64,2.47767962" id="Fill-166" fill="#FEFEFE"></path>
                <path d="M14.5192517,34.4834987 L14.5132517,34.4694987 C14.4642517,34.5564987 14.4742517,34.5404987 14.5192517,34.4834987" id="Fill-168" fill="#FEFEFE"></path>
                <path d="M5.4715,6.58497835 C5.4905,6.58397835 5.5055,6.57797835 5.5285,6.57897835 C5.5015,6.32097835 5.4725,6.40197835 5.4715,6.58497835" id="Fill-170" fill="#FEFEFE"></path>
                <path d="M8.486,29.5095 C8.494,29.5135 8.506,29.5115 8.514,29.5145 L8.513,29.4855 L8.486,29.5095 Z" id="Fill-172" fill="#FEFEFE"></path>
                <path d="M9,29.591 C9.3778481,29.527 9.39240506,29.689 9.39810127,29.919 L10,29.081 L9,29.591 Z" id="Fill-174" fill="#FEFEFE"></path>
                <path d="M2.5175,8.4595 C2.4985,8.4865 2.4865,8.5145 2.4825,8.5405 C2.4935,8.5095 2.5055,8.4875 2.5175,8.4595" id="Fill-176" fill="#FEFEFE"></path>
                <path d="M6.404,24.593 C6.454,24.519 6.524,24.463 6.596,24.407 C6.502,24.408 6.422,24.458 6.404,24.593" id="Fill-178" fill="#FEFEFE"></path>
                <path d="M1.536,14.524 C1.541,14.517 1.54,14.509 1.543,14.502 C1.515,14.488 1.485,14.481 1.457,14.476 L1.536,14.524 Z" id="Fill-180" fill="#FEFEFE"></path>
                <path d="M13.4650683,34.662 C13.4650683,34.525 13.5070683,34.422 13.5620683,34.338 C13.4570683,34.392 13.4010683,34.49 13.4650683,34.662" id="Fill-182" fill="#FEFEFE"></path>
                <path d="M17.657,43.5897545 C17.597,43.3637545 17.388,43.2387545 17.343,43.4937545 C17.411,43.5357545 17.371,43.6057545 17.44,43.6477545 L17.657,43.5897545 Z" id="Fill-184" fill="#FEFEFE"></path>
                <path d="M17.4167006,42.3815 C17.4527006,42.4575 17.4797006,42.5365 17.4787006,42.6185 C17.7067006,42.6015 17.5037006,42.5115 17.4167006,42.3815" id="Fill-186" fill="#FEFEFE"></path>
                <polygon id="Fill-188" fill="#FEFEFE" points="17.2655 42.628 17.7345 42.428 17.3095 42.372"></polygon>
                <path d="M16.441,40.2467583 L16.404,40.6877583 C16.485,40.6617583 16.545,40.7027583 16.596,40.7577583 C16.555,40.5017583 16.585,40.2017583 16.441,40.2467583" id="Fill-190" fill="#FEFEFE"></path>
                <path d="M16.5785,40.6555 C16.5565,40.5855 16.5045,40.4365 16.4215,40.3445 C16.4415,40.4785 16.4805,40.6005 16.5785,40.6555" id="Fill-192" fill="#FEFEFE"></path>
                <polygon id="Fill-194" fill="#FEFEFE" points="16.463 40.7195 16.537 40.5755 16.506 40.2805"></polygon>
                <path d="M16.4396336,38.2823309 C16.2626336,38.2993309 16.2076336,38.4523309 16.3306336,38.5893309 C16.4806336,38.6513309 16.6026336,38.7913309 16.7356336,38.6693309 L16.4396336,38.2823309 Z" id="Fill-196" fill="#FEFEFE"></path>
                <path d="M14.494,39.6495 C14.556,39.5045 14.661,39.4635 14.799,39.3505 L14.201,39.5215 L14.494,39.6495 Z" id="Fill-198" fill="#FEFEFE"></path>
                <path d="M14.299069,38.5552344 C14.476069,38.5362344 14.760069,38.8982344 14.757069,38.4782344 C14.577069,38.4922344 14.076069,38.0622344 14.299069,38.5552344" id="Fill-200" fill="#FEFEFE"></path>
                <polygon id="Fill-202" fill="#FEFEFE" points="13.0335 33.673 13.0995 33.768 13.9665 33.232"></polygon>
                <path d="M11.923,31.354615 C11.536,31.211615 11.568,30.990615 11.077,31.470615 C11.152,32.057615 11.679,31.248615 11.675,31.822615 C11.946,31.804615 11.678,31.353615 11.923,31.354615" id="Fill-204" fill="#FEFEFE"></path>
                <path d="M11.3905,31.47 C11.4515,31.493 11.5225,31.514 11.6095,31.53 C11.5055,31.483 11.4405,31.471 11.3905,31.47" id="Fill-206" fill="#FEFEFE"></path>
                <path d="M17.4915,3.317 L17.3725,3.435 C17.4615,3.513 17.5465,3.596 17.6275,3.683 L17.4915,3.317 Z" id="Fill-208" fill="#FEFEFE"></path>
                <path d="M18.4015,3.175 L18.3595,3.825 L18.6405,3.275 C18.5675,3.293 18.4275,3.328 18.4015,3.175" id="Fill-210" fill="#FEFEFE"></path>
                <path d="M2.39148422,22.732 L2.53948422,22.675 C2.65048422,22.531 2.61148422,22.444 2.53548422,22.268 L2.39148422,22.732 Z" id="Fill-212" fill="#FEFEFE"></path>
                <polygon id="Fill-214" fill="#FEFEFE" points="2.2575 18.6725 2.7605 18.3275 2.2395 18.5795"></polygon>
                <g id="Group-218" transform="translate(0.000000, 16.000000)">
                    <mask id="mask-8" fill="white">
                        <use xlink:href="#path-7"></use>
                    </mask>
                    <g id="Clip-217"></g>
                    <path d="M0.5001,0.506 C0.4996,0.603 0.5781,0.707 0.5776,0.804 C0.4991,0.6015 0.8606,0.4385 0.5001,0.506" id="Fill-216" fill="#FEFEFE" mask="url(#mask-8)"></path>
                </g>
                <path d="M19.4264816,13.4235 C19.4084816,13.4525 19.4004816,13.4665 19.3884816,13.4865 C19.4064816,13.4985 19.4254816,13.5235 19.4444816,13.5765 C19.6344816,13.3725 19.7044816,13.5125 19.4264816,13.4235" id="Fill-219" fill="#FEFEFE"></path>
                <path d="M18.5405783,13.4658423 C18.4565783,13.4028423 18.4105783,13.6698423 18.5405783,13.4658423" id="Fill-221" fill="#FEFEFE"></path>
                <path d="M19.2585,13.6445107 C19.4605,13.6955107 19.5795,13.5815107 19.7415,13.3435107 C19.6425,13.3445107 19.5435,13.3525107 19.4465,13.3605107 C19.3355,13.4845107 19.3855,13.6155107 19.2585,13.6445107" id="Fill-223" fill="#FEFEFE"></path>
                <path d="M19.5839,13.4908117 L19.4429,13.4718117 C19.3969,13.5258117 19.3909,13.5568117 19.5839,13.4908117" id="Fill-225" fill="#FEFEFE"></path>
                <path d="M19.4707718,13.5368526 C19.6527718,13.4278526 19.4637718,13.5098526 19.2957718,13.5378526 C19.3927718,13.5418526 19.4897718,13.5528526 19.5877718,13.5638526 C19.6677718,13.4778526 19.8547718,13.3398526 19.4707718,13.5368526" id="Fill-227" fill="#FEFEFE"></path>
                <path d="M19.7312046,12.3574073 C19.4402046,12.1554073 19.0972046,12.5244073 19.3662046,12.7014073 C19.4332046,12.5364073 19.4272046,12.3704073 19.7312046,12.3574073" id="Fill-229" fill="#FEFEFE"></path>
                <path d="M19.5125,13.293 C19.4605,13.411 19.4505,13.587 19.2595,13.707 C19.3985,13.645 19.5775,13.448 19.7405,13.339 L19.5125,13.293 Z" id="Fill-231" fill="#FEFEFE"></path>
                <path d="M19.3285,13.4961049 L19.6715,13.5761049 C19.5945,13.3731049 19.4675,13.4021049 19.3285,13.4961049" id="Fill-233" fill="#FEFEFE"></path>
                <path d="M19.8025,12.4720375 C19.5815,12.4710375 19.3645,12.4800375 19.1515,12.4990375 C19.3795,12.4950375 19.6125,12.5060375 19.8485,12.5280375 L19.8025,12.4720375 Z" id="Fill-235" fill="#FEFEFE"></path>
                <polygon id="Fill-237" fill="#FEFEFE" points="19.584 14.483 19.204 14.517 19.796 14.5"></polygon>
                <path d="M19.7965,14.3161336 C19.5015,14.3761336 19.3995,14.6261336 19.2035,14.6331336 C19.3015,14.7141336 19.5585,14.6791336 19.7935,14.6571336 C19.6485,14.6381336 19.6475,14.5531336 19.7965,14.3161336" id="Fill-239" fill="#FEFEFE"></path>
                <path d="M19.3325,14.5200019 C19.4075,14.5280019 19.5115,14.5220019 19.6675,14.4770019 C19.5995,14.4910019 19.4695,14.5050019 19.3325,14.5200019" id="Fill-241" fill="#FEFEFE"></path>
                <path d="M19.335,13.69 L19.665,13.401 C19.653,13.374 19.639,13.342 19.624,13.31 C19.553,13.371 19.358,13.517 19.335,13.69" id="Fill-243" fill="#FEFEFE"></path>
                <path d="M19.47,13.393 L19.459,13.402 C19.5,13.505 19.529,13.577 19.541,13.607 C19.532,13.58 19.511,13.516 19.47,13.393" id="Fill-245" fill="#FEFEFE"></path>
                <path d="M19.48175,13.4924194 L19.49175,13.5154194 C19.52375,13.4874194 19.53375,13.4754194 19.48175,13.4924194" id="Fill-247" fill="#FEFEFE"></path>
                <path d="M19.302,13.534 L19.698,13.64 L19.658,13.36 C19.562,13.419 19.44,13.54 19.302,13.534" id="Fill-249" fill="#FEFEFE"></path>
                <path d="M19.4746066,14.5053384 L19.5076066,14.5153384 C19.5336066,14.4853384 19.5376066,14.4693384 19.4746066,14.5053384" id="Fill-251" fill="#FEFEFE"></path>
                <path d="M22.539,14.4975 L22.465,14.4945 L22.461,14.5055 C22.485,14.5035 22.514,14.5005 22.539,14.4975" id="Fill-253" fill="#FEFEFE"></path>
                <path d="M19.4121728,14.5597078 C19.4931728,14.5227078 19.5611728,14.4807078 19.6201728,14.4367078 C19.4981728,14.4977078 19.3021728,14.5817078 19.4121728,14.5597078" id="Fill-255" fill="#FEFEFE"></path>
                <path d="M19.5294443,14.4822138 L19.5064443,14.4772138 C19.4394443,14.5492138 19.4774443,14.5242138 19.5294443,14.4822138" id="Fill-257" fill="#FEFEFE"></path>
                <path d="M19.353,14.5374756 C19.431,14.5564756 19.545,14.5464756 19.647,14.5404756 C19.589,14.5004756 19.521,14.4684756 19.442,14.4514756 C19.421,14.4774756 19.386,14.5104756 19.353,14.5374756" id="Fill-259" fill="#FEFEFE"></path>
                <path d="M19.6365,14.4725 L19.1815,14.4465 C19.3935,14.4675 19.6095,14.5035 19.8185,14.5535 C19.7615,14.5235 19.6965,14.4955 19.6365,14.4725" id="Fill-261" fill="#FEFEFE"></path>
                <path d="M19.5235,14.5675 L19.6935,14.5135 L19.3065,14.4325 C19.3795,14.4705 19.4515,14.5185 19.5235,14.5675" id="Fill-263" fill="#FEFEFE"></path>
                <path d="M8.404,14.4901212 L8.596,14.5351212 C8.493,14.4711212 8.418,14.4391212 8.404,14.4901212" id="Fill-265" fill="#FEFEFE"></path>
                <path d="M17.3256764,18.3603055 L17.4356764,18.7813055 C17.5236764,18.6873055 17.6076764,18.7243055 17.6916764,18.8033055 C17.4726764,18.4653055 17.2426764,17.9223055 17.3256764,18.3603055" id="Fill-267" fill="#FEFEFE"></path>
                <path d="M12.3775,18.444 L12.2855,18.556 C12.4395,18.528 12.5815,18.502 12.7145,18.477 C12.6075,18.472 12.4945,18.461 12.3775,18.444" id="Fill-269" fill="#FEFEFE"></path>
                <path d="M11.5595,18.3015 C11.4995,18.4035 11.4575,18.5315 11.4405,18.6985 L11.5595,18.3015 Z" id="Fill-271" fill="#FEFEFE"></path>
                <path d="M12.5836783,8.7415 L12.5496783,8.2585 C12.2716783,8.4105 12.5016783,8.5395 12.5836783,8.7415" id="Fill-273" fill="#FEFEFE"></path>
                <path d="M19.6036223,17.4832971 C19.4256223,17.4132971 19.3456223,17.3872971 19.3026223,17.3962971 C19.5176223,17.5402971 19.8656223,17.7362971 19.6036223,17.4832971" id="Fill-275" fill="#FEFEFE"></path>
                <path d="M19.4384905,17.3516765 C19.3984905,17.3666765 19.3544905,17.4616765 19.3994905,17.6206765 C19.4464905,17.6376765 19.4804905,17.6386765 19.5234905,17.6506765 C19.5824905,17.5086765 19.5664905,17.4466765 19.6194905,17.4376765 C19.5344905,17.3886765 19.4784905,17.3376765 19.4384905,17.3516765" id="Fill-277" fill="#FEFEFE"></path>
                <path d="M24.5171813,14.4725 C24.5001813,14.4905 24.4941813,14.5105 24.4741813,14.5275 C24.5331813,14.5225 24.5321813,14.5015 24.5171813,14.4725" id="Fill-279" fill="#FEFEFE"></path>
                <path d="M19.5169268,16.5592361 C19.4769268,16.3122361 19.4669268,16.5222361 19.5169268,16.5592361" id="Fill-281" fill="#FEFEFE"></path>
                <path d="M19.4819945,19.4815725 L19.4719945,19.4865725 C19.5519945,19.5345725 19.5379945,19.5245725 19.4819945,19.4815725" id="Fill-283" fill="#FEFEFE"></path>
                <path d="M19.561,16.347 C19.504,16.428 19.464,16.536 19.439,16.653 C19.472,16.603 19.503,16.497 19.561,16.347" id="Fill-285" fill="#FEFEFE"></path>
                <path d="M19.4951925,16.6061956 C19.5141925,16.5251956 19.5271925,16.4641956 19.5411925,16.4051956 C19.4701925,16.3731956 19.4221925,16.3991956 19.4951925,16.6061956" id="Fill-287" fill="#FEFEFE"></path>
                <path d="M19.521,17.698 C19.498,17.562 19.506,17.43 19.533,17.302 C19.506,17.352 19.483,17.374 19.467,17.362 C19.479,17.433 19.495,17.533 19.521,17.698" id="Fill-289" fill="#FEFEFE"></path>
                <path d="M18.4355971,8.50607741 C18.4405971,8.52207741 18.4485971,8.53307741 18.4535971,8.55307741 C18.6345971,8.41407741 18.5685971,8.42607741 18.4355971,8.50607741" id="Fill-291" fill="#FEFEFE"></path>
                <path d="M14.4895,22.5185 C14.4975,22.5155 14.5035,22.5045 14.5105,22.4995 L14.4895,22.4815 L14.4895,22.5185 Z" id="Fill-293" fill="#FEFEFE"></path>
                <path d="M14.1895,22 C14.5275,21.680893 14.6335,21.7393303 14.7945,21.8273145 L14.8105,21 C14.6225,21.3361786 14.4155,21.6690742 14.1895,22" id="Fill-295" fill="#FEFEFE"></path>
                <path d="M22.9462558,19.6104227 C22.7707176,19.4092627 22.6375294,19.1687319 22.5405537,18.9423499 C22.6166612,19.0038668 22.692155,19.0647684 22.7842205,19.1164426 C22.8584867,19.1601195 22.9382768,19.2001055 23.018067,19.2407066 C22.9769444,19.3452852 22.9683516,19.4953862 22.9462558,19.6104227 M21.4161266,18.1653924 C21.3805279,18.2865805 21.3473843,18.4200721 21.161412,18.4655945 L20.9901701,18.2951929 C20.934317,18.4434485 20.5384352,18.3314878 20.6354109,18.5652518 C20.162194,18.1161789 20.0523291,18.7848669 19.7994558,18.7940944 L19.9461469,19.0696898 C19.8043659,19.1293611 19.7202794,19.2745408 19.6042768,19.472625 L19.7362374,19.7150013 C19.6767017,19.9936726 19.2587242,19.7254592 19.0340843,19.838035 C19.0132161,19.7328412 19.0825721,19.735917 19.1494731,19.7777485 C18.8923034,19.5464452 18.7934863,19.7014676 18.6860765,19.8792513 C18.5811218,20.0533439 18.4651193,20.2483522 18.2779193,20.0601107 C18.2355692,20.1751472 18.1791023,20.1493101 18.1201804,20.0920995 C18.1257043,20.090254 18.1300007,20.0841023 18.1330696,20.0742596 C18.1257043,20.0724141 18.115884,20.0742596 18.1060637,20.0767203 C18.0680099,20.0361192 18.0281148,19.9887512 17.9894473,19.9518411 C18.0281148,20.0121276 18.0643273,20.0607259 18.0919469,20.0810265 C18.0440729,20.0982512 17.9753306,20.1462343 17.9108847,20.225591 L17.8323221,19.9383074 C17.8267982,19.9432288 17.821888,19.9432288 17.8169779,19.9493804 C17.7316638,19.8534142 17.7789241,20.097636 17.8519628,20.3117146 C17.8206605,20.3664645 17.7930408,20.4298269 17.7734002,20.5030319 C17.6561701,20.0348888 17.5800626,20.6906582 17.4517846,20.1856051 C17.418641,20.4408999 17.0835224,20.3910713 17.0307382,20.9096581 C17.0288969,20.8413745 17.0043461,20.8087705 17.0497651,20.8056947 C16.956472,20.7423324 16.8711579,20.6838914 16.7797062,20.8247649 L16.7662032,20.4458212 C16.6925508,20.6088408 16.6115331,20.7743211 16.5249915,20.9336497 C16.4243332,20.6888127 16.4065338,20.5522454 16.5501561,20.2784955 C16.2205615,20.6851217 16.3199922,20.4150628 15.9916252,20.799543 L16.0572986,20.5651639 C15.9781222,20.554706 15.7528685,20.8364531 15.7590062,20.6242201 C15.7326141,20.3750769 15.5294562,20.2932595 15.310954,20.1733017 C15.0949068,20.053959 14.8641292,19.8866333 14.8592191,19.5882766 C14.4406277,20.1739169 14.9365541,19.231479 14.5461962,19.6134985 C14.6493096,19.476316 14.6842945,19.3735829 14.8328269,19.3163723 C14.704549,19.3065296 14.7051627,19.2031813 14.6904322,19.1330521 C14.6714054,19.0635381 14.6327378,19.0284735 14.4007327,19.0979875 C14.5283969,18.9823359 14.6290552,18.9934089 14.6996388,18.9183584 C14.6621988,18.9275859 14.5443549,18.949732 14.6167798,18.8771421 C14.6904322,18.8057826 14.7511955,18.8223921 14.8279168,18.8039371 C14.7020939,18.6778276 14.2460626,18.9035943 13.8090582,19.1336673 C13.9434738,18.906055 13.8943722,18.8746814 13.5617087,18.9232797 C13.6844628,18.8094736 13.8053755,18.6753669 13.9256745,18.7904034 C13.8986686,18.701204 13.9318122,18.215221 13.5641638,18.3308727 C13.6488641,18.269971 13.5488196,18.1979963 13.4972629,18.1875384 C13.4610504,17.9734599 13.4843737,17.9513138 13.3990596,17.7519993 L13.3505718,17.8252043 C12.8736723,17.8553476 13.2014256,17.6732578 13.1130427,17.5120837 L13.1615305,17.5077775 C13.4180865,17.0464013 12.9651241,17.3582916 13.2842846,16.899376 L12.9951988,16.9639687 C12.3636292,17.0107215 13.3155869,16.5505756 13.0541208,16.3463397 L12.895768,16.449688 C12.6637629,16.3352667 13.7194477,16.0043062 13.78819,15.8781967 C13.841588,15.8462079 13.8796417,15.9157219 13.9238332,15.9501714 C14.2724547,15.5927586 13.5359304,15.9360225 13.4291344,15.6887248 C13.6341336,15.6302839 13.9606594,15.7145619 13.9888928,15.546621 C14.1509282,15.4586519 13.2916498,15.0969329 13.6961244,14.8994639 C13.5359304,14.9388347 13.3745088,14.9849723 13.2560512,14.8760875 C13.2026532,14.6890764 13.8827106,14.5315933 13.4045836,14.3482731 C13.4506163,14.3390456 13.4929665,14.3408911 13.5322478,14.3470428 C13.4193141,14.2240091 13.3935357,13.9957817 13.1639856,13.8364531 C13.6580707,13.9650233 13.5838045,13.8204587 13.5389993,13.6334476 C13.4911252,13.4507426 13.4831462,13.2348185 13.8422018,13.5374813 C13.8894621,13.4525881 13.9477702,13.3652342 14.0158987,13.27665 L14.0760482,13.3523157 C14.2657032,13.2588101 14.1859131,13.0385798 14.1159433,12.8060462 C14.199416,12.8220406 14.2196705,12.9173917 14.2466763,12.958608 C14.6431719,12.9013973 14.6315103,12.8743299 14.6529923,12.3034537 L14.8334407,12.5519817 C14.8254617,12.4560155 15.001,12.4978469 15.1820622,12.5095351 C15.3686484,12.5249143 15.5656686,12.5255295 15.6571204,12.2917655 C15.6669407,12.3255998 15.6798299,12.3809649 15.6718509,12.4320239 C15.7903085,12.2068723 16.0781668,12.3120661 16.2948277,12.3865015 C16.5121023,12.4474031 16.6612485,12.4363301 16.6293324,11.8820635 L16.8472209,11.5634063 C16.4777312,11.5449512 16.8251252,11.0780385 16.6459042,10.9236313 C16.7925953,10.823974 17.0804536,11.2047632 16.9061428,11.2785834 L16.8705442,11.2262941 C16.887116,11.8063978 17.3456023,11.3813165 17.3683118,11.774409 C18.054507,11.693822 18.6873041,12.0758415 19.2489039,12.2339397 L19.2789786,11.7774848 L19.4895018,11.8580719 C19.5208041,11.9737235 19.47293,12.216715 19.3323766,12.161965 C19.3440383,12.4283329 19.6325103,12.0174005 19.6687227,11.9257404 C19.9019554,12.1939538 19.4097117,12.3932683 19.4962533,12.4338694 C19.5379897,12.4314087 19.5772709,12.4363301 19.6177798,12.4375604 L19.6085732,12.3785043 C19.6312827,12.355743 19.6496958,12.3323666 19.6693365,12.3089902 C19.6687227,12.3828104 19.676088,12.4886194 19.6754742,12.5175323 C19.6945011,12.4824677 19.692046,12.3618947 19.6877496,12.2880745 C19.7859528,12.1705774 19.8596053,12.0684594 19.9946347,12.1324369 C20.0756524,12.2542403 19.9559672,12.4098778 19.9915659,12.4437121 C19.9792905,12.472625 19.9878832,12.4929256 20.0480327,12.4818525 L20.2696038,12.6165744 L20.3150228,12.2511644 C20.4770581,12.1496617 20.5353663,12.3194481 20.5795578,12.0653836 C20.5863092,12.0659988 20.5942883,12.0666139 20.6016535,12.0672291 C20.6194528,12.3120661 20.7839433,12.4523245 20.9619366,12.5630547 C21.1663221,12.6897794 21.3934171,12.7808243 21.3719352,12.8921698 C21.6518144,12.779594 21.7807061,12.8958608 21.8654064,13.0373495 C21.8936399,12.9616838 22.163085,12.6571755 22.2434889,12.8288075 C21.9003913,13.0711838 21.8813645,13.1788382 21.8739992,13.2760348 C21.7991192,13.3227876 21.7181016,13.36831 21.578162,13.3695404 C21.6653173,13.3664645 21.7684307,13.3861499 21.8617238,13.3701555 C21.8469933,13.4415151 21.8028019,13.5227173 21.6352426,13.6340627 C21.7929815,13.5104139 21.853131,13.5719307 21.9310799,13.6482116 C22.0078011,13.7208015 22.1047768,13.8044644 22.3349407,13.6186835 C22.320824,13.7693998 22.0863637,13.741102 21.9323074,13.8665964 L21.8635651,13.8475261 L21.8733854,13.9115036 L21.9089841,13.9004306 C22.1268726,14.0382283 22.1047768,14.292908 22.0771572,14.5648124 C22.0569028,14.5383601 22.0035047,14.5352843 21.9421277,14.5389753 C21.9869329,14.5685034 22.0225316,14.6029528 22.0446273,14.6453994 C22.056289,14.6417084 22.0624267,14.6380174 22.0697919,14.6349416 C22.0667231,14.6650848 22.0654955,14.6952281 22.064268,14.7253713 C22.0605854,14.6976887 22.056289,14.6700062 22.0446273,14.6453994 C21.9642234,14.669391 21.8199874,14.7081466 21.8592687,14.7702786 C21.9844779,14.7690482 22.0139388,14.8170314 22.0495375,14.855787 C22.0556752,14.8410229 22.0550614,14.8250286 22.0581303,14.8096494 C22.0575165,14.8274892 22.0587441,14.8447139 22.0593578,14.8625538 C22.056289,14.8600932 22.0519926,14.8576325 22.0495375,14.855787 C22.0274418,14.8890061 21.9967533,14.92161 21.9556307,14.9529836 L21.9703611,14.9456015 L21.9691336,14.9456015 L21.97343,14.9443712 C22.0035047,14.9302223 22.0219178,14.9222252 22.0059598,14.9332982 C22.0090287,14.932683 22.0120975,14.9345285 22.0120975,14.9345285 C22.0305106,14.9302223 22.0452411,14.9265313 22.0624267,14.9222252 C22.0630405,14.9277617 22.0630405,14.9332982 22.0636542,14.9388347 C22.0458549,14.940065 22.0305106,14.9345285 22.0120975,14.9345285 L21.97343,14.9443712 L21.9703611,14.9456015 C22.002891,14.9585201 22.034807,14.9782055 22.0661093,14.994815 C22.0697919,15.0206521 22.0789985,15.0446436 22.0851362,15.0698655 C22.0329657,15.0957026 21.9513343,15.1215397 21.8218287,15.1486071 C21.8537448,15.1547588 21.8838195,15.1609104 21.9108254,15.1621408 C21.9875467,15.1805958 22.0532201,15.1879779 22.1133696,15.1904385 L22.117666,15.173829 C22.224462,15.1590649 22.3699256,15.0483347 22.5466914,15.119079 L22.5086377,15.1461464 C22.3834285,15.162756 22.2625158,15.1787503 22.1587886,15.192284 C22.2348961,15.195975 22.3079348,15.1947447 22.3926351,15.2304245 L22.0636542,15.4684946 C22.0747021,15.4826435 22.1041631,15.4900255 22.1385342,15.4961772 C21.8592687,15.4967923 22.1943873,15.5460058 21.7659757,15.5767642 C22.042786,15.5804552 22.0096424,15.6973372 21.9752713,15.8351349 C21.9409002,15.9717023 21.912053,16.113191 22.2170968,16.0498286 C21.684958,16.1371825 21.9366038,16.3192723 21.4775036,16.6207048 C21.6033265,16.62132 21.7199429,16.5112049 21.6426078,16.8237103 C21.6788203,16.8397047 21.7236255,16.8753845 21.7506314,16.8975305 C21.746335,16.9061429 21.7444937,16.9104491 21.7408111,16.9190614 L21.7561553,16.9012215 C21.7739547,16.9153704 21.7782511,16.9166008 21.7604517,16.8950699 C21.8163048,16.8194042 21.8832058,16.7609632 21.9544031,16.7443536 C22.216483,16.8901485 22.2514679,17.4118112 22.4079793,17.3662888 C22.3601053,17.4321118 22.2606745,17.3527551 22.1348516,17.3958169 C22.2128004,17.4136567 22.2919768,17.4351876 22.3711531,17.4616399 C22.0974116,17.4887073 21.9298523,17.5736005 21.7469488,17.4831708 L21.7481763,17.5545303 C21.5959613,17.5846735 21.532743,17.6031286 21.6487455,17.6652606 C21.6376977,17.6671061 21.6383114,17.6732578 21.6469042,17.6812549 C21.6892544,17.7187802 21.9010051,17.8301257 21.7279219,17.7433869 C21.7733409,17.7981369 21.8101671,17.8584234 21.8365592,17.9224009 L21.7708858,17.8910273 C21.7377422,17.9150189 21.754314,17.9894543 21.7586104,18.0626593 C21.7316045,18.0497408 21.7039849,18.0380526 21.6775927,18.0232885 C21.7033711,18.0454346 21.7316045,18.0663503 21.7579966,18.0878812 C21.759838,18.1973811 21.7199429,18.2878109 21.4161266,18.1653924 M20.0517154,12.3508217 L20.0412813,12.2616223 C20.1591251,12.2191757 20.1063409,12.2806925 20.0517154,12.3508217 M22.4601498,16.3334212 L22.5393262,16.3371122 C22.5632632,16.5868706 22.6221852,16.8249407 22.6516461,17.0439406 L22.6516461,17.0488619 C22.46506,16.8458564 22.2864528,16.5684155 22.4601498,16.3334212 M22.1827257,15.5023289 C22.35274,15.5195536 22.6086822,15.5047895 22.3515125,15.6807277 C22.4374403,15.6419721 22.5663321,15.5829159 22.6105235,15.6413569 C22.6031583,15.6616574 22.6043858,15.6813428 22.5982481,15.7016434 C22.5245957,15.7041041 22.5356435,15.7576237 22.5706284,15.8289832 C22.5460776,15.9464804 22.5325747,16.062132 22.5350298,16.1759381 C22.5270508,16.179014 22.5196855,16.1820898 22.5117065,16.1857808 C22.368698,15.9557079 22.0476962,15.6438176 22.1827257,15.5023289 M22.3466023,17.7089375 C22.4042967,17.6990948 22.4619911,17.7015555 22.5196855,17.7021707 C22.4638324,17.7661482 22.3895662,17.8153616 22.2950456,17.8473504 C22.2434889,17.7962914 22.2416476,17.758151 22.3466023,17.7089375 M21.93599,17.6381932 C21.9409002,17.6400387 21.9451966,17.641269 21.9513343,17.6431145 C21.8334904,17.6707971 21.8801369,17.6621847 21.93599,17.6381932 M12.7619661,19.9949029 C12.6514875,20.0078214 12.6576252,19.914931 12.7134783,19.7888215 C12.7644212,19.8275771 12.7840618,19.8915546 12.7619661,19.9949029 M10.9421373,15.4931013 C10.8770777,15.4365058 10.6818987,15.3140874 10.854982,15.261798 C11.1962382,15.3251604 11.0354304,15.3836014 10.9421373,15.4931013 M24.837282,14.5623517 L24.7673122,14.7875033 C24.4855916,14.2356973 24.5702919,13.5294841 24.0068508,13.0219703 L23.8933033,13.1130152 C23.480236,12.7562176 23.9098751,12.6731699 23.4845323,12.1914931 L23.5238136,12.1921083 L23.482691,12.1834959 C23.3188144,12.1502768 23.1874675,12.0721505 23.0996984,11.9515775 C23.3274072,11.9632657 23.1297731,11.5228052 23.4010596,11.5541788 C23.0818991,11.4176114 22.9978125,11.4274541 22.9075883,11.4551367 C22.8198192,11.4902012 22.7252986,11.5547939 22.4380541,11.6513753 L22.5178442,11.4243782 C22.3017971,11.5215748 22.2336686,11.6003164 22.0059598,11.518499 C22.2821564,11.4649793 22.0685644,11.1444767 22.4055243,11.0558924 C22.3195964,10.7027858 22.0691782,10.6966342 21.8850471,10.6972493 C21.6923232,10.7052465 21.5572938,10.7126285 21.6088505,10.3287635 C21.115993,10.783988 21.853131,10.8498111 21.6708413,10.9076369 C21.6640898,11.1370946 21.2780283,11.2349064 21.1749149,11.1106424 C21.0509333,11.025134 21.2718906,10.2672467 20.8606645,10.1048423 C20.8993321,10.1245276 20.9189727,10.0808507 20.9576402,10.0999209 C20.8618921,9.8827665 20.5881505,10.2001933 20.4850371,9.88707268 C20.2677625,10.2155725 20.2468943,9.78618508 20.0824039,10.2494068 C20.2137507,10.2414096 20.3426424,10.2530978 20.4758306,10.2549433 C20.223571,10.3004658 19.8927489,10.8005976 19.638648,10.4542578 C19.6859083,10.3650584 19.8141863,10.2641708 19.9025692,10.2118815 C19.8375095,10.0476316 19.6902047,10.2561737 19.6202349,10.0870024 C19.7571056,9.62193514 20.0922242,10.0882327 20.4236601,9.8071008 C20.3684208,9.56410932 19.88968,10.0291766 20.1443947,9.54688461 C19.8135725,10.1540557 19.7393063,9.35187626 19.3520173,9.8089463 L19.4219871,9.52535372 C19.3673615,9.56226382 19.2507452,9.68160647 19.1703413,9.66007558 L19.3833196,9.31312066 C19.0991439,9.58440988 18.957363,8.96616574 18.6971244,9.11503647 C19.1875268,9.15748308 18.7695493,9.47614026 18.9438601,9.70928904 C18.3620059,10.0297917 18.6584569,8.98400562 18.0440729,9.02030055 C18.1520964,9.0522893 18.3030839,9.22576676 18.1791023,9.33465155 C18.0557345,9.27128922 17.8894028,9.1513314 17.8077713,9 C17.357264,9.0756657 17.8795824,9.29835662 17.6923825,9.48413745 C17.5358711,9.13349152 17.4818593,9.63669918 17.3081623,9.75727217 L17.2879079,9.46076105 C16.7778648,9.31496617 17.2136417,10.0882327 16.7649757,9.90368222 L16.8987776,9.47490992 L16.6821167,9.60594077 L16.6851855,9.26636787 C16.4623869,9.54380877 16.3832106,9.50382283 16.1143792,9.4539942 C16.2119687,9.65084805 16.1855766,9.9836541 15.9854875,10.0402496 C15.8044252,9.90552773 16.0014455,9.74435363 15.7148148,9.86308111 C15.7332279,9.66622726 15.7590062,9.41892961 15.9523439,9.65146322 C15.9449786,9.55180596 15.9811911,9.4558397 15.9762809,9.35864311 C15.7682128,9.19377801 15.5533932,9.41769927 15.4429146,9.44784252 C15.4901749,9.44722735 15.546028,9.44845769 15.5834679,9.48290711 C15.4680791,9.65638457 15.358828,9.82124967 15.2612386,10.0045698 C15.1593527,9.9215221 15.1845173,9.818789 15.2115232,9.71667106 C15.1329606,9.77757272 15.1151612,9.92767379 14.9967036,9.99595747 C14.9500571,9.756657 14.8561502,9.52535372 15.0145029,9.35126109 L14.6738604,9.75358116 C14.6094146,9.66315142 14.3510173,9.57764303 14.3718855,9.47121891 C14.0656141,9.44661218 13.9864378,10.147904 13.6157205,10.147904 C13.6230858,10.1971175 13.6138792,10.2530978 13.569074,10.3170753 C13.2775331,10.4210388 12.8650795,10.341682 12.7509183,10.8282802 C12.6066822,10.7556903 12.4606049,10.6874066 12.3102312,10.622814 C12.1297828,10.8959487 12.8785825,10.8596537 12.5950206,11.3050356 C12.4213236,11.6409175 12.2500817,11.1161789 12.0708608,11.1167941 C12.0659507,11.4206872 12.1788844,11.9275859 11.682958,12.0032516 C11.6946197,11.8525354 11.8069396,11.8174708 11.8560412,11.7110467 C11.7345147,11.7288865 11.6111469,11.7534933 11.4859378,11.785482 C11.4055339,11.2472098 11.712419,11.1334036 11.258229,11.1266368 C11.5528387,11.4243782 11.3754591,11.653836 11.2158789,11.9275859 C11.0520022,12.2013358 10.924338,12.5113806 11.2932139,12.706389 L11.0501609,12.8152737 C11.0814632,12.7654451 11.0409543,12.7365322 11.0722566,12.6873187 C10.5444142,12.9063187 11.5055784,13.1868354 11.271732,13.5565515 C11.1692323,13.6863521 11.0329753,13.7681694 10.9580954,13.6414448 C10.9979904,13.7730908 11.044637,13.8973548 11.0949661,14.0166974 C11.0655052,14.1077423 10.9237242,14.0659109 10.956254,13.9699446 C10.9495026,14.1440373 10.953799,14.3107479 10.9636193,14.471922 L10.9390685,14.4670006 C11.0655052,14.5463573 11.2576152,14.7044556 11.3429293,14.7745848 C11.2195615,14.8828544 11.2563877,14.7149134 11.151433,14.7401353 C11.2152651,14.8262589 11.2815523,14.9074611 11.3484532,14.9868178 C11.1330199,15.0846296 10.9206554,14.8846999 10.9599367,14.7044556 C10.1209127,14.9265313 11.1581845,14.9240707 10.6843538,15.4125143 L10.5732614,15.1842868 C10.1031134,15.3460761 10.2798792,15.5324721 10,15.7914579 C10.1491462,15.7225591 10.718725,15.2531857 10.9372272,15.499253 C10.8770777,15.5736884 10.8519131,15.6665788 11.0274514,15.7871518 C10.7316141,15.8056068 10.812018,15.9298708 10.8396377,16.0879691 L10.4474385,16.1058089 C10.5738752,16.2749802 10.7727367,16.2454521 10.9574816,16.332806 C10.9341583,16.5296599 10.6377073,16.6016346 10.3879028,16.67607 C10.3596694,17.0058002 10.849458,16.4047807 10.9630055,16.7744969 C10.8445479,17.0550136 11.0274514,17.2284911 11.3128546,17.5047016 C11.2097412,17.7132437 11.0704153,17.5126988 10.9709845,17.5988224 L11.3097857,17.7095527 C11.3103995,17.7513841 11.2134238,17.7569206 11.1643222,17.7593813 C11.3110132,17.8756481 11.552225,17.6972493 11.698916,17.8879515 C12.1297828,17.8393532 11.1839628,18.4803586 11.7437213,18.6279989 C11.6565659,18.727041 11.5043509,18.6655242 11.365025,18.7301169 C11.7946642,19.011864 11.6903233,18.9915634 12.2114142,19.1293611 C12.1659952,19.2431672 12.1175074,19.3606644 12.0788398,19.4806222 C12.2660398,19.1773442 12.6919963,19.2770015 13.0326388,19.3157571 C13.1326833,19.1951841 13.2229076,19.096142 13.2621889,19.0407769 C13.3689849,19.0973724 13.4690294,19.1539678 13.5782805,19.19826 C13.5389993,19.2579313 13.4082662,19.3016082 13.2394794,19.3366728 C13.2781469,19.3391335 13.3155869,19.3403638 13.3487305,19.3385183 C13.2744643,19.5009228 13.053507,19.5716671 12.818433,19.6018104 C12.8669208,19.5286053 12.9178638,19.4566306 12.9761719,19.3846559 C12.7300501,19.4258722 12.4575361,19.4677037 12.2586745,19.5845856 C12.3096174,19.585816 12.3636292,19.6085772 12.4041381,19.6424115 C12.3372371,19.6510238 12.2783152,19.6639423 12.2482404,19.6910098 C12.2175519,19.721153 12.3102312,19.7168468 12.42562,19.7217682 L12.0825225,20.0035152 L12.2451716,19.9376922 C12.2445578,20.1259337 12.2506955,20.3190966 12.2770876,20.5153353 C12.8571005,20.5842341 13.5359304,20.3929168 13.9895066,20.5602426 C13.6869179,20.7214166 13.6181756,20.9324194 13.3616196,21.2135513 C13.5224275,20.8235346 12.9227739,21.0345373 12.7846756,20.7367959 C12.8497353,20.8850514 12.6926101,20.978557 12.6171163,20.9865542 C12.8319359,21.0511468 13.0492106,21.09913 13.2578925,21.1348097 C13.0344801,21.3519641 13.1836263,21.3821074 13.2106322,21.5771157 C13.5273376,21.04438 13.7777559,21.5242113 14.0643866,21.4713068 C13.9655696,21.6484753 13.8004654,21.8102645 13.6089691,21.6017225 C13.6003763,22.1707531 14.3160324,21.2153968 14.3369006,21.6792337 C14.2804337,21.6546269 14.2681583,21.6115652 14.1938921,21.6909219 C14.4080979,21.6041831 14.6474683,21.8853151 14.5007772,22.0114246 L14.4424691,21.9886633 C14.7886355,22.2636436 15.6473001,22.4254328 15.7989013,21.9117673 C15.7896947,21.9794358 15.6141565,22.5158626 15.5632135,22.612444 C15.9400685,22.0981633 16.2487949,21.5512787 16.4961443,20.9902452 C16.3807555,21.428245 16.5053509,22.5232446 16.1377025,22.7317866 C16.2260854,22.8074523 16.3457706,22.9015731 16.5655003,22.7570085 C16.4998269,22.6874945 16.4623869,22.0969329 16.5489285,22.0624835 C16.7434937,22.5792249 16.6833442,22.3448458 16.9705887,22.7785394 C16.8742268,22.6788822 17.0000497,21.9812813 17.1332378,22.0015819 C17.1111421,22.1073908 17.1510372,22.696722 17.0945703,22.7711574 C17.223462,22.5373934 17.3406922,22.3067053 17.4456469,22.0692504 C17.3640154,22.1996661 17.456081,22.6561209 17.5579668,22.8449776 C17.5082514,22.7139467 17.8955405,22.8345197 17.9912886,22.7490113 L17.8126815,22.608753 C18.26012,22.6604271 18.0907194,21.5955708 18.4522301,21.559891 C18.441796,21.7081466 18.5105383,22.4469637 18.7419296,22.4863345 C18.7763008,22.1166183 18.7308818,20.7349503 18.8972135,20.3929168 L19.0144436,20.5670094 L19.1476318,20.2748045 C19.2231255,20.8173829 19.1513144,22.0286493 18.9714797,22.5189384 C19.1672724,22.6327445 19.0770482,22.7410141 19.3065983,22.6561209 C19.4440828,22.813604 19.2568829,22.9723174 19.1850718,23 C19.3863884,22.9907725 19.5858637,22.9704719 19.7865666,22.9477107 C19.6343516,22.5644608 20.0639908,22.4106688 19.9160721,22.0938571 C19.7859528,22.2987081 19.6411031,22.4986378 19.4852054,22.6973372 C19.3514035,22.3060902 19.4520618,21.4823798 19.7933181,21.4202478 C19.9418505,21.5389753 20.0013862,22.1289217 20.0560117,22.2556464 C20.0547842,22.1067756 20.2898582,21.8650145 20.3616693,21.9431409 L20.298451,22.2113542 C20.5672824,22.2667194 20.3929716,21.5715792 20.7894672,21.8176465 C20.8772363,21.8028825 21.2700493,22.1707531 21.1712323,21.9456015 C20.8177006,21.5968011 20.1474635,20.3006415 20.0529429,19.9512259 C20.087314,19.9721417 20.602881,20.1689955 20.7999013,20.3203269 C21.1018762,20.5713156 21.0675051,21.1858687 21.3228335,21.4036383 C21.2712768,21.3027507 21.2694355,21.1428069 21.2731181,21.0880569 C21.398941,21.1255822 21.4179679,21.4091748 21.5615902,21.2646102 C21.3731627,20.8905879 21.9132805,21.0855963 21.4554079,20.9145795 C21.548701,20.7128043 21.6702275,20.8838211 21.8426969,20.7460234 C21.6389252,20.5559364 21.4922341,19.8737147 21.55668,19.6787064 C21.610078,19.7715968 21.722398,19.8620265 21.7751822,19.9026276 C22.0869775,19.7223833 22.3594915,19.7537569 22.6258678,19.538448 C22.7117956,19.6011952 22.9425732,19.5649003 23.0008814,19.7525266 C22.9984263,19.6565603 22.9407319,19.5187626 23.0254322,19.4320239 C23.4808497,19.5156868 22.8468251,19.6614817 23.3022426,19.841726 C23.1979016,19.7150013 23.2463895,19.5470604 23.2868983,19.3852711 C23.3752812,19.4381756 23.4605953,19.4953862 23.5342477,19.5679761 C23.4679606,19.4000352 23.5428405,19.3397487 23.664367,19.2960717 C23.6772562,19.3975745 23.6975106,19.4738553 23.8251748,19.3083751 C23.8128994,19.293611 23.806148,19.2726953 23.8012378,19.2499341 C23.8417466,19.2388611 23.8810279,19.2284032 23.9239918,19.2136392 C24.1694999,19.1373583 24.4156218,18.9589595 24.1510868,18.6132349 C24.2990055,18.5664821 24.2947091,18.7621056 24.4414002,18.7651815 C24.2535865,18.5578698 24.2474488,18.4292996 24.4223733,18.2139907 L24.4751575,18.2576676 C24.5715195,17.5692943 24.8200964,17.2955444 24.9514432,16.5622638 L24.6648125,16.6336233 C24.6936597,16.4841374 24.7808151,16.4466122 24.8477161,16.3721768 C24.3953674,16.2454521 24.8550813,16.7824941 24.3579274,16.6656121 C24.9422367,16.4146234 24.268317,15.7047192 24.9109344,15.4906407 C24.882701,15.2784076 24.5880913,15.6026013 24.5598578,15.3928289 L24.730486,15.3085508 L24.4905018,15.2931716 C24.5064598,15.1516829 24.7175968,15.0427981 24.8685843,15.0101942 C24.8563089,15.0477195 24.92812,15.0993936 24.9471468,15.1332279 C25.1282091,14.9136128 24.7814289,14.6361719 24.837282,14.5623517" id="Fill-297" fill="#FEFEFE"></path>
                <path d="M17.4535,8.50078239 C17.4905,8.49478239 17.5125,8.50678239 17.5465,8.50478239 C17.5125,8.49478239 17.4785,8.49078239 17.4535,8.50078239" id="Fill-299" fill="#FEFEFE"></path>
                <path d="M11.392,18.5785363 C11.452,18.5155363 11.529,18.4685363 11.608,18.4215363 C11.516,18.4195363 11.431,18.4585363 11.392,18.5785363" id="Fill-301" fill="#FEFEFE"></path>
                <path d="M12.4945,8.544 C12.5025,8.544 12.5065,8.541 12.5135,8.54 C12.5085,8.51 12.4985,8.482 12.4865,8.456 L12.4945,8.544 Z" id="Fill-303" fill="#FEFEFE"></path>
                <path d="M19.642,21.5523951 C19.524,21.5413951 19.434,21.4923951 19.358,21.4313951 C19.412,21.5363951 19.498,21.6003951 19.642,21.5523951" id="Fill-305" fill="#FEFEFE"></path>
                <path d="M19.364957,16.317 L19.416957,16.683 C19.426957,16.503 19.543957,16.472 19.635957,16.411 C19.522957,16.393 19.349957,16.421 19.364957,16.317" id="Fill-307" fill="#FEFEFE"></path>
                <path d="M19.7216604,17.4743145 C19.8206604,17.4303145 19.2006604,17.5043145 19.3636604,17.4733145 C18.8376604,17.4723145 20.0266604,17.6233145 19.7216604,17.4743145" id="Fill-309" fill="#FEFEFE"></path>
                <polygon id="Fill-311" fill="#FEFEFE" points="19.751 19.919 19.249 19.033 19.68 19.967"></polygon>
                <path d="M17.4796007,22.0801759 C17.2506007,22.3761759 17.0726007,22.2591759 17.3116007,22.8991759 C17.8376007,23.0551759 17.3166007,22.2691759 17.7966007,22.4811759 C17.8556007,22.2231759 17.4066007,22.3081759 17.4796007,22.0801759" id="Fill-313" fill="#FEFEFE"></path>
                <path d="M8.483,16.6245 C8.648,16.5705 8.657,16.5055 8.674,16.3755 L8.326,16.6145 L8.483,16.6245 Z" id="Fill-315" fill="#FEFEFE"></path>
                <polygon id="Fill-317" fill="#FEFEFE" points="8.232 13.455 8.195 13.541 8.805 13.545"></polygon>
                <path d="M11.5840455,10.278 C11.4360455,10.376 11.3700455,10.613 11.2230455,10.722 C11.4390455,10.366 12.1010455,10.8 11.5840455,10.278" id="Fill-319" fill="#FEFEFE"></path>
            </g>
        </g>
    </g>
</svg>